<svg width="70" height="70" viewBox="0 0 70 70" fill="none" xmlns="http://www.w3.org/2000/svg">
<g filter="url(#filter0_d_16481_2291)">
<circle cx="35.0002" cy="31" r="31" fill="white"/>
</g>
<path d="M23.9015 16.7989C23.8994 16.8261 23.7251 16.9613 23.6461 16.9721C23.6153 16.9763 23.5653 16.9825 23.5589 17.0003C23.5097 17.1384 23.3595 17.1266 23.2674 17.2011C23.2038 17.2525 23.1039 17.2564 23.0309 17.2994C22.9171 17.3663 22.8159 17.454 22.7032 17.5227C22.5862 17.594 22.4604 17.6506 22.3412 17.7184C22.2496 17.7706 22.165 17.8351 22.0725 17.8852C21.9512 17.9511 21.8629 18.0529 21.7607 18.1397C21.684 18.2045 21.575 18.2302 21.4822 18.2771C21.4477 18.2979 21.4149 18.3216 21.3841 18.3478C21.1585 18.5137 20.9305 18.6765 20.7081 18.8466C20.5483 18.9688 20.397 19.1021 20.2397 19.2276C20.1782 19.2766 20.0686 19.307 20.054 19.3646C20.0137 19.5219 19.8405 19.5514 19.7845 19.6932C19.7496 19.7813 19.6549 19.8459 19.5868 19.9207C19.5148 19.9879 19.4494 20.0618 19.3915 20.1415C19.3385 20.2403 19.3006 20.3464 19.2791 20.4564C19.3455 20.389 19.4957 20.477 19.5061 20.3246C19.5068 20.3148 19.5384 20.3042 19.557 20.2994C19.5766 20.2964 19.5965 20.2951 19.6164 20.2954C19.9309 20.2693 20.2458 20.3029 20.5604 20.2894C20.6771 20.2835 20.7909 20.2515 20.8936 20.1956C21.0145 20.1419 21.1432 20.1077 21.2748 20.0945C21.444 20.0687 21.6159 20.0612 21.7866 20.0455C21.8019 20.0418 21.8176 20.0394 21.8333 20.0382C22.0082 20.0605 22.1841 20.0727 22.3604 20.0747C22.4648 20.0705 22.5617 20.0517 22.6673 20.0866C22.7729 20.1216 22.8889 20.1178 22.9957 20.1485C23.1257 20.1861 23.2575 20.2114 23.3891 20.2402C23.535 20.2722 23.6766 20.3226 23.8217 20.3595C23.8753 20.3679 23.9295 20.3717 23.9838 20.3707C23.9757 20.3987 23.969 20.4221 23.9647 20.4371C23.9976 20.4508 24.0439 20.4551 24.0586 20.4791C24.1118 20.5649 24.1895 20.6556 24.1941 20.7476C24.2051 20.9709 24.2953 21.1711 24.3374 21.3838C24.3651 21.5452 24.3842 21.7079 24.3947 21.8713C24.4052 21.9875 24.4095 22.1045 24.4112 22.2213C24.4135 22.3812 24.4331 22.5453 24.4047 22.7004C24.3648 22.9173 24.2678 23.1029 24.0477 23.2155C23.8702 23.3063 23.702 23.4109 23.4982 23.4167C23.1891 23.4256 22.8997 23.5439 22.595 23.5709C22.3999 23.5883 22.203 23.586 22.007 23.5949C21.867 23.6009 21.7235 23.6348 21.5878 23.6141C21.375 23.5816 21.1661 23.6659 20.964 23.6276C20.7869 23.5942 20.6221 23.6549 20.4478 23.6336C20.2748 23.6128 20.0948 23.646 19.9183 23.661C19.8317 23.6684 19.7811 23.6381 19.761 23.5277L19.7102 23.6442C19.6339 23.6382 19.5524 23.6323 19.4712 23.6242C19.4487 23.6219 19.423 23.6002 19.4057 23.6066C19.2057 23.6797 19.0026 23.6314 18.8008 23.627C18.5769 23.6222 18.3531 23.62 18.1292 23.6167C17.9536 23.6142 17.7779 23.6119 17.6022 23.6096C17.5914 23.6075 17.5803 23.6074 17.5695 23.6092C17.2713 23.7259 16.9443 23.6681 16.6426 23.7629C16.4968 23.8087 16.3516 23.8567 16.2054 23.9006C16.1586 23.9146 16.1104 23.9231 16.0616 23.9257C15.8962 23.9345 15.7224 23.9743 15.5665 23.9383C15.2714 23.8703 15.008 23.7322 14.8786 23.4249C14.8345 23.3202 14.7717 23.2234 14.7203 23.1216C14.6636 23.0094 14.6886 22.894 14.698 22.7748C14.7147 22.563 14.7062 22.3492 14.7088 22.1363C14.7106 21.9947 14.6804 21.8523 14.747 21.7133C14.7662 21.6731 14.7314 21.6098 14.7317 21.5571C14.7321 21.4715 14.7374 21.3861 14.7475 21.3011C14.7688 21.124 14.7946 20.9477 14.8222 20.7441C14.751 20.6438 14.7947 20.4964 14.8105 20.3608C14.839 20.1152 14.8953 19.8729 14.9355 19.6286C14.9639 19.4562 14.9901 19.283 15.0074 19.1092C15.0193 18.9877 15.0093 18.8643 15.018 18.7424C15.0273 18.6119 15.0471 18.4822 15.0629 18.3471L15.1358 18.3836C15.1428 18.3762 15.1498 18.3689 15.1569 18.3615C15.1297 18.3313 15.1025 18.3011 15.0753 18.2709L15.0941 18.2662C15.0821 18.2359 15.0741 18.2042 15.0701 18.1718C15.0701 18.1507 15.0907 18.1293 15.1024 18.1083C15.1165 18.083 15.1492 18.0429 15.1427 18.035C15.0225 17.8902 15.0513 17.7378 15.1036 17.5779C15.1121 17.524 15.1116 17.4691 15.1021 17.4155C15.0961 17.28 15.0841 17.1445 15.0871 17.0093C15.0882 16.964 15.1275 16.9194 15.1221 16.8796C15.1182 16.8009 15.0898 16.7131 15.1153 16.6454C15.1752 16.4859 15.1499 16.3226 15.1696 16.1621C15.1815 16.0644 15.203 15.9678 15.2157 15.8702C15.2185 15.8489 15.2022 15.8251 15.1922 15.795H15.2355C15.2397 15.7089 15.243 15.6305 15.2475 15.5522C15.2577 15.3762 15.2682 15.2002 15.2792 15.0243C15.2771 14.9247 15.2857 14.8252 15.3047 14.7274C15.3319 14.6543 15.3486 14.5777 15.3543 14.4998C15.3548 14.4545 15.4373 14.3704 15.4792 14.3726C15.612 14.3795 15.6708 14.2697 15.721 14.2045C15.8387 14.0516 15.9882 14.0052 16.1597 13.9905C16.3155 13.9771 16.4866 14.0119 16.6246 13.9581C16.8047 13.8879 16.9712 13.9294 17.1442 13.931C17.2423 13.9264 17.3394 13.9101 17.4337 13.8827C17.5588 13.8542 17.7192 13.7993 17.847 13.9204C17.8525 13.8991 17.8572 13.881 17.8606 13.868C17.9809 13.879 18.0747 13.9267 18.1159 14.0487C18.1506 14.1512 18.2653 14.2367 18.1735 14.3701C18.3496 14.4293 18.2851 14.5784 18.2977 14.6982C18.3097 14.8124 18.2609 14.936 18.3576 15.0367C18.3709 15.0506 18.369 15.0818 18.3692 15.1049C18.3701 15.2247 18.3689 15.345 18.3695 15.465C18.3663 15.5313 18.3683 15.5977 18.3755 15.6637C18.3944 15.7782 18.444 15.891 18.4436 16.0043C18.443 16.1705 18.4049 16.3362 18.3931 16.5029C18.3963 16.5538 18.4124 16.603 18.4398 16.646C18.5132 16.7898 18.461 16.9346 18.45 17.0787C18.4433 17.167 18.4074 17.2584 18.5245 17.3456C18.5694 17.301 18.6246 17.2534 18.6714 17.1986C18.8008 17.0479 18.9274 16.8949 19.0534 16.7414C19.1488 16.6252 19.2387 16.5044 19.3362 16.3901C19.447 16.26 19.5601 16.1313 19.6787 16.0083C19.8006 15.882 19.9269 15.7594 20.0574 15.642C20.2177 15.4978 20.4145 15.3831 20.5403 15.2145C20.6731 15.0362 20.8936 14.9989 21.0284 14.8355C21.0681 14.7876 21.1439 14.7202 21.2364 14.757C21.2424 14.6265 21.372 14.6414 21.4423 14.5959C21.6914 14.4341 21.934 14.2588 22.2257 14.1712C22.3439 14.1356 22.4572 14.0959 22.5806 14.0717C22.7139 14.0455 22.8285 13.9279 22.9531 13.8531C23.1568 13.7309 23.3643 13.6142 23.5666 13.4892C23.6889 13.4137 23.8405 13.3985 23.9482 13.2901C23.9818 13.2563 24.0529 13.2634 24.0989 13.2377C24.1984 13.182 24.2915 13.115 24.3895 13.0565C24.5257 12.9751 24.6643 12.8976 24.8015 12.8179C24.9303 12.7431 25.055 12.6599 25.1884 12.5944C25.3316 12.524 25.4826 12.4694 25.6305 12.4087C25.766 12.3531 25.9048 12.3048 26.0366 12.2416C26.1534 12.1856 26.2517 12.1145 26.4026 12.1564C26.4815 12.1782 26.5883 12.1098 26.6795 12.0745C26.7736 12.038 26.8527 11.9684 26.9639 11.9685C27.0255 11.9654 27.0856 11.9481 27.1394 11.918C27.3352 11.8212 27.5489 11.766 27.767 11.7558C27.8726 11.748 27.9722 11.6767 28.0773 11.6424C28.2225 11.5951 28.37 11.5543 28.5171 11.513C28.6271 11.482 28.737 11.4491 28.849 11.4276C28.9164 11.4147 28.9888 11.4292 29.0567 11.418C29.1337 11.4015 29.2098 11.3811 29.2847 11.3568C29.3914 11.3277 29.5082 11.2435 29.5918 11.408C29.5876 11.3823 29.5833 11.3565 29.575 11.3053L30.9566 11.0808V11.1916C31.0619 11.1089 31.1559 11.0437 31.292 11.1031C31.3327 11.121 31.4045 11.0538 31.4566 11.0617C31.6886 11.097 31.9087 10.9939 32.1384 11.0138C32.3181 11.0292 32.4987 11.0417 32.6792 11.0466C32.7447 11.0484 32.8105 11.0166 32.8768 11.0132C33.0171 11.0053 33.1749 10.9482 33.2602 11.1537L33.3182 11.0236C33.6094 11.0487 33.8975 11.0789 34.1863 11.0968C34.3998 11.1101 34.6148 11.0998 34.828 11.1147C34.9471 11.1232 35.0633 11.167 35.1822 11.1861C35.3963 11.2205 35.6119 11.246 35.8262 11.2793C36.0874 11.3196 36.3466 11.3568 36.5882 11.4857C36.6848 11.5373 36.8213 11.5113 36.9386 11.5276C37.1842 11.5614 37.4289 11.5975 37.6729 11.6389C37.7025 11.6439 37.7255 11.6874 37.7533 11.6921C37.8375 11.7185 37.9214 11.746 38.0059 11.7712C38.1345 11.8097 38.2635 11.8463 38.3923 11.8847C38.5184 11.9223 38.6438 11.9641 38.7705 11.9989C38.9598 12.0508 39.1538 12.0888 39.3391 12.1508C39.4628 12.2009 39.5829 12.2595 39.6985 12.3261C39.7082 12.3326 39.7185 12.338 39.7293 12.3422C39.8523 12.3712 39.9886 12.3756 40.0947 12.4346C40.19 12.4866 40.2909 12.528 40.3953 12.5578C40.552 12.6048 40.7075 12.6556 40.8619 12.7102C40.9937 12.7568 41.123 12.8094 41.2515 12.8641C41.2668 12.8705 41.2695 12.9066 41.2765 12.9248C41.3101 12.9186 41.3447 12.9192 41.378 12.9267C41.5777 13.0203 41.7733 13.1232 41.9738 13.2147C42.0768 13.2618 42.1421 13.3242 42.1232 13.4657C42.1434 13.4491 42.1623 13.4311 42.18 13.4118C42.2259 13.348 42.2572 13.2987 42.3353 13.3958C42.3792 13.4503 42.48 13.4557 42.5496 13.4934C42.701 13.5754 42.8486 13.6643 42.9981 13.75C43.0511 13.7805 43.1066 13.8071 43.1581 13.8398C43.3969 13.9921 43.6343 14.1467 43.873 14.2991C43.9501 14.3483 44.0297 14.3938 44.1084 14.4407C44.1187 14.4467 44.139 14.45 44.1396 14.456C44.1565 14.6213 44.3228 14.6005 44.4121 14.6748C44.5448 14.785 44.6816 14.8904 44.8183 14.9958C44.9192 15.0737 45.0224 15.1492 45.1344 15.233L45.0685 15.2574C45.267 15.2569 45.3854 15.394 45.513 15.5187C45.5541 15.5495 45.5975 15.5769 45.6429 15.6007C45.7258 15.6584 45.8453 15.7014 45.8812 15.7813C45.9679 15.9737 46.1769 16.0016 46.3035 16.1432C46.4346 16.2901 46.6392 16.3693 46.803 16.4898C46.9504 16.5982 47.0858 16.7227 47.2268 16.8398C47.3621 16.9522 47.5064 17.0554 47.6307 17.1788C47.7605 17.3076 47.8717 17.4553 47.99 17.5956C48.1208 17.7507 48.2495 17.9075 48.3807 18.0623C48.4931 18.1949 48.6093 18.3241 48.7206 18.4576C48.8277 18.5861 48.9353 18.7151 49.0338 18.8499C49.0877 18.9236 49.1057 19.0292 49.17 19.088C49.3105 19.2169 49.342 19.4162 49.4841 19.5413C49.4992 19.5546 49.4857 19.6046 49.4795 19.6364C49.4742 19.661 49.4671 19.6852 49.4582 19.7088C49.5077 19.7373 49.5546 19.7703 49.5983 19.8072C49.6502 19.8613 49.6963 19.9205 49.736 19.9841C49.7632 20.0393 49.7872 20.0961 49.8079 20.1541C49.8364 20.2196 49.8688 20.2834 49.905 20.3451C49.964 20.4409 50.0466 20.5259 50.0857 20.6283C50.111 20.6945 50.1041 20.7688 50.1502 20.8397C50.2103 20.9441 50.2586 21.0549 50.2939 21.17C50.3246 21.2548 50.3353 21.3468 50.3671 21.431C50.3936 21.5013 50.4403 21.5636 50.4732 21.6318C50.5014 21.69 50.5187 21.7534 50.5479 21.8109C50.6093 21.9316 50.7174 22.046 50.7293 22.1703C50.7458 22.3419 50.8636 22.4491 50.9171 22.5929C50.9432 22.663 51.0152 22.7165 51.0383 22.7868C51.06 22.8526 51.1506 22.9108 51.0832 22.9976C51.0797 23.002 51.0907 23.0184 51.096 23.0287C51.1656 23.1637 51.2408 23.2961 51.303 23.4345C51.3314 23.5122 51.3535 23.5921 51.3693 23.6734C51.4063 23.8121 51.4351 23.9538 51.4831 24.0886C51.5217 24.1972 51.5854 24.2969 51.6346 24.4021C51.6468 24.4363 51.6563 24.4715 51.6631 24.5072C51.6842 24.5811 51.7029 24.6559 51.7284 24.7283C51.8166 24.9788 51.9347 25.2226 51.9884 25.4801C52.0324 25.6911 52.1162 25.8868 52.1625 26.094C52.1968 26.2476 52.207 26.4063 52.2337 26.5618C52.2548 26.6845 52.2824 26.8062 52.3115 26.9271C52.3438 27.0617 52.4278 27.1879 52.3701 27.3363C52.3646 27.3505 52.3873 27.3736 52.3911 27.3937C52.3989 27.434 52.4017 27.4754 52.4086 27.5159C52.4132 27.5418 52.4198 27.5673 52.4282 27.5922C52.4356 27.6144 52.4586 27.6381 52.4542 27.6563C52.415 27.8207 52.4743 27.9657 52.5298 28.1147C52.5645 28.1887 52.5782 28.2708 52.5694 28.3521C52.5335 28.5035 52.6226 28.6207 52.6455 28.7546C52.6607 28.8438 52.6934 28.9298 52.7138 29.0181C52.7406 29.1333 52.7633 29.2494 52.7877 29.3651C52.842 29.6227 52.9056 29.8792 52.9478 30.139C52.9934 30.4188 53.0206 30.7016 53.0512 30.9835C53.048 31.0292 53.0399 31.0744 53.0272 31.1184C53.0213 31.2415 53.0238 31.3648 53.0346 31.4875C53.0371 31.701 53.018 31.9142 52.9776 32.1238C52.9688 32.2183 52.9661 32.3132 52.9695 32.408C52.96 32.4922 52.9412 32.5751 52.9133 32.6552C52.8857 32.746 52.8433 32.8326 52.8187 32.9241C52.8023 33.0013 52.7906 33.0795 52.7837 33.1581C52.7663 33.2833 52.777 33.4149 52.6871 33.5228C52.6747 33.5376 52.6939 33.5798 52.7005 33.6089C52.7029 33.6195 52.7178 33.6299 52.7161 33.6383C52.6958 33.7407 52.6734 33.8427 52.6502 33.9509C52.436 33.9689 52.2087 34.0573 52.0135 33.8354L51.9252 33.9077C51.8508 33.8623 51.778 33.7929 51.6747 33.8603C51.6548 33.8732 51.5922 33.8483 51.5686 33.8227C51.4944 33.7426 51.4462 33.7776 51.4059 33.839C51.2528 33.7648 51.1211 33.6702 50.9262 33.7293C50.7888 33.7712 50.6306 33.7494 50.482 33.7449C50.4567 33.7441 50.4113 33.6861 50.4127 33.6562C50.4199 33.4976 50.4345 33.3388 50.4561 33.1817C50.4674 33.0993 50.498 33.02 50.5063 32.9346C50.6533 32.8025 50.7073 32.5083 50.6261 32.3117C50.561 32.1547 50.6713 32.0148 50.6929 31.8656C50.6989 31.8249 50.7079 31.7845 50.7122 31.7436C50.7234 31.6398 50.7348 31.5359 50.7422 31.4317C50.7492 31.3312 50.7542 31.2305 50.7545 31.1298C50.7548 31.0584 50.7425 30.9959 50.8097 30.9335C50.8808 30.8676 50.8385 30.639 50.7732 30.5546C50.7489 30.5231 50.7567 30.4667 50.7488 30.4155L50.8296 30.4222C50.832 30.4138 50.8345 30.4055 50.8369 30.3972L50.6919 30.3383C50.7083 30.2998 50.7204 30.2596 50.7279 30.2185C50.7276 30.1736 50.7227 30.129 50.7132 30.0852C50.7066 30.0598 50.7027 30.0338 50.7016 30.0077C50.7146 29.8634 50.7412 29.7193 50.7412 29.5752C50.7412 29.4996 50.6913 29.4252 50.6731 29.3481C50.6589 29.2878 50.7255 29.2062 50.6234 29.1696C50.622 29.1683 50.6208 29.1666 50.6202 29.1647C50.6195 29.1629 50.6193 29.1609 50.6196 29.1589C50.6907 29.0484 50.5678 28.9534 50.5964 28.8387C50.6152 28.7636 50.5828 28.6737 50.566 28.592C50.5435 28.4817 50.4731 28.3619 50.4988 28.2665C50.5245 28.1712 50.4769 28.0988 50.4886 28.0163C50.4907 28.0016 50.4905 27.9773 50.4819 27.9717C50.37 27.8986 50.4112 27.7615 50.4288 27.695C50.4563 27.5914 50.3801 27.5413 50.3713 27.4619C50.3563 27.3089 50.3052 27.1618 50.2222 27.0325C50.1493 26.9259 50.179 26.7944 50.0771 26.692C49.9967 26.6112 49.9913 26.4565 49.95 26.3355C49.8901 26.1604 49.8264 25.9864 49.7678 25.8108C49.7562 25.7614 49.7485 25.7112 49.7448 25.6606C49.633 25.6211 49.603 25.4962 49.5658 25.3699C49.5352 25.2662 49.476 25.171 49.4453 25.0674C49.4161 24.969 49.4128 24.8631 49.3871 24.7633C49.3671 24.7154 49.3413 24.6701 49.3103 24.6285C49.1785 24.4099 49.0611 24.183 48.9589 23.9492C48.8992 23.7917 48.8235 23.6407 48.7331 23.4986C48.6816 23.4174 48.6491 23.3256 48.6379 23.2301C48.623 23.1075 48.5438 23.0397 48.4721 22.9569C48.4332 22.8971 48.4009 22.8333 48.3756 22.7666C48.3599 22.7405 48.3409 22.7165 48.319 22.6953C48.2623 22.6354 48.2453 22.5748 48.3 22.5221C48.2422 22.459 48.188 22.3926 48.1377 22.3233C48.0285 22.1556 47.9256 21.9831 47.8215 21.8118C47.7009 21.6135 47.5852 21.4122 47.4608 21.2164C47.372 21.0769 47.2671 20.9477 47.1793 20.8077C47.1074 20.6935 47.0587 20.5642 46.984 20.4522C46.8528 20.2446 46.7074 20.0464 46.549 19.8589C46.4915 19.8007 46.4245 19.7526 46.3509 19.7168C46.3019 19.6923 46.2923 19.5991 46.2497 19.5502C46.1697 19.4482 46.0775 19.3565 45.975 19.2772C45.8747 19.2083 45.8132 19.1071 45.7311 19.0358C45.5836 18.9077 45.5134 18.7296 45.3724 18.595C45.1601 18.392 44.9501 18.186 44.7287 17.9919C44.6973 17.9644 44.6908 17.9103 44.6628 17.8772C44.6224 17.8294 44.5767 17.7864 44.5266 17.7489C44.4509 17.6929 44.367 17.6481 44.2919 17.5913C44.2159 17.5337 44.1246 17.48 44.0795 17.4019C44.0235 17.3047 43.9361 17.2761 43.8531 17.226C43.7362 17.1557 43.6255 17.0753 43.5139 16.9963C43.4361 16.9411 43.3642 16.8777 43.2855 16.8241C43.2338 16.7924 43.1799 16.7644 43.1243 16.7403C42.9181 16.639 42.7095 16.5423 42.5058 16.4362C42.3082 16.3331 42.1175 16.2158 41.9192 16.1137C41.7164 16.0093 41.5111 15.9084 41.3011 15.8202C41.1231 15.7454 40.9417 15.6861 40.7784 15.5736C40.689 15.512 40.5609 15.5088 40.4539 15.4697C40.397 15.4411 40.3432 15.4067 40.2932 15.3672C40.2167 15.3989 40.1482 15.3547 40.0673 15.2682C40.0097 15.2066 39.907 15.1816 39.8201 15.1544C39.6977 15.1158 39.5708 15.092 39.4469 15.058C39.3788 15.0403 39.3124 15.0171 39.2481 14.9886C39.2034 14.962 39.1613 14.9313 39.1223 14.8969C39.0929 14.9098 39.0606 14.915 39.0286 14.9118C38.9966 14.9087 38.966 14.8973 38.9397 14.8789C38.816 14.8076 38.6582 14.7951 38.5152 14.758C38.4508 14.7489 38.3878 14.7317 38.3277 14.7068C38.1836 14.6248 38.0226 14.6251 37.8679 14.594C37.7122 14.5627 37.5572 14.5285 37.4013 14.4982C37.3772 14.4961 37.3529 14.4979 37.3294 14.5036C37.3362 14.4625 37.3433 14.4201 37.3504 14.3778L37.2217 14.4582C37.0296 14.4288 36.8085 14.391 36.5869 14.3624C36.4572 14.3476 36.3301 14.316 36.2086 14.2685C36.0702 14.213 35.9046 14.2157 35.7503 14.2112C35.5552 14.2052 35.3629 14.2364 35.1634 14.1969C34.9598 14.1564 34.7447 14.1765 34.5356 14.1589C34.3973 14.1473 34.2613 14.1071 34.123 14.0964C34.0155 14.0881 33.906 14.1112 33.7975 14.1103C33.6657 14.1092 33.534 14.0931 33.4022 14.0923C33.3093 14.0917 33.2162 14.1113 33.1232 14.1113C32.9784 14.1113 32.8335 14.0973 32.6888 14.0989C32.6 14.0998 32.5116 14.1274 32.4229 14.128C32.2301 14.1293 32.0373 14.1169 31.8446 14.1182C31.7498 14.1189 31.6553 14.1385 31.5604 14.1478C31.4986 14.16 31.4354 14.1637 31.3727 14.1588C31.2597 14.1334 31.142 14.1394 31.0322 14.1759C30.8367 14.2437 30.6249 14.2173 30.4235 14.2542C30.1606 14.3025 29.8964 14.3381 29.6395 14.4244C29.4608 14.4843 29.2645 14.4903 29.0781 14.5293C28.9898 14.5478 28.9077 14.5942 28.8199 14.6166C28.6412 14.6622 28.4573 14.6897 28.2814 14.7438C28.0349 14.8196 27.7937 14.9126 27.5507 14.9988C27.4166 15.0464 27.2793 15.0875 27.1502 15.1462C27.0559 15.189 26.9775 15.2663 26.8834 15.3095C26.712 15.3879 26.5304 15.4445 26.3599 15.5245C26.1368 15.6292 25.9201 15.7475 25.701 15.8604C25.5258 15.9507 25.3508 16.0414 25.176 16.1325C25.1341 16.1543 25.0912 16.175 25.0503 16.1987C24.9044 16.2835 24.761 16.3724 24.613 16.4538C24.434 16.5519 24.252 16.6446 24.07 16.7371C24.015 16.7606 23.9587 16.7812 23.9015 16.7989ZM23.0533 21.8552C22.991 21.9054 22.9324 21.9484 22.8796 21.9976C22.8657 22.0168 22.8593 22.0405 22.8617 22.0641C22.9395 22.1049 23.0199 22.1408 23.099 22.1774C23.1695 22.0416 23.1395 21.8999 23.0533 21.8552Z" fill="#FF0D0D"/>
<path d="M41.8215 45.9355C41.8323 45.8696 41.9034 45.8069 41.9877 45.7618C42.0662 45.7198 42.1578 45.7001 42.2322 45.6526C42.3188 45.5911 42.4014 45.5242 42.4796 45.4522C42.5448 45.4022 42.6069 45.3483 42.6657 45.2909C42.7369 45.2153 42.7975 45.1295 42.8647 45.0501C42.9581 44.9402 43.0493 44.8278 43.1497 44.7244C43.2358 44.6345 43.3295 44.5522 43.4298 44.4785C43.4652 44.4529 43.5305 44.4688 43.6042 44.4643L43.6681 44.3539C43.8158 44.4178 43.9216 44.3644 44.0025 44.2192C44.0796 44.0963 44.1633 43.9775 44.2532 43.8635C44.304 43.7917 44.352 43.7177 44.4023 43.6454C44.4158 43.6261 44.4297 43.6001 44.4492 43.5931C44.5929 43.5412 44.7151 43.4503 44.866 43.4C45.1034 43.321 45.3203 43.3712 45.5156 43.4424C45.8276 43.5562 46.1528 43.6772 46.3875 43.9327C46.522 44.079 46.7033 44.1821 46.7855 44.3789C46.8778 44.6001 46.853 44.8161 46.7898 45.0356C46.7833 45.0854 46.7717 45.1343 46.7554 45.1818C46.6785 45.3252 46.626 45.482 46.4746 45.5803C46.3947 45.6322 46.3454 45.7306 46.281 45.8069C46.199 45.9041 46.1185 46.0028 46.0323 46.0962C45.8564 46.2871 45.6785 46.4762 45.4986 46.6633C45.4198 46.7452 45.3331 46.8196 45.2471 46.9L45.1955 46.8589C45.1614 47.0304 45.0345 47.1151 44.908 47.2048C44.7983 47.2827 44.6979 47.3736 44.5824 47.4432C44.5395 47.4884 44.5165 47.553 44.4228 47.5314C44.3976 47.5254 44.3624 47.5874 44.3253 47.6038C44.1598 47.6855 44.0083 47.793 43.8764 47.9223C43.7451 48.0502 43.5945 48.1569 43.4302 48.2383C43.2924 48.3002 43.1798 48.4151 43.0499 48.4964C42.9539 48.5545 42.8536 48.6051 42.7499 48.6478C42.5809 48.7204 42.4108 48.7915 42.2373 48.8522C42.1295 48.8898 42.011 48.897 41.9042 48.9365C41.8466 48.9578 41.8074 49.0242 41.7531 49.0598C41.6876 49.0997 41.6198 49.1357 41.5501 49.1677C41.5012 49.1922 41.4518 49.2156 41.401 49.236C41.3609 49.2519 41.3088 49.2513 41.2795 49.2779C41.2603 49.2933 41.2443 49.3123 41.2325 49.3339C41.2206 49.3555 41.2132 49.3792 41.2106 49.4037C41.2172 49.4756 41.1885 49.5015 41.133 49.5311C41.0168 49.5931 40.9121 49.6856 40.7645 49.6483C40.7533 49.6451 40.7413 49.6459 40.7306 49.6506C40.5912 49.729 40.4522 49.808 40.3135 49.8878C40.2491 49.9249 40.1858 49.964 40.1095 50.0098C40.1055 49.979 40.1035 49.9622 40.0997 49.9337C39.8427 50.0387 39.5685 50.079 39.3165 50.1997C39.1938 50.2584 39.0426 50.255 38.9066 50.289C38.8043 50.3067 38.7056 50.3415 38.6148 50.3918C38.4984 50.4631 38.3636 50.4984 38.2272 50.4931C38.1558 50.4955 38.087 50.5423 38.0149 50.5606C37.9024 50.589 37.7882 50.6109 37.6746 50.6344C37.5987 50.65 37.5225 50.6646 37.4459 50.6781C37.394 50.6872 37.341 50.6905 37.2896 50.702C37.1913 50.724 37.094 50.7499 36.9962 50.7742C36.9849 50.777 36.9709 50.7834 36.9621 50.7794C36.7704 50.6933 36.5987 50.7826 36.4208 50.8337C36.3256 50.8561 36.2293 50.8733 36.1322 50.8852C35.9692 50.9132 35.8071 50.9518 35.6428 50.966C35.4676 50.9813 35.29 50.9683 35.1142 50.9791C35.0614 50.9823 35.0131 51.0378 34.9592 51.0459C34.6907 51.0864 34.421 51.1188 34.1519 51.1551C34.129 51.1598 34.1067 51.1668 34.0852 51.1761C33.8327 51.2659 33.5748 51.2338 33.3169 51.2136C33.2837 51.211 33.2492 51.2435 33.2138 51.2484C33.1076 51.2702 32.9995 51.2813 32.8912 51.2814C32.8259 51.2776 32.7635 51.2244 32.6875 51.1873L32.6485 51.2379C32.5074 51.2379 32.3863 51.236 32.2652 51.2384C32.0855 51.2421 31.9054 51.2511 31.7256 51.2537C31.6383 51.255 31.5508 51.2432 31.4636 51.245C31.4211 51.2497 31.3794 51.2597 31.3394 51.2749C31.245 51.302 31.1576 51.3292 31.0527 51.2869C30.9693 51.2534 30.8675 51.2677 30.7746 51.2556C30.6765 51.2429 30.5792 51.2246 30.4817 51.2076C30.3978 51.1932 30.314 51.1793 30.2301 51.1619C30.1414 51.1433 30.0535 51.1208 29.9514 51.0968C29.8449 51.1806 29.4999 51.1419 29.4554 51.0501C29.3513 51.0262 29.2665 51.0059 29.1814 50.9865C28.9991 50.9451 28.8161 50.9047 28.6343 50.8622C28.5884 50.8515 28.5444 50.8328 28.4988 50.8203C28.3725 50.7863 28.2466 50.7501 28.1191 50.7216C27.9748 50.6893 27.8256 50.6758 27.6844 50.6338C27.4672 50.5689 27.2601 50.4613 27.0397 50.4193C26.8294 50.382 26.6219 50.3299 26.4188 50.2636C26.1835 50.1834 25.9517 50.0916 25.7144 50.0187C25.5553 49.9698 25.3844 49.9579 25.2269 49.9049C25.105 49.8644 24.9915 49.8019 24.8921 49.7205C24.798 49.6415 24.682 49.6152 24.5854 49.5478C24.4962 49.4868 24.4031 49.4317 24.3067 49.383C24.2496 49.3586 24.1907 49.3388 24.1305 49.3237C24.1188 49.3217 24.1074 49.318 24.0967 49.3128C24.0578 49.2858 24.0212 49.2345 23.982 49.2327C23.7887 49.224 23.6608 49.1048 23.5268 48.9895C23.486 48.9584 23.4412 48.933 23.3935 48.9143C23.2362 48.8507 23.0892 48.7641 22.9574 48.6573C22.7632 48.4883 22.5315 48.363 22.3201 48.213C22.1399 48.085 21.9672 47.9465 21.7885 47.8165C21.6047 47.6829 21.4138 47.559 21.2332 47.4213C21.1083 47.3261 20.9714 47.232 20.8843 47.1065C20.8004 46.9854 20.6617 46.9372 20.5845 46.8281C20.4951 46.7153 20.3818 46.6238 20.2526 46.5604C20.1592 46.5056 20.0722 46.4405 19.9935 46.3661C19.9527 46.3127 19.9199 46.2536 19.8961 46.1907C19.8051 46.2177 19.8263 46.1233 19.8122 46.0649C19.6961 46.0388 19.6026 46.0155 19.5686 45.8687C19.5512 45.7927 19.4258 45.7442 19.3551 45.677C19.3042 45.6233 19.2562 45.5669 19.2114 45.508L18.9877 45.3233C19.0434 45.2555 18.9392 45.2634 18.9099 45.226C18.8495 45.1523 18.7933 45.0752 18.7415 44.9951C18.6712 44.8809 18.6098 44.7615 18.5439 44.6441C18.5408 44.6373 18.5364 44.6312 18.531 44.6261C18.415 44.5467 18.3035 44.4608 18.1972 44.3689C18.0959 44.2662 18.0027 44.156 17.9182 44.0392C17.7466 43.8151 17.5818 43.5858 17.4097 43.3624C17.3685 43.3109 17.3188 43.2669 17.2627 43.2322C17.0875 43.1214 17.0701 42.8962 16.9207 42.7693C16.7306 42.6075 16.662 42.3645 16.5139 42.1739C16.3721 41.9913 16.2457 41.796 16.1217 41.6005C16.0158 41.4332 15.9253 41.2564 15.8233 41.0866C15.7798 41.0142 15.7167 40.9531 15.6763 40.8794C15.6119 40.7619 15.5579 40.6385 15.5015 40.5168C15.4255 40.3531 15.3563 40.1859 15.2748 40.025C15.1993 39.8759 15.1077 39.735 15.0311 39.5864C15.0108 39.5293 14.9955 39.4706 14.9853 39.4108C14.9686 39.3582 14.9492 39.3064 14.9271 39.2558C14.8776 39.1602 14.8356 39.061 14.8013 38.959C14.7501 38.7233 14.6683 38.4953 14.5579 38.2808C14.5256 38.2324 14.5064 38.1765 14.5021 38.1186C14.5156 37.8664 14.3613 37.6829 14.2556 37.4792C14.2466 37.4619 14.2253 37.4462 14.2253 37.4298C14.2253 37.27 14.124 37.1446 14.0796 36.9997C13.9991 36.7361 13.885 36.4833 13.8041 36.2202C13.7478 36.0377 13.7239 35.8454 13.6843 35.6577C13.6657 35.5691 13.6371 35.4819 13.6273 35.3925C13.6311 35.34 13.6432 35.2885 13.6632 35.2399C13.6572 35.2373 13.6289 35.2156 13.6189 35.2219C13.5014 35.2985 13.4991 35.2192 13.5171 35.1418C13.565 34.9354 13.4464 34.7525 13.443 34.5539C13.2634 34.4771 13.4947 34.3001 13.3598 34.2125L13.4013 34.1574C13.3798 34.1347 13.3392 34.1049 13.3436 34.0945C13.4025 33.9577 13.2964 33.8766 13.2376 33.7775C13.2652 33.7516 13.2902 33.7281 13.319 33.7011C13.2699 33.585 13.2282 33.4659 13.1941 33.3445C13.1796 33.2802 13.2251 33.2044 13.2194 33.1357C13.2038 33.0522 13.1838 32.9695 13.1595 32.8881C13.141 32.7922 13.1835 32.6904 13.1305 32.5949C13.1211 32.5779 13.147 32.5379 13.1618 32.5115C13.1925 32.4561 13.2139 32.4091 13.1397 32.3652C13.1125 32.3409 13.0952 32.3074 13.0912 32.2711C13.0624 32.1154 13.0368 31.9591 13.0143 31.8023C12.9988 31.7368 12.9961 31.669 13.0063 31.6025C13.0344 31.497 13.0647 31.3972 13.0094 31.2928C13.0051 31.2817 13.0045 31.2695 13.0076 31.258C13.0226 31.1839 13.0388 31.1101 13.0545 31.0361L13.0194 31.0284C13.0416 31.0039 13.0637 30.9794 13.0972 30.9424C12.9967 30.9441 12.9954 30.9229 13.0162 30.8358C13.0461 30.7105 13.0174 30.5719 13.0228 30.4393C13.0264 30.3512 13.0458 30.2637 13.0616 30.1523C13.0414 30.125 13.0272 30.0938 13.0199 30.0607C13.0127 30.0275 13.0125 29.9932 13.0193 29.96C13.0262 29.9267 13.04 29.8953 13.0599 29.8678C13.0797 29.8403 13.1051 29.8173 13.1345 29.8002C13.1214 29.7736 13.0949 29.7458 13.0982 29.7224C13.1142 29.5696 13.1398 29.418 13.1747 29.2684C13.211 29.1423 13.2282 29.0115 13.2258 28.8803C13.2217 28.7413 13.2677 28.6015 13.2804 28.4611C13.3001 28.2382 13.3195 28.0145 13.3219 27.7909C13.3255 27.4382 13.4061 27.0997 13.4756 26.7573C13.5076 26.6177 13.557 26.4827 13.6225 26.3553C13.6292 26.3414 13.6156 26.3194 13.6165 26.301C13.6177 26.2697 13.6106 26.2248 13.628 26.2097C13.75 26.1038 13.8408 25.9433 14.033 25.9522C14.0672 25.9537 14.0999 25.9875 14.1465 26.0139C14.1393 25.986 14.1345 25.9671 14.1289 25.9454L14.2352 25.9048C14.2455 25.9267 14.2564 25.9502 14.2699 25.979C14.2779 25.9695 14.2871 25.9629 14.29 25.9542C14.329 25.8395 14.4321 25.9102 14.4933 25.9023C14.6201 25.886 14.7547 25.9192 14.8847 25.9406C15.098 25.9759 15.3038 26.0471 15.4934 26.1509C15.6263 26.2228 15.7718 26.2719 15.9029 26.3465C15.9587 26.3783 15.9931 26.4486 16.0355 26.5028C16.0443 26.514 16.0463 26.5438 16.0503 26.5436C16.1652 26.537 16.151 26.6383 16.1757 26.6993C16.2345 26.8454 16.1626 27.1006 16.0727 27.1578C16.0727 27.2209 16.0664 27.2837 16.0538 27.3455C15.9831 27.5624 15.9107 27.7792 15.8272 27.9913C15.8032 28.053 15.7395 28.0992 15.6932 28.1535H15.7428C15.6932 28.4609 15.6484 28.7671 15.5924 29.0713C15.5685 29.2024 15.509 29.3273 15.4879 29.4586C15.4658 29.5964 15.479 29.7401 15.4615 29.8791C15.4219 30.1699 15.4143 30.4641 15.4389 30.7565C15.4495 30.8707 15.4359 30.987 15.4389 31.1023C15.4431 31.2731 15.4555 31.4437 15.4569 31.6146C15.4576 31.6872 15.4288 31.7605 15.4326 31.8325C15.4379 31.9321 15.4625 32.0305 15.4766 32.1297C15.5006 32.2974 15.5179 32.4669 15.5479 32.6337C15.5692 32.7515 15.6098 32.8657 15.6362 32.9828C15.6524 33.0547 15.6557 33.1295 15.6689 33.2022C15.7076 33.4161 15.7492 33.6294 15.7881 33.843C15.8251 34.0475 15.8517 34.2543 15.8983 34.4565C15.951 34.6856 16.021 34.9107 16.0833 35.1376C16.1115 35.2401 16.1378 35.3432 16.1678 35.4451C16.1896 35.5193 16.2163 35.592 16.2405 35.6654C16.341 35.9701 16.4173 36.286 16.5503 36.5757C16.6409 36.7734 16.6599 36.989 16.7665 37.1819C16.8683 37.3663 16.9128 37.5819 16.9881 37.7816C17.0153 37.832 17.0456 37.8806 17.0788 37.9272C17.1245 38.0124 17.1671 38.0993 17.2079 38.1869C17.3798 38.5564 17.4628 38.9621 17.6669 39.3189C17.6826 39.3464 17.665 39.393 17.6626 39.435C17.7331 39.4176 17.738 39.4742 17.763 39.5378C17.8191 39.6705 17.8841 39.7993 17.9574 39.9233C18.0419 40.0751 18.1325 40.2234 18.2205 40.3731C18.2235 40.3805 18.2277 40.3874 18.233 40.3933C18.436 40.5534 18.5138 40.7925 18.6304 41.009C18.7721 41.2914 18.9562 41.5504 19.1762 41.777C19.2795 41.878 19.3361 42.0267 19.4134 42.1543C19.4234 42.1709 19.4254 42.1978 19.4395 42.2057C19.6353 42.3174 19.7013 42.5344 19.8388 42.6928C19.8906 42.7527 19.9518 42.8042 20.0089 42.8592C20.0542 42.9026 20.1035 42.9307 20.1081 43.0149C20.1117 43.0808 20.1847 43.1426 20.2279 43.2056C20.2931 43.3004 20.3611 43.3933 20.4243 43.4894C20.4695 43.558 20.5014 43.6363 20.5518 43.7004C20.6755 43.8578 20.8076 44.0085 20.9341 44.1637C21.019 44.2678 21.1003 44.3749 21.1828 44.4801L21.1278 44.5201C21.2696 44.4922 21.2971 44.6236 21.3679 44.6845C21.4599 44.7637 21.541 44.8555 21.6284 44.9402C21.7611 45.0689 21.9007 45.1909 22.0277 45.325C22.275 45.586 22.5537 45.8153 22.8574 46.0078C23.0378 46.1226 23.2227 46.2302 23.4084 46.3362C23.5061 46.3919 23.6116 46.4336 23.7102 46.4877C23.8338 46.5556 23.9468 46.6664 24.0774 46.6921C24.2584 46.7276 24.3795 46.8574 24.5413 46.9165C24.6337 46.9585 24.7235 47.0062 24.81 47.0593C24.8272 47.0681 24.8527 47.0593 24.8722 47.0653C24.9389 47.0862 25.0058 47.1072 25.0703 47.134C25.1101 47.1504 25.1436 47.1819 25.1833 47.1983C25.2619 47.2307 25.3444 47.2537 25.4224 47.2872C25.5302 47.3335 25.6308 47.4069 25.7427 47.4313C25.9723 47.4811 26.182 47.625 26.4315 47.5826C26.4393 47.5816 26.4472 47.5837 26.4535 47.5885C26.6272 47.7398 26.8672 47.699 27.0601 47.7982C27.2387 47.8897 27.4241 47.9677 27.6039 48.0569C27.6256 48.0677 27.6306 48.1118 27.6338 48.1185C27.7147 48.1309 27.7928 48.141 27.8702 48.1553C28.0586 48.1902 28.2468 48.2272 28.4372 48.2631C28.437 48.2845 28.4392 48.3059 28.444 48.3268C28.4627 48.33 28.482 48.3291 28.5004 48.3243C28.5872 48.3063 28.6778 48.271 28.7249 48.4022L28.7934 48.3243C28.9192 48.3456 29.0449 48.3701 29.1721 48.3873C29.2911 48.4035 29.4127 48.4042 29.5304 48.4263C29.6392 48.4466 29.7439 48.4883 29.8514 48.5167C29.9412 48.5407 30.0326 48.5587 30.1449 48.5845C30.1427 48.575 30.148 48.5981 30.1574 48.6384C30.2462 48.5194 30.3411 48.552 30.4265 48.6111C30.5188 48.675 30.5976 48.6557 30.6817 48.5871L30.7105 48.6332C30.8108 48.6472 30.8922 48.6518 30.9699 48.671C31.0653 48.6947 31.1556 48.7413 31.2514 48.7587C31.4081 48.7871 31.5819 48.767 31.7221 48.8279C31.8757 48.8947 32.0339 48.8874 32.1871 48.9238C32.3197 48.9551 32.4655 48.9303 32.6059 48.9303V48.9734C32.6655 48.9911 32.7105 49.0077 32.7569 49.017C32.7846 49.0225 32.836 49.0251 32.8403 49.0144C32.8847 48.9038 32.9601 48.9572 32.9978 48.9669C33.0468 48.942 33.0735 48.9166 33.0996 48.9171C33.2724 48.9205 33.4449 48.9339 33.6176 48.9355C33.7514 48.9368 33.8856 48.9295 34.0189 48.919C34.1506 48.9084 34.2819 48.8871 34.4137 48.8744C34.4535 48.8742 34.4932 48.8778 34.5323 48.885C34.5545 48.8199 34.5545 48.8199 34.6254 48.883C34.6721 48.8615 34.721 48.8451 34.7713 48.8344C34.9622 48.8155 35.1547 48.8102 35.3447 48.7869C35.5222 48.7653 35.6977 48.728 35.8738 48.6963C35.9317 48.6859 35.9883 48.6671 36.0464 48.6596C36.2093 48.647 36.369 48.6071 36.5188 48.5416C36.6063 48.4988 36.7276 48.5259 36.8337 48.5205C36.854 48.5215 36.8743 48.5176 36.8927 48.509C37.0293 48.4216 37.1578 48.3114 37.3401 48.3695C37.3474 48.3719 37.3586 48.3581 37.3689 48.3558C37.4478 48.3378 37.5266 48.3183 37.6063 48.3044C37.6444 48.2977 37.6898 48.3143 37.7227 48.2997C37.8509 48.2426 37.9742 48.1747 38.1024 48.1168C38.138 48.1041 38.1764 48.1016 38.2133 48.1098C38.3428 48.1328 38.429 48.042 38.5338 47.9981C38.6895 47.9329 38.8535 47.886 39.0102 47.8223C39.1526 47.7644 39.2911 47.6965 39.4297 47.6293C39.5351 47.5784 39.6404 47.5263 39.7411 47.4667C39.8107 47.4255 39.8702 47.3676 39.9378 47.3225C40.0875 47.2227 40.2392 47.1264 40.3898 47.028C40.4159 47.0109 40.4398 46.9905 40.4656 46.9726C40.5448 46.9176 40.6245 46.8634 40.7037 46.8084C40.7968 46.744 40.892 46.6822 40.9819 46.6136C41.1053 46.5193 41.228 46.4236 41.3449 46.3215C41.4497 46.2299 41.5439 46.126 41.6481 46.0336C41.7027 45.9956 41.7608 45.9627 41.8215 45.9355Z" fill="#FF0D0D"/>
<path d="M30.9579 35.6423C30.9479 35.6101 30.9432 35.5764 30.9441 35.5427C30.9616 35.3966 30.9898 35.2519 31.0068 35.1057C31.0176 35.0218 31.0196 34.9369 31.0128 34.8525C30.9986 34.7013 31.1106 34.5914 31.1326 34.4562C31.1451 34.3278 31.1498 34.1988 31.1465 34.0698C31.1535 33.8849 31.1561 33.6994 31.1735 33.5154C31.1819 33.4271 31.1866 33.3302 31.2754 33.266C31.2968 33.2505 31.2942 33.1955 31.2949 33.1582C31.298 32.997 31.2906 32.84 31.3835 32.689C31.439 32.5988 31.4307 32.4717 31.4731 32.3704C31.5086 32.2852 31.472 32.1518 31.613 32.1257C31.5967 32.0309 31.7271 32.0206 31.7232 31.9072C31.7201 31.8163 31.8228 31.7215 31.8789 31.6287C31.8905 31.6144 31.9003 31.5987 31.908 31.5819C31.9113 31.5603 31.919 31.5396 31.9307 31.5212C31.9424 31.5027 31.9578 31.4868 31.9759 31.4746C31.9941 31.4624 32.0145 31.4541 32.036 31.4502C32.0576 31.4463 32.0796 31.4469 32.1009 31.452V31.3599L31.9803 31.3816C32.0036 31.3258 32.0091 31.2657 32.0406 31.245C32.1854 31.1497 32.2083 30.994 32.2622 30.8505C32.2925 30.7918 32.3362 30.7411 32.3899 30.7026C32.4434 30.505 32.5319 30.3186 32.6512 30.1522C32.6636 30.1334 32.7047 30.1337 32.7084 30.1325L33.0019 29.7242L33.2108 29.7356C33.2182 29.7223 33.2256 29.709 33.233 29.6957L33.0897 29.5374C33.1031 29.5214 33.1328 29.4875 33.1607 29.4521C33.1765 29.4321 33.1879 29.4087 33.2036 29.3886C33.2475 29.325 33.2962 29.2648 33.3492 29.2085C33.3958 29.1643 33.4132 29.1395 33.3606 29.0845C33.3088 29.0358 33.2713 28.974 33.252 28.9055C33.2327 28.8371 33.2324 28.7648 33.2512 28.6962C33.2652 28.6383 33.2139 28.5623 33.1857 28.4975C33.1651 28.46 33.1409 28.4245 33.1136 28.3915C33.1116 28.3915 33.0943 28.3887 33.0896 28.3951C32.9818 28.5388 32.8809 28.6891 32.7651 28.8263C32.7153 28.8853 32.6333 28.9161 32.5687 28.964C32.5298 28.9926 32.4968 29.029 32.4604 29.0611C32.3956 29.1131 32.3336 29.1686 32.2747 29.2272C32.244 29.2609 32.2333 29.3127 32.2018 29.335C32.1291 29.374 32.0614 29.4217 32.0003 29.4772C31.8454 29.6564 31.6274 29.7516 31.4528 29.9042C31.4073 29.9439 31.3251 29.9408 31.2604 29.9594C31.1319 29.9963 31.0037 30.0345 30.882 30.0801C30.8123 30.114 30.7427 30.1482 30.673 30.1819C30.59 30.222 30.503 30.2556 30.4249 30.3034C30.3739 30.3283 30.3177 30.3405 30.2609 30.339C30.2042 30.3375 30.1487 30.3223 30.0991 30.2947C30.0843 30.282 30.0663 30.2737 30.047 30.2707C29.808 30.2668 29.7011 30.1301 29.6265 29.9143C29.5772 29.7719 29.6472 29.6842 29.6853 29.5751C29.7344 29.4349 29.8492 29.3585 29.9889 29.2894L29.9092 29.226C29.9561 29.1356 29.9966 29.0469 30.0465 28.9639C30.1388 28.8101 30.2366 28.6596 30.3324 28.5078C30.3578 28.4673 30.3827 28.4264 30.4097 28.3869C30.5015 28.2522 30.5911 28.1159 30.6873 27.9845C30.7794 27.8587 30.8755 27.7358 30.9768 27.6177C31.0114 27.5872 31.0508 27.5628 31.0935 27.5454L31.257 27.2499L30.9326 27.0456C30.8419 27.0097 30.8117 27.2373 30.6737 27.1038C30.6061 27.1697 30.5203 27.2138 30.4274 27.2303C30.3345 27.2468 30.2387 27.235 30.1526 27.1963C30.1107 27.1774 30.0601 27.1797 30.0159 27.1648C29.8482 27.1159 29.7065 27.0026 29.622 26.8496C29.5621 26.7381 29.476 26.6392 29.4262 26.524C29.3947 26.433 29.3785 26.3374 29.3783 26.2411C29.3599 25.9727 29.3397 25.7038 29.3397 25.4351C29.3397 25.3731 29.3236 25.2944 29.3876 25.2234C29.4256 25.1814 29.3885 25.0746 29.3922 24.9974C29.4003 24.8275 29.379 24.6506 29.4995 24.5046C29.5085 24.4916 29.5123 24.4757 29.5103 24.46C29.4791 24.2318 29.5717 24.0266 29.654 23.8286C29.7289 23.6484 29.9184 23.5896 30.0992 23.5449C30.1084 23.5426 30.1292 23.5564 30.1299 23.555C30.2253 23.3753 30.4091 23.4959 30.5439 23.4383C30.6079 23.4109 30.7194 23.4508 30.7894 23.4935C30.8536 23.5327 30.8937 23.5731 30.9614 23.5094C30.9703 23.501 31.0059 23.5209 31.0097 23.5219C31.0097 23.4122 30.9861 23.3003 31.0161 23.2056C31.0531 23.1009 31.1145 23.0064 31.1952 22.9301C31.2711 22.856 31.3794 22.8163 31.4694 22.755C31.5667 22.6772 31.6682 22.6048 31.7735 22.5382C31.8771 22.4933 31.9846 22.4582 32.0947 22.4332C32.1446 22.4258 32.1933 22.4119 32.2396 22.3919C32.4004 22.2879 32.5834 22.2781 32.7638 22.2525C32.8755 22.2365 32.9862 22.2135 33.0971 22.1926C33.1916 22.1746 33.2852 22.1502 33.3804 22.1387C33.4966 22.1246 33.6144 22.1239 33.7308 22.1103C33.7515 22.1079 33.7681 22.0711 33.7906 22.0459C33.8702 22.0838 33.9518 22.1171 34.0351 22.1456C34.0679 22.1552 34.1109 22.1232 34.1502 22.1182C34.3324 22.0885 34.516 22.0685 34.7003 22.0584C34.8479 22.0637 34.9949 22.0792 35.1403 22.1047L35.2565 22.2903C35.346 22.2544 35.3498 22.2376 35.2654 22.1132C35.4044 22.1132 35.5263 22.1143 35.6482 22.1132C35.8518 22.1111 36.0576 22.1543 36.2591 22.0945C36.2831 22.0873 36.3024 22.0631 36.2966 22.0675C36.4044 22.0961 36.5144 22.1159 36.6254 22.1266C36.915 22.129 37.2048 22.1121 37.4944 22.115C37.5921 22.1245 37.6884 22.1449 37.7816 22.176C37.8566 22.1943 37.9301 22.2189 38.005 22.2379C38.1659 22.2785 38.3363 22.2965 38.4864 22.3615C38.7517 22.4765 39.0211 22.5934 39.2297 22.8058C39.2815 22.8585 39.3629 22.9191 39.364 22.9772C39.3665 23.115 39.4621 23.2009 39.5014 23.3148C39.5095 23.3381 39.4827 23.3736 39.4678 23.415C39.5434 23.4815 39.5228 23.5866 39.5051 23.6853C39.5003 23.7117 39.4478 23.7295 39.4062 23.759C39.4253 23.8381 39.4162 23.9214 39.3807 23.9946C39.3451 24.0678 39.2852 24.1264 39.2112 24.1603L39.1436 24.0504C39.1237 24.0659 39.0854 24.0838 39.087 24.0967C39.0966 24.1487 39.1101 24.2 39.1274 24.25C38.9805 24.4071 38.7395 24.4796 38.6089 24.6861C38.6009 24.6988 38.582 24.7161 38.5717 24.714C38.4063 24.6803 38.4179 24.8412 38.3532 24.9148C38.2734 25.0055 38.2063 25.1073 38.1321 25.2031C38.0862 25.2524 38.0567 25.3146 38.0478 25.3814C38.0308 25.5265 37.962 25.6649 37.9979 25.8186C38.0017 25.8348 37.9703 25.8592 37.95 25.8872L38.0599 25.9311L37.9766 26.0045C37.9942 26.0523 38.0057 26.1022 38.0108 26.1529C38.0265 26.2201 38.0561 26.2794 38.0467 26.3318C38.0407 26.3666 37.979 26.3917 37.9421 26.421L37.9182 26.4012C37.9197 26.4305 37.9213 26.4598 37.9231 26.494L38.0494 26.4547C38.0466 26.508 38.0405 26.5611 38.031 26.6136C38.0238 26.6441 37.9918 26.6684 37.9834 26.6989C37.9594 26.7849 37.9042 26.8861 37.9295 26.9571C38.0212 27.2158 37.8936 27.4073 37.758 27.5906C37.7071 27.6514 37.6444 27.7013 37.5737 27.7371C37.5029 27.773 37.4256 27.7941 37.3464 27.7991C37.2885 27.8017 37.2317 27.8159 37.1793 27.8408C37.127 27.8656 37.0801 27.9007 37.0415 27.944C37.0596 27.9923 37.0728 28.0423 37.0809 28.0932C37.0972 28.2611 37.1009 28.4299 37.0917 28.5983C37.0815 28.7027 37.013 28.8007 36.9757 28.9034C36.9599 28.947 36.9732 29.0154 36.9453 29.0376C36.8674 29.0997 36.7814 29.151 36.6898 29.1901C36.6754 29.1971 36.6597 29.2009 36.6437 29.2015C36.6277 29.2021 36.6118 29.1994 36.5969 29.1935C36.582 29.1876 36.5685 29.1787 36.5573 29.1673C36.546 29.156 36.5372 29.1424 36.5314 29.1275C36.502 29.075 36.4094 29.056 36.3846 29.0033C36.3484 28.9212 36.3305 28.8322 36.3319 28.7425C36.3326 28.5536 36.3479 28.3646 36.3612 28.1759C36.3679 28.1409 36.3792 28.1069 36.3949 28.0749L36.2645 27.9753L36.0729 27.9574L36.0746 27.9693C35.9835 27.9714 35.8924 27.9757 35.8013 27.9749C35.6679 27.9737 35.5345 27.9658 35.401 27.9662C35.2442 27.9606 35.088 27.9889 34.9431 28.0493C34.8885 28.0739 34.802 28.028 34.7197 28.0122L34.6843 28.0772L34.6173 27.9754C34.5214 28.096 34.4356 28.1001 34.2939 28.0163C34.2422 27.9878 34.1825 27.9775 34.1242 27.987C33.9155 28.0277 33.7484 27.8552 33.7569 27.6481C33.7673 27.3936 33.9318 27.3244 34.1244 27.2601C34.1814 27.2411 34.2301 27.1904 34.2872 27.1803C34.3638 27.1738 34.4409 27.1743 34.5174 27.1818C34.6312 27.1833 34.7457 27.1878 34.8596 27.184C34.9759 27.1803 35.0917 27.1649 35.208 27.1612C35.4156 27.1546 35.6235 27.148 35.8312 27.1505C36.093 27.1537 36.3547 27.1691 36.6165 27.1729C36.7074 27.1754 36.7982 27.1657 36.8865 27.1439C36.9687 27.1222 37.0418 27.0464 37.1302 27.1264C37.1318 27.1275 37.1337 27.1283 37.1357 27.1287C37.1377 27.129 37.1397 27.1289 37.1417 27.1284C37.2894 27.0792 37.4373 27.0298 37.5853 26.9802L37.5903 26.9421C37.5331 26.9071 37.4725 26.8767 37.4194 26.8364C37.315 26.7609 37.232 26.6594 37.1788 26.542C37.1255 26.4246 37.1038 26.2953 37.1158 26.167C37.1204 26.0805 37.1167 25.9933 37.1175 25.9069C37.1189 25.7692 37.1157 25.6314 37.1242 25.4944C37.1307 25.372 37.1459 25.2503 37.1696 25.1301C37.1907 25.0555 37.2194 24.9833 37.2553 24.9145C37.2643 24.8938 37.296 24.8712 37.2915 24.8584C37.2556 24.7551 37.3155 24.7252 37.3799 24.7184C37.3795 24.6853 37.3838 24.6523 37.3925 24.6203C37.4401 24.5193 37.4894 24.4187 37.5449 24.3219C37.5633 24.2896 37.6019 24.269 37.6454 24.2307C37.6451 24.23 37.6322 24.2027 37.6193 24.1754L37.7166 24.2029C37.7872 24.1154 37.8448 24.0434 37.9033 23.9721C37.9133 23.9601 37.9315 23.9396 37.9387 23.9421C38.0492 23.9836 38.0954 23.8542 38.1939 23.8475C38.2244 23.8403 38.2528 23.826 38.2768 23.8058C38.3008 23.7856 38.3197 23.7601 38.332 23.7313C38.3764 23.6014 38.4994 23.6203 38.5853 23.5724C38.6834 23.5178 38.7564 23.3987 38.7104 23.3356C38.6644 23.2722 38.6094 23.2158 38.5472 23.1682C38.4837 23.1277 38.4175 23.0915 38.3491 23.0599C38.2908 23.0274 38.234 22.9919 38.1564 22.9457C38.0851 22.9665 38.0099 22.9704 37.9368 22.9572C37.8637 22.944 37.7946 22.914 37.7351 22.8697C37.5634 22.742 37.3597 22.7421 37.1532 22.7491C36.8745 22.7586 36.5953 22.7491 36.3164 22.7506C36.2179 22.7512 36.1196 22.7634 36.0211 22.767C35.9021 22.7713 35.7828 22.7686 35.6639 22.7754C35.5642 22.7814 35.4652 22.8023 35.3655 22.8057C35.1643 22.8125 34.9627 22.8066 34.7616 22.8157C34.5725 22.8242 34.3839 22.8463 34.195 22.8602C34.1143 22.8662 34.0333 22.8643 33.9523 22.8699C33.8509 22.877 33.7499 22.8915 33.6485 22.8962C33.5893 22.8944 33.5304 22.8885 33.472 22.8786C33.371 22.9318 33.2664 22.9777 33.1588 23.016C32.9639 23.0736 32.7622 23.1082 32.5654 23.1604C32.3803 23.2095 32.1977 23.2682 32.0144 23.3241C31.9981 23.3304 31.9831 23.3396 31.9702 23.3513C31.9381 23.3818 31.899 23.4039 31.8564 23.4157C31.7686 23.5567 31.6838 23.6998 31.5911 23.8374C31.5665 23.874 31.5144 23.8908 31.4805 23.9228C31.4506 23.9512 31.4075 23.9442 31.3822 24.0075C31.3517 24.084 31.271 24.0387 31.2468 23.9409L31.1731 24.0293C31.1132 23.9187 31.0648 23.9575 30.9874 24.0126C30.9065 24.0702 30.797 24.0873 30.7006 24.1236C30.6607 24.1387 30.6224 24.1575 30.5973 24.1684L30.3032 24.1074L30.1831 24.3511C30.1982 24.3899 30.2072 24.4309 30.2098 24.4725C30.2009 24.5751 30.1808 24.6767 30.1654 24.7787C30.1631 24.7944 30.1552 24.8178 30.1624 24.8251C30.2343 24.8981 30.1896 24.9738 30.1827 25.0551C30.1665 25.2477 30.1759 25.4424 30.1691 25.6361C30.1673 25.69 30.1403 25.7429 30.1336 25.7974C30.1137 25.9597 30.1772 26.1095 30.2167 26.2615C30.2287 26.3079 30.2842 26.3459 30.3254 26.3813C30.3596 26.4066 30.3959 26.4291 30.4338 26.4484L30.7818 26.5347C30.8378 26.5745 30.8836 26.6066 30.9292 26.6394C30.9725 26.6777 31.0251 26.7038 31.0818 26.7151C31.1619 26.7177 31.2421 26.7096 31.3202 26.6911C31.5434 26.6061 31.7657 26.757 31.9878 26.6805C32.1338 26.6302 32.2041 26.7661 32.2863 26.837C32.3928 26.9288 32.452 27.0486 32.3469 27.202C32.2879 27.2881 32.282 27.4091 32.2411 27.5098C32.2281 27.5416 32.1819 27.5648 32.146 27.5817C32.0607 27.6118 31.9774 27.6474 31.8967 27.6883C31.8462 27.7204 31.8201 27.7889 31.7776 27.8361C31.7633 27.85 31.7456 27.86 31.7263 27.8652C31.6505 27.961 31.587 28.0403 31.5252 28.1205C31.504 28.1482 31.4898 28.1815 31.4672 28.2078C31.3841 28.305 31.2976 28.3995 31.2152 28.4972C31.1984 28.525 31.1834 28.5538 31.1703 28.5835C31.1037 28.6891 31.0164 28.7865 30.9733 28.9007C30.9302 29.0087 30.8549 29.1009 30.7577 29.1647C30.7348 29.1816 30.7328 29.2268 30.7211 29.259C30.753 29.2635 30.7904 29.2812 30.816 29.2706C31.0341 29.1803 31.2674 29.1017 31.4296 28.9286C31.5361 28.8148 31.7017 28.7733 31.7714 28.6242C31.7731 28.6206 31.7761 28.6146 31.7782 28.6147C31.9479 28.6253 31.9232 28.4406 32.0181 28.3772C32.045 28.3592 32.0828 28.357 32.1089 28.3381C32.3136 28.19 32.4167 27.9534 32.5924 27.7798C32.6995 27.6738 32.8151 27.5762 32.9727 27.5623C33.0083 27.5592 33.0458 27.6013 33.0852 27.6137C33.1551 27.6356 33.2366 27.6353 33.248 27.7375C33.2496 27.7515 33.2915 27.7658 33.3166 27.7714C33.433 27.7973 33.5309 27.8403 33.5419 27.9803C33.5432 27.9882 33.5462 27.9957 33.5506 28.0025C33.5549 28.0092 33.5607 28.0149 33.5674 28.0194C33.7433 28.1238 33.7685 28.3091 33.8214 28.4814C33.8504 28.559 33.884 28.6348 33.9221 28.7083L33.7885 28.7654C33.9197 28.798 33.9174 28.9177 33.9662 29.0063C33.9369 29.0678 33.9011 29.126 33.8594 29.18C33.8392 29.2019 33.7815 29.1893 33.7324 29.193C33.7156 29.2149 33.6882 29.2488 33.6631 29.2842C33.6521 29.2999 33.634 29.3234 33.6389 29.3353C33.6694 29.4168 33.6793 29.5046 33.6677 29.5909C33.6617 29.6603 33.6828 29.6621 33.6383 29.6765C33.5987 29.8646 33.602 30.0608 33.5151 30.2016C33.4303 30.3393 33.4364 30.5697 33.2475 30.5861C33.214 30.6475 33.1848 30.7112 33.1602 30.7767C33.1383 30.853 33.1358 30.935 33.1127 31.0109C33.0868 31.0961 33.0472 31.1771 33.0109 31.2662L33.0284 31.279C32.9605 31.362 32.9002 31.4347 32.8413 31.5086C32.8271 31.5271 32.8153 31.5473 32.8063 31.5688C32.731 31.7428 32.659 31.9182 32.5805 32.0906C32.5549 32.1286 32.526 32.1644 32.4942 32.1974C32.4676 32.2352 32.4223 32.2807 32.4276 32.3164C32.4484 32.4548 32.3468 32.4668 32.2615 32.4993C32.2742 32.5188 32.3009 32.5412 32.2974 32.5574C32.277 32.6567 32.2735 32.7716 32.2187 32.8486C32.166 32.9346 32.1355 33.0324 32.1301 33.1332C32.1125 33.2441 32.1057 33.3571 32.0826 33.4667C32.0652 33.5112 32.0406 33.5525 32.0097 33.5889C32.013 33.6454 32.0167 33.7092 32.0206 33.7731C32.0251 33.847 31.9925 33.9108 32.0146 33.998C32.0475 34.1258 32.0076 34.2728 31.9951 34.4112C31.9941 34.4218 31.9576 34.4258 31.9494 34.4398C31.9296 34.4694 31.9165 34.5029 31.9107 34.5381C31.9077 34.5737 31.9305 34.6116 31.9275 34.6473C31.914 34.8139 31.9003 34.9807 31.8761 35.1459C31.8673 35.2053 31.8192 35.2583 31.8064 35.318C31.786 35.4123 31.7804 35.5097 31.7685 35.6055L31.8051 35.5875C31.8051 35.6534 31.8231 35.7253 31.8001 35.7804C31.7762 35.8376 31.7689 35.9609 31.6411 35.8912C31.6299 35.8852 31.5977 35.9175 31.5581 35.9431L31.7557 35.9871C31.7018 36.1691 31.6402 36.3426 31.6024 36.5213C31.5815 36.6204 31.6102 36.729 31.5998 36.8316C31.5895 36.933 31.5553 37.0318 31.5368 37.1327C31.5014 37.3249 31.4637 37.5171 31.4388 37.7107C31.4202 37.8548 31.4663 38.0064 31.3572 38.1384C31.3255 38.1768 31.3393 38.2537 31.3343 38.3131C31.3233 38.4441 31.319 38.5759 31.301 38.7059C31.2841 38.7736 31.263 38.8403 31.2378 38.9054C31.2223 38.9624 31.1622 39.0119 31.2264 39.085C31.2477 39.1093 31.2093 39.1827 31.2041 39.2343C31.1742 39.5378 31.146 39.8415 31.1163 40.1451C31.1144 40.1644 31.1016 40.1826 31.0993 40.202C31.0799 40.3649 31.0987 40.3857 31.2789 40.4324C31.484 40.4857 31.7036 40.5123 31.8889 40.6061C32.1869 40.7566 32.4909 40.7051 32.7966 40.7075C32.8385 40.7169 32.8786 40.7331 32.9153 40.7554C32.964 40.6768 33.0787 40.6985 33.1764 40.7075C33.3221 40.7207 33.465 40.7623 33.6097 40.7884C33.6399 40.7914 33.6704 40.7879 33.6992 40.7782C33.7866 40.7543 33.8824 40.6906 33.9582 40.7096C34.1031 40.7455 34.2277 40.6895 34.3588 40.6707C34.5153 40.6483 34.6673 40.5932 34.824 40.572C34.9716 40.5522 35.1228 40.5608 35.2721 40.5519C35.5186 40.537 35.7647 40.5142 36.0113 40.5023C36.1673 40.4947 36.3242 40.497 36.4804 40.5029C36.5354 40.505 36.5698 40.5172 36.6217 40.4633C36.6681 40.4154 36.7705 40.4134 36.8493 40.4059C36.9791 40.3939 37.1203 40.3595 37.2379 40.3957C37.4084 40.4483 37.5535 40.3556 37.7114 40.3674C37.793 40.3734 37.8747 40.3811 37.9565 40.3819C38.0599 40.383 38.1634 40.3784 38.2668 40.3751C38.3852 40.3713 38.5041 40.3583 38.6217 40.3661C38.6607 40.3686 38.6964 40.4229 38.7251 40.4465C38.7496 40.4093 38.7712 40.3408 38.8138 40.3233C38.847 40.3096 38.9063 40.3592 38.956 40.3816C39.0087 40.3771 39.0707 40.3729 39.1323 40.3657C39.1503 40.3636 39.1815 40.3558 39.1835 40.346C39.2115 40.2353 39.2298 40.1223 39.2382 40.0084C39.2319 39.9116 39.2157 39.8156 39.1899 39.722C39.16 39.5638 39.1345 39.4046 39.0962 39.2482C39.0456 39.0414 38.9748 38.8392 38.9318 38.6313C38.916 38.5187 38.9157 38.4044 38.9311 38.2917C38.9332 38.2641 38.9808 38.24 38.9707 38.221C38.9356 38.156 38.9048 38.0888 38.8785 38.0197C38.8399 37.8968 38.808 37.7715 38.7804 37.6457C38.754 37.5253 38.7352 37.4031 38.7158 37.2813C38.7071 37.227 38.7204 37.1638 38.6971 37.1182C38.5739 36.8769 38.6066 36.6099 38.5609 36.3563C38.5499 36.2952 38.5416 36.2334 38.536 36.1715C38.5305 36.1116 38.53 36.0511 38.527 35.9843L38.4756 36.0023C38.4434 35.7392 38.4115 35.4799 38.3791 35.2156C38.2321 35.2323 38.3005 35.0881 38.2935 35.0277C38.2748 34.8653 38.2942 34.6988 38.2909 34.5341C38.2854 34.4651 38.2738 34.3967 38.2563 34.3298C38.2203 34.1542 38.1808 33.9795 38.1488 33.8033C38.1492 33.7649 38.1566 33.7269 38.1706 33.6912C38.1493 33.6613 38.107 33.6278 38.1026 33.5901C38.0897 33.48 38.1026 33.3663 38.0854 33.2572C38.0613 33.1153 38.0283 32.9751 37.9864 32.8373C37.9581 32.7557 37.9245 32.676 37.8856 32.5988C37.7875 32.3772 37.7678 32.1298 37.6242 31.9203C37.5311 31.7845 37.4945 31.6107 37.4256 31.4571C37.4053 31.4117 37.3573 31.3796 37.3287 31.3373C37.2891 31.2785 37.2558 31.2156 37.2192 31.1533C37.2905 31.0643 37.2824 31.0471 37.192 31.0221C37.1217 30.9027 37.0633 30.8139 37.0157 30.7196C36.9701 30.6293 36.9358 30.5333 36.8966 30.4399L36.867 30.4491C36.8828 30.4261 36.8987 30.4031 36.8956 30.4074C36.8497 30.343 36.8077 30.2759 36.7699 30.2064C36.716 30.0901 36.6668 29.9709 36.6239 29.85C36.5978 29.7765 36.6049 29.692 36.5354 29.6329C36.526 29.6248 36.5594 29.5666 36.5768 29.5216C36.5118 29.4977 36.5123 29.4544 36.5819 29.3824C36.7423 29.2162 36.7442 29.2094 36.914 29.3686C37.0302 29.4777 37.1406 29.5928 37.2449 29.7134C37.2744 29.7618 37.2958 29.8148 37.3082 29.8701C37.3906 29.938 37.4685 30.0111 37.5413 30.089C37.5616 30.113 37.5323 30.1785 37.5258 30.2251L37.4854 30.228L37.5569 30.3081L37.5814 30.2702C37.6313 30.3065 37.6765 30.3489 37.7159 30.3965C37.7601 30.4741 37.799 30.5546 37.8324 30.6374C37.8596 30.696 37.8902 30.7534 37.9116 30.814C37.9468 30.8983 37.9982 30.9748 38.0627 31.0393C38.1517 31.1561 38.2246 31.2844 38.2795 31.4206C38.3352 31.5383 38.3431 31.6993 38.4297 31.7765C38.5403 31.8752 38.5326 32.0061 38.5969 32.1133C38.6972 32.2857 38.7611 32.4767 38.7847 32.6747C38.7967 32.7627 38.8566 32.8433 38.8852 32.9304C38.9325 33.066 38.9728 33.204 39.0062 33.3437C39.0437 33.5123 39.0641 33.685 39.0976 33.8544C39.111 33.9196 39.1327 33.983 39.1621 34.0428C39.2147 34.1511 39.2163 34.2321 39.0303 34.2552C39.1974 34.3079 39.1693 34.4235 39.1912 34.5174C39.232 34.6919 39.2811 34.8648 39.3146 35.0405C39.3449 35.1942 39.3646 35.3498 39.3734 35.5062C39.3804 35.6487 39.3526 35.793 39.3619 35.935C39.3679 36.0248 39.4192 36.1109 39.4406 36.2009C39.4815 36.3732 39.5138 36.5476 39.5535 36.7204C39.5724 36.8027 39.6219 36.8843 39.6171 36.9637C39.6128 37.0345 39.6681 37.1199 39.5882 37.184C39.5736 37.196 39.5744 37.2267 39.5661 37.2559L39.6591 37.2744C39.6932 37.5133 39.7207 37.7499 39.7624 37.984C39.7975 38.1816 39.8223 38.3875 39.8998 38.5691C40.0002 38.8039 39.9485 39.0502 40.0065 39.2864C40.0512 39.4685 40.0551 39.6605 40.0797 39.8478C40.0972 39.9225 40.1095 39.9983 40.1165 40.0747C40.1079 40.1368 40.0906 40.1973 40.0651 40.2544C40.0112 40.4237 40.0231 40.6176 39.8854 40.7553C39.7215 40.9193 39.5481 41.0823 39.2971 41.0642C39.1914 41.0566 39.0903 40.9857 38.9772 40.9395C38.8639 40.9606 38.7271 40.987 38.59 41.0114C38.4419 41.0378 38.2937 41.063 38.1452 41.0871C38.1197 41.0894 38.094 41.0896 38.0684 41.0876C37.8353 41.0869 37.5943 41.0493 37.3718 41.0975C37.2067 41.1335 37.0401 41.1399 36.878 41.177C36.8053 41.1937 36.743 41.2511 36.6718 41.2797C36.6137 41.3048 36.5516 41.3195 36.4884 41.3231C36.3321 41.3263 36.1755 41.3188 36.019 41.3151C35.873 41.3116 35.7268 41.3027 35.5808 41.3056C35.4898 41.3075 35.3994 41.3296 35.3082 41.3376C35.1564 41.3509 35.004 41.3582 34.8522 41.3719C34.7743 41.3789 34.6689 41.3676 34.6272 41.4124C34.5673 41.4765 34.504 41.4756 34.437 41.4902C34.3561 41.5082 34.2753 41.5298 34.1937 41.54C34.1368 41.547 34.0775 41.5319 34.02 41.5364C33.9227 41.553 33.8245 41.5637 33.7259 41.5682C33.5529 41.5599 33.381 41.5271 33.208 41.5159C33.0656 41.5067 32.9221 41.514 32.7739 41.514C32.7739 41.5144 32.7709 41.4943 32.772 41.5016C32.5627 41.5495 32.3782 41.4965 32.2164 41.4412C32.132 41.4352 32.0696 41.4361 32.0092 41.4254C31.9239 41.4103 31.8398 41.3876 31.7556 41.3664C31.6924 41.3582 31.6308 41.34 31.5733 41.3125C31.4666 41.2426 31.3463 41.2515 31.2328 41.2227C31.0932 41.1875 30.9343 41.1996 30.8192 41.0745C30.7632 41.0136 30.6618 40.9949 30.6036 40.9353C30.5231 40.8435 30.4489 40.7463 30.3814 40.6446C30.3794 40.6411 30.3783 40.6371 30.3783 40.6331C30.3629 40.4329 30.3444 40.2328 30.3354 40.0323C30.3338 39.9974 30.3719 39.9605 30.3946 39.9194C30.3496 39.8365 30.3279 39.7429 30.332 39.6487C30.3361 39.5544 30.3657 39.463 30.4176 39.3843C30.4261 39.3707 30.4065 39.342 30.4099 39.322C30.4213 39.254 30.4372 39.1869 30.4575 39.0907C30.457 39.0838 30.4529 39.0434 30.4521 39.0028C30.4509 38.9417 30.4511 38.8806 30.4527 38.8194C30.4533 38.7977 30.4512 38.7666 30.4639 38.756C30.5298 38.7008 30.5378 38.6432 30.5208 38.5567C30.5075 38.4893 30.5515 38.4111 30.5683 38.3374C30.5816 38.2794 30.5732 38.2035 30.6076 38.1656C30.7037 38.0594 30.6026 37.9564 30.6209 37.8516C30.6563 37.6488 30.6598 37.4401 30.701 37.2388C30.7169 37.1614 30.7927 37.0993 30.7949 37.0031C30.7974 36.8874 30.828 36.7725 30.8345 36.6566C30.8476 36.4249 30.8447 36.192 30.8644 35.9609C30.8737 35.8588 30.922 35.7605 30.9579 35.6423Z" fill="#FF0D0D"/>
<path d="M54.8152 40.9011C54.7866 41.0221 54.683 40.954 54.6176 40.9706C54.4346 41.0168 54.2351 40.9263 54.0546 41.0325C54.0311 41.0464 53.9887 41.026 53.9548 41.0249C53.9259 41.0233 53.8968 41.0254 53.8683 41.0309C53.8309 41.0393 53.7942 41.0509 53.7588 41.0657C53.6574 41.1082 53.5934 41.0657 53.5403 40.9808C53.5305 40.9652 53.4931 40.9633 53.4679 40.9616C53.4055 40.9576 53.1945 41.1262 53.1924 41.1859C53.1864 41.3675 53.2065 41.5529 53.1763 41.7299C53.145 41.9128 53.1191 42.0961 53.0984 42.2799C53.0852 42.3968 53.0942 42.5163 53.0829 42.6336C53.0672 42.7974 53.0371 42.9598 53.0221 43.1237C53.0119 43.2338 53.017 43.3453 53.0161 43.4561C53.0161 43.4637 53.0248 43.4724 53.023 43.4786C52.9597 43.6959 52.9794 43.9175 52.9834 44.1388C52.9841 44.1787 52.9498 44.2193 52.9335 44.2556C52.9429 44.2796 52.9741 44.3192 52.9653 44.3448C52.9256 44.479 52.9144 44.6201 52.9323 44.7589C52.932 44.8845 52.924 45.0099 52.9084 45.1346C52.9039 45.2188 52.9112 45.3038 52.9046 45.3878C52.8851 45.6373 52.8632 45.8901 52.7464 46.1151C52.6751 46.2367 52.5895 46.3493 52.4914 46.4505C52.4037 46.55 52.2758 46.49 52.1672 46.5097C52.0706 46.5314 51.9715 46.5401 51.8725 46.5354C51.504 46.5009 51.1483 46.6232 50.7825 46.6165C50.7059 46.6233 50.6299 46.6353 50.5549 46.6524C50.5113 46.6577 50.4664 46.6511 50.4221 46.6524C50.3842 46.6523 50.3464 46.6554 50.309 46.6617C50.2323 46.6771 50.1569 46.6999 50.0799 46.7125C50.0601 46.7157 50.036 46.6922 50.0046 46.6765C49.9557 46.6765 49.8892 46.6725 49.8234 46.6773C49.6 46.6934 49.3764 46.7294 49.1536 46.7246C49.015 46.7216 48.877 46.6615 48.7403 46.6211C48.7027 46.61 48.6683 46.5898 48.6404 46.5623C48.6124 46.5348 48.5917 46.5008 48.58 46.4633C48.567 46.4358 48.5589 46.4061 48.5472 46.3779C48.5188 46.3242 48.5044 46.2641 48.5053 46.2034C48.5061 46.1426 48.5222 46.083 48.552 46.0301C48.5717 45.996 48.5325 45.9298 48.5249 45.8777C48.5113 45.7837 48.4954 45.6894 48.4907 45.5947C48.4809 45.3933 48.4806 45.1915 48.4709 44.9902C48.4589 44.7467 48.435 44.5037 48.4296 44.2602C48.4265 44.1218 48.4529 43.983 48.4585 43.8441C48.4604 43.7969 48.4294 43.7483 48.4304 43.701C48.4343 43.5234 48.4458 43.3459 48.4532 43.1684C48.4524 43.1454 48.4496 43.1224 48.445 43.0998L48.5688 43.065L48.567 43.0357L48.4888 43.0028C48.4709 42.9203 48.452 42.8562 48.4447 42.7908C48.4369 42.7474 48.442 42.7027 48.4594 42.6621C48.5173 42.5621 48.4643 42.4645 48.4673 42.3665C48.4715 42.2306 48.481 42.0947 48.4886 41.9589C48.4892 41.9481 48.4993 41.9325 48.4951 41.9275C48.38 41.7904 48.4737 41.6392 48.4838 41.5023C48.4929 41.3791 48.4719 41.2486 48.5173 41.1264C48.5178 41.1134 48.5149 41.1005 48.5089 41.089C48.5029 41.0774 48.4941 41.0676 48.4832 41.0605C48.3945 41.0324 48.302 41.0179 48.2089 41.0176C48.0445 41.0323 47.8831 41.0787 47.7189 41.098C47.5827 41.113 47.4455 41.1179 47.3085 41.1127C47.2067 41.1096 47.1055 41.0799 47.0031 41.0731C46.911 41.0643 46.8182 41.0668 46.7267 41.0805C46.5248 41.1164 46.3172 41.1033 46.1214 41.0424C46.0123 41.0089 45.8989 40.9916 45.7848 40.9908C45.5664 40.9927 45.4195 40.8744 45.3009 40.7177C45.2514 40.6522 45.2022 40.5333 45.2295 40.474C45.2845 40.3546 45.2827 40.202 45.4108 40.1161C45.4505 40.0895 45.4718 40.0362 45.5036 39.9969C45.5723 39.9122 45.6432 39.8292 45.7114 39.7442C45.7556 39.689 45.794 39.629 45.8398 39.5752C45.9026 39.5016 45.9739 39.435 46.0341 39.3596C46.079 39.3033 46.1097 39.2359 46.151 39.1765C46.2332 39.0583 46.314 38.9386 46.4054 38.8277C46.4298 38.7981 46.4904 38.7983 46.5377 38.7838C46.4898 38.6581 46.563 38.5486 46.6403 38.4437C46.703 38.3587 46.7743 38.2802 46.8442 38.1959L46.8753 38.2315C46.8839 38.2234 46.8944 38.2161 46.8933 38.2141C46.831 38.0803 46.9501 38.0152 47.0039 37.9266C47.0316 37.8903 47.0615 37.8558 47.0933 37.8231C47.2869 37.5783 47.48 37.3331 47.6727 37.0876C47.6776 37.0816 47.6851 37.0769 47.6885 37.0701C47.7748 36.9039 47.9275 36.7779 47.973 36.585C47.9943 36.5063 48.0297 36.4321 48.0777 36.3661C48.1268 36.295 48.2021 36.2418 48.2506 36.1703C48.3045 36.0908 48.3412 35.9996 48.4019 35.9215C48.4251 35.8771 48.4523 35.835 48.4833 35.7957C48.5382 35.7369 48.5966 35.6483 48.6622 35.64C48.7092 35.6343 48.7543 35.6182 48.7943 35.5929C48.8342 35.5676 48.8681 35.5338 48.8934 35.4938C49.0163 35.3172 49.1164 35.1247 49.2408 34.9494C49.2917 34.8775 49.4057 34.8472 49.4485 34.7733C49.5235 34.644 49.6585 34.5946 49.7578 34.5001C49.8723 34.3911 50.0312 34.3304 50.1559 34.2303C50.367 34.0607 50.5724 34.1524 50.7743 34.2307C50.8696 34.2754 50.9576 34.3345 51.035 34.4058C51.0703 34.4484 51.0987 34.4961 51.1192 34.5474C51.1924 34.5565 51.6368 35.0445 51.6583 35.1366C51.778 35.224 51.8753 35.294 51.9717 35.3648C52.0557 35.4202 52.1359 35.481 52.212 35.5468C52.2962 35.6276 52.3661 35.7231 52.4437 35.8108C52.4735 35.8515 52.5094 35.8872 52.5502 35.9168C52.7513 36.0332 52.8639 36.2198 52.9806 36.4112C53.044 36.5152 53.1572 36.5887 53.2468 36.6769C53.3053 36.7345 53.3634 36.7926 53.419 36.853C53.4877 36.9278 53.5489 37.0102 53.622 37.0806C53.7097 37.1648 53.8141 37.2323 53.8975 37.3201C54.006 37.4339 54.1018 37.5606 54.2001 37.684C54.2061 37.6914 54.185 37.72 54.1797 37.7319C54.3186 37.7851 54.4552 37.8418 54.5192 37.9909C54.5592 38.0964 54.6243 38.1906 54.7089 38.2653C54.7659 38.3133 54.7897 38.3989 54.8383 38.4597C54.8803 38.512 54.9411 38.5491 54.9853 38.6C55.1094 38.743 55.2286 38.8902 55.3507 39.0348C55.4304 39.1292 55.5124 39.2216 55.5926 39.3154C55.6346 39.3645 55.6949 39.4084 55.7132 39.4652C55.7563 39.5993 55.8903 39.6628 55.9367 39.8071C55.9707 39.9128 56.0573 40.0114 56.069 40.1371C56.0826 40.2833 56.0367 40.364 55.8992 40.4322C55.8883 40.4377 55.8821 40.4542 55.8753 40.4666C55.8668 40.4866 55.8537 40.5042 55.837 40.5181C55.8204 40.532 55.8006 40.5416 55.7794 40.5462C55.7582 40.5509 55.7362 40.5503 55.7152 40.5447C55.6943 40.539 55.675 40.5284 55.659 40.5137C55.5999 40.4538 55.5583 40.4753 55.5269 40.5311C55.4582 40.6708 55.3462 40.7845 55.2076 40.8553C55.1053 40.8963 54.9992 40.9272 54.8909 40.9477C54.8729 40.9516 54.8458 40.9204 54.8152 40.9011ZM53.5211 38.3661C53.4405 38.2504 53.3573 38.1381 53.282 38.0208C53.2329 37.9442 53.1683 37.8807 53.1225 37.7981C53.0797 37.7212 52.9939 37.6547 52.9329 37.5781C52.8771 37.5078 52.8219 37.4369 52.7622 37.37C52.6434 37.2368 52.5212 37.1064 52.4012 36.9747C52.3 36.8633 52.2412 36.7185 52.1163 36.6242C52.0632 36.5734 52.0131 36.5195 51.9662 36.463C51.8647 36.3662 51.7638 36.2679 51.6547 36.1801C51.5 36.0556 51.3382 35.9399 51.1791 35.8208C51.1243 35.7798 51.0657 35.7434 51.0141 35.6988C50.9286 35.6249 50.846 35.5477 50.7663 35.4674C50.7562 35.4572 50.7715 35.4218 50.7704 35.4292C50.7274 35.3736 50.666 35.3263 50.6739 35.2993C50.714 35.1625 50.6058 35.0908 50.5546 34.9977C50.4929 34.8856 50.3419 34.8487 50.2612 34.9196C50.2069 34.9739 50.1566 35.0319 50.1105 35.0933C49.998 35.225 49.8841 35.3551 49.7734 35.4881C49.6664 35.617 49.5626 35.7487 49.4576 35.8792C49.3738 35.9716 49.3029 36.0748 49.2468 36.1862C49.1974 36.2981 49.0885 36.3838 49.005 36.4804C48.9693 36.5143 48.9363 36.5509 48.9063 36.5899C48.8168 36.7347 48.7351 36.8844 48.6454 37.029C48.5467 37.1882 48.4449 37.3454 48.3399 37.5005C48.2506 37.6323 48.1562 37.7605 48.0592 37.8865C48.0478 37.9013 48.0053 37.8925 48.0045 37.8925C47.9421 38.014 47.873 38.132 47.7975 38.2458C47.7215 38.3368 47.6391 38.4223 47.551 38.5016C47.527 38.5256 47.482 38.5464 47.4804 38.5709C47.4652 38.8035 47.2634 38.9227 47.1626 39.1027C47.0967 39.2206 46.9893 39.3178 46.9358 39.4398C46.8541 39.6262 46.7522 39.7824 46.5705 39.8839C46.5279 39.9186 46.4933 39.9622 46.4691 40.0115C46.4444 40.0482 46.434 40.0974 46.4032 40.1266C46.3405 40.1809 46.275 40.232 46.2069 40.2795L46.5159 40.3574C46.5517 40.3472 46.5881 40.3389 46.6249 40.3325C46.8236 40.3061 47.0243 40.3592 47.2262 40.2867C47.3358 40.2474 47.4734 40.2876 47.5983 40.2889C47.6263 40.2858 47.6537 40.2793 47.68 40.2695C47.7066 40.3051 47.7472 40.34 47.7773 40.3325C47.9381 40.2922 48.1041 40.2956 48.2669 40.2486C48.4192 40.2045 48.5948 40.2481 48.758 40.2314C48.792 40.2241 48.8273 40.225 48.8608 40.2341C48.8944 40.2433 48.9252 40.2604 48.9508 40.284C49.0074 40.3371 49.0664 40.364 49.141 40.2793C49.1355 40.3417 49.13 40.4042 49.1226 40.487C49.1543 40.5072 49.1883 40.5236 49.2238 40.536C49.2851 40.5526 49.3604 40.6509 49.3267 40.6995C49.2309 40.8378 49.2634 40.9836 49.2815 41.1307C49.2966 41.1979 49.304 41.2666 49.3037 41.3355C49.2836 41.5183 49.2122 41.6936 49.276 41.8856C49.3272 42.04 49.1921 42.2013 49.2704 42.364C49.2961 42.4064 49.3066 42.4564 49.3001 42.5055C49.2539 42.639 49.3397 42.7762 49.2497 42.9217C49.2 43.002 49.216 43.1766 49.3036 43.292C49.3179 43.3113 49.3244 43.3354 49.3216 43.3594C49.3016 43.4535 49.249 43.531 49.2776 43.6462C49.3075 43.7666 49.2653 43.9038 49.261 44.0339C49.2585 44.1083 49.2918 44.1917 49.268 44.2559C49.2256 44.3702 49.2493 44.4789 49.2511 44.5907C49.2527 44.6899 49.2428 44.7892 49.2451 44.8883C49.2486 45.0535 49.2576 45.2185 49.263 45.3568C49.2766 45.4602 49.287 45.5383 49.2975 45.6199L49.2269 45.6117C49.2462 45.7006 49.2608 45.7861 49.2845 45.8689C49.2934 45.8997 49.3195 45.9424 49.345 45.9485C49.438 45.9774 49.5349 45.9914 49.6322 45.9901C49.8014 45.9745 49.9676 45.9302 50.1363 45.9054C50.2608 45.886 50.3864 45.8745 50.5123 45.871C50.7557 45.8666 50.9994 45.8765 51.243 45.871C51.3743 45.868 51.5048 45.8387 51.6362 45.8335C51.7485 45.8291 51.8621 45.851 51.9738 45.8424C51.9983 45.8367 52.0211 45.825 52.0399 45.8083C52.0587 45.7915 52.0731 45.7703 52.0816 45.7466C52.1244 45.3301 52.1493 44.9116 52.1966 44.4957C52.2241 44.2644 52.2368 44.0316 52.2348 43.7987C52.2332 43.6817 52.2899 43.5684 52.2845 43.4369C52.2665 43.2235 52.2941 43.0088 52.3655 42.8069C52.3782 42.7497 52.3809 42.6907 52.3736 42.6325C52.3756 42.49 52.3732 42.3473 52.3799 42.205C52.3825 42.1479 52.4121 42.092 52.4154 42.0348C52.4273 41.8903 52.4305 41.7453 52.425 41.6005C52.4151 41.4413 52.5199 41.2961 52.4725 41.1333C52.4688 41.1205 52.5138 41.0935 52.5377 41.0717C52.5212 41.0615 52.4922 41.0527 52.4914 41.0417C52.4768 40.8435 52.4153 40.6328 52.5729 40.4654C52.6461 40.3876 52.7563 40.2832 52.838 40.2926C52.9147 40.3064 52.993 40.3102 53.0708 40.304C53.1593 40.2907 53.2432 40.3392 53.3418 40.2818C53.4163 40.2384 53.5445 40.2154 53.6064 40.2829C53.681 40.2785 53.7547 40.2649 53.8259 40.2425C54.0387 40.1401 54.2696 40.1646 54.4794 40.1957C54.653 40.2214 54.7832 40.128 54.942 40.1393C54.8761 40.0518 54.8066 39.9799 54.7393 39.9057C54.7061 39.8691 54.6765 39.8292 54.646 39.7902C54.5566 39.6764 54.4628 39.5649 54.3803 39.4461C54.3308 39.3747 54.3102 39.2824 54.2573 39.2146C54.1181 39.0362 53.9605 38.8718 53.8256 38.6903C53.7501 38.5739 53.6829 38.4523 53.6245 38.3264L53.5211 38.3661Z" fill="#FF0D0D"/>
<path d="M25.2176 34.7236C25.2505 34.5793 25.4616 34.5106 25.578 34.607C25.6337 34.6015 25.5442 34.38 25.7013 34.5241C25.7717 34.3897 25.8252 34.4805 25.8824 34.5477L25.9573 34.4691L26.1468 34.6269C26.2222 34.6194 26.2982 34.6222 26.3728 34.6353C26.4448 34.6678 26.5126 34.7089 26.5747 34.7578C26.631 34.7937 26.7692 34.7182 26.7891 34.6476C26.8084 34.5882 26.8318 34.5301 26.8592 34.4739C26.8763 34.4352 26.9011 34.3994 26.9147 34.3597C26.9259 34.3184 26.9343 34.2764 26.9398 34.2339H27.0612L27.0731 34.2053L26.9904 34.1546C27.0884 33.9254 27.1899 33.6949 27.2851 33.4618C27.3245 33.3653 27.345 33.2612 27.3834 33.1643C27.45 32.9969 27.5244 32.8327 27.5948 32.6668C27.6067 32.6461 27.6137 32.623 27.6151 32.5993C27.5979 32.4353 27.7018 32.3084 27.7457 32.1634C27.8035 31.9725 27.9303 31.8055 27.9438 31.5987C27.9444 31.5947 27.9456 31.5908 27.9473 31.5872C27.9794 31.5 28.0151 31.4139 28.0428 31.3253C28.0866 31.1857 28.2053 31.1203 28.3141 31.0471C28.3521 31.0254 28.3958 31.0157 28.4394 31.0193C28.6482 31.0226 28.8566 31.0386 29.0635 31.0672C29.2034 31.0921 29.334 31.1695 29.4688 31.2234C29.4725 31.2249 29.4781 31.2256 29.4794 31.2283C29.5458 31.3625 29.637 31.4912 29.6697 31.6333C29.6855 31.7486 29.6671 31.8659 29.6168 31.9708C29.5773 32.0669 29.5457 32.1661 29.5222 32.2673C29.4912 32.3926 29.5267 32.5376 29.4117 32.6506C29.3571 32.7045 29.3572 32.8173 29.3403 32.9049C29.3292 33.0117 29.3118 33.1177 29.2881 33.2224C29.2638 33.2977 29.1935 33.3569 29.1573 33.4301C29.0961 33.5539 29.0405 33.681 28.992 33.8103C28.9151 34.0146 28.8342 34.2187 28.7781 34.4291C28.7451 34.5549 28.6901 34.6738 28.6158 34.7805C28.5612 34.86 28.5552 34.9727 28.5259 35.0701C28.502 35.1512 28.4392 35.2438 28.461 35.3089C28.482 35.371 28.59 35.4035 28.6595 35.4496C28.8022 35.5442 28.9445 35.6393 29.0999 35.7426C29.0999 35.7386 29.0932 35.7822 29.1009 35.785C29.1695 35.8089 29.2426 35.8209 29.3105 35.8463C29.3792 35.8669 29.4435 35.8997 29.5005 35.9431C29.5401 35.9862 29.587 36.022 29.6391 36.0487C29.726 36.0942 29.7918 36.1719 29.8223 36.2651C29.8556 36.3784 29.8863 36.4727 29.9935 36.5374C30.0073 36.5428 30.0196 36.5514 30.0295 36.5625C30.0394 36.5736 30.0465 36.5868 30.0503 36.6012C30.0541 36.6155 30.0545 36.6306 30.0514 36.6451C30.0484 36.6596 30.0419 36.6732 30.0326 36.6847C30.0267 36.7134 30.0283 36.7432 30.0371 36.7711C30.046 36.799 30.0618 36.8242 30.0831 36.8443C30.2961 36.9792 30.3934 37.1488 30.3207 37.4052C30.3019 37.508 30.2909 37.6121 30.2877 37.7166C30.2728 37.8369 30.2566 37.9573 30.2344 38.0764C30.1966 38.2794 30.1646 38.4845 30.1087 38.6828C30.068 38.8275 29.9883 38.9608 29.9354 39.1028C29.8857 39.236 29.849 39.3741 29.8051 39.5096C29.7964 39.53 29.7858 39.5495 29.7735 39.5679C29.6931 39.7153 29.614 39.8635 29.5309 40.0094C29.5153 40.0389 29.4899 40.0621 29.4591 40.0748C29.4224 40.0835 29.3892 40.103 29.3638 40.1308C29.3383 40.1585 29.3218 40.1933 29.3163 40.2305C29.2963 40.3231 29.2276 40.3591 29.1435 40.4001C29.0039 40.4681 28.8834 40.5742 28.7493 40.655C28.5795 40.7573 28.4041 40.8505 28.2311 40.9476C28.1472 40.884 28.1028 40.9794 28.0404 40.998C27.8959 41.041 27.8487 41.0256 27.7795 40.8528C27.7436 40.9174 27.7165 40.9595 27.6961 41.0047C27.6799 41.047 27.6519 41.0838 27.6154 41.1106C27.5789 41.1374 27.5354 41.1532 27.4902 41.156C27.3913 41.1639 27.2921 41.1716 27.1932 41.1704C27.0869 41.1691 26.9805 41.1595 26.8747 41.1481C26.8531 41.1457 26.8323 41.1208 26.8144 41.1029C26.7966 41.0851 26.7794 41.0423 26.7653 41.0436C26.6061 41.059 26.6325 40.9256 26.5979 40.8415C26.4937 40.8289 26.4356 40.7175 26.4597 40.5753C26.4722 40.5021 26.4858 40.4293 26.5036 40.3304C26.4444 40.3419 26.3847 40.3502 26.3246 40.3553C26.1109 40.3616 25.8972 40.4488 25.6831 40.3373C25.5513 40.2687 25.4033 40.2317 25.2719 40.1629C25.2129 40.1259 25.1683 40.07 25.1454 40.0043C25.0963 39.8682 25.0275 39.7313 25.0816 39.5641C25.0487 39.5689 25.0163 39.5769 24.9849 39.5881C24.9094 39.6267 24.8255 39.6463 24.7406 39.6451C24.6557 39.6439 24.5724 39.6219 24.498 39.5811C24.4787 39.5715 24.4577 39.566 24.4361 39.5647C24.4146 39.5635 24.3931 39.5667 24.3728 39.574C24.1893 39.6704 24.0602 39.5321 23.915 39.4737C23.7265 39.3982 23.6754 39.2184 23.6414 39.0462C23.6261 38.9683 23.6777 38.8776 23.7073 38.7607C23.5889 38.7813 23.4692 38.7931 23.3492 38.7959C23.2422 38.7818 23.1367 38.7581 23.0339 38.7251C23.0055 38.7715 22.9606 38.8076 22.8951 38.7371C22.8794 38.7246 22.8597 38.7182 22.8396 38.7192C22.6076 38.7198 22.4668 38.5238 22.2692 38.4566C22.1049 38.4007 22.0715 38.235 21.9189 38.1408L22.0815 38.067C22.0609 38.0406 22.0727 37.9686 21.992 38.0395C21.9494 38.0769 21.9069 38.101 21.8731 38.0079C21.8431 37.9255 21.7612 37.8635 21.7157 37.7847C21.6926 37.7446 21.6767 37.658 21.6961 37.6433C21.7745 37.5839 21.7201 37.5459 21.6755 37.4923L21.775 37.4503C21.6929 37.2928 21.8674 37.2834 21.9276 37.2416C21.9988 37.1923 22.1178 37.1967 22.2144 37.2033C22.3095 37.2182 22.403 37.2419 22.4937 37.2743C22.4933 37.2759 22.5004 37.246 22.5048 37.2275C22.7075 37.2441 22.9021 37.3053 23.0941 37.2083C23.1012 37.2045 23.1092 37.2026 23.1172 37.2027C23.2736 37.2111 23.417 37.1378 23.5639 37.1224C23.7122 37.1067 23.7545 36.9832 23.859 36.9326C23.8742 36.9252 23.8796 36.8953 23.8945 36.8897C24.1293 36.8046 24.1956 36.5717 24.3138 36.3913C24.3617 36.3183 24.3224 36.1927 24.4176 36.1178C24.4388 36.101 24.4405 36.0351 24.4265 36.0023C24.3791 35.8909 24.4839 35.904 24.5232 35.8725C24.5184 35.8404 24.5024 35.8075 24.512 35.7859C24.5552 35.6886 24.6084 35.5958 24.6522 35.4988C24.6802 35.4407 24.7007 35.3794 24.713 35.3161C24.7303 35.2123 24.8807 35.0205 24.9669 35.0061C24.9544 34.862 25.0911 34.7082 25.2217 34.7196C25.2224 34.7315 25.2185 34.7468 25.2244 34.7547C25.2484 34.7866 25.2757 34.8162 25.3017 34.8465L25.3569 34.7782C25.3224 34.761 25.2882 34.7429 25.2531 34.7271C25.2415 34.7241 25.2295 34.7229 25.2176 34.7236ZM23.7167 37.814H22.3906C22.395 37.8284 22.3951 37.8771 22.4192 37.8973C22.4652 37.9296 22.5153 37.9557 22.5681 37.9752C22.7579 38.0635 22.9311 38.1897 23.1666 38.1454C23.2849 38.1231 23.4145 38.1653 23.5394 38.171C23.6214 38.1792 23.7041 38.1752 23.7849 38.159C23.9095 38.1263 23.9489 38.1422 23.9804 38.2686C23.9905 38.257 23.9978 38.2431 24.0015 38.2281C24.0052 38.2132 24.0053 38.1975 24.0018 38.1825C23.964 38.1042 24.0062 38.084 24.0677 38.0894C24.1111 38.1004 24.1527 38.1174 24.1914 38.14C24.1816 38.146 24.192 38.1435 24.1942 38.1377C24.2653 37.9498 24.4687 37.9426 24.6085 37.859C24.7061 37.8005 24.8485 37.7802 24.9708 37.7423C25.0074 37.7309 25.0458 37.7257 25.1149 37.7109C25.152 37.6615 25.3839 37.644 25.477 37.7176C25.4903 37.7281 25.4877 37.7588 25.4931 37.783H25.3622L25.5993 37.9267L25.5242 37.9588L25.5781 37.9782C25.592 38.033 25.5973 38.0895 25.594 38.1459C25.5495 38.3452 25.4016 38.4671 25.2472 38.5831C25.1707 38.6405 25.1079 38.7239 25.0237 38.7611C24.9222 38.7944 24.8173 38.8165 24.7111 38.827C24.6899 38.8311 24.6507 38.8355 24.6507 38.8404C24.6486 38.9312 24.5782 38.9147 24.5243 38.9253C24.3877 38.9521 24.3861 38.9542 24.3919 39.0671C24.5128 39.0671 24.6341 39.0681 24.7553 39.0662C24.7833 39.0672 24.811 39.061 24.8359 39.0483C24.9036 39.0023 24.9826 38.976 25.0643 38.9722C25.146 38.9684 25.2272 38.9872 25.2989 39.0266C25.3272 38.9923 25.3484 38.9403 25.3827 38.9294C25.567 38.8712 25.7541 38.8216 25.9409 38.7723C26.0392 38.7462 26.1417 38.7337 26.2373 38.7008C26.358 38.6593 26.4739 38.6037 26.5914 38.5531C26.6289 38.5355 26.6714 38.5317 26.7115 38.5425C26.7515 38.5532 26.7865 38.5778 26.8101 38.6119C26.8712 38.6881 26.8621 38.8502 26.7969 38.9039C26.6764 39.0127 26.5467 39.1109 26.4092 39.1974C26.245 39.2796 26.0768 39.3536 25.9052 39.419C25.8819 39.4323 25.8608 39.4492 25.8428 39.4692C25.8119 39.4977 25.7846 39.5306 25.7515 39.5561C25.7158 39.5813 25.6788 39.6045 25.6406 39.6257C25.7896 39.7748 25.9375 39.7412 26.068 39.7208C26.2986 39.6849 26.5243 39.6184 26.7529 39.5684C26.8078 39.5564 26.8717 39.5727 26.9211 39.5517C27.0462 39.4983 27.1651 39.4304 27.287 39.3695C27.4248 39.3006 27.5654 39.2362 27.7016 39.1639C27.8141 39.104 27.9172 39.0235 28.0335 38.9746C28.1498 38.9257 28.2491 38.9999 28.3143 39.0853C28.3587 39.1437 28.4047 39.259 28.377 39.3034C28.2904 39.4418 28.2536 39.6202 28.0825 39.702C28.0155 39.7341 27.9682 39.8054 27.907 39.8523C27.8677 39.8756 27.826 39.8947 27.7826 39.9093C27.777 40.0101 27.6918 40.0298 27.6249 40.0283C27.5799 40.0911 27.5575 40.1552 27.5145 40.1753C27.4775 40.1923 27.4453 40.2185 27.4211 40.2514C27.3969 40.2843 27.3815 40.3228 27.3763 40.3632L27.5081 40.391C27.5041 40.379 27.5 40.3672 27.4958 40.3556C27.5805 40.3177 27.6645 40.2777 27.7502 40.2423C27.852 40.2003 27.9558 40.164 28.0572 40.1218C28.1045 40.1012 28.1502 40.0772 28.194 40.05C28.2444 40.02 28.2927 39.9862 28.3467 39.9509C28.3503 39.9555 28.3713 39.9822 28.3837 39.9978C28.4349 39.9375 28.467 39.8669 28.52 39.8436C28.6576 39.7886 28.7765 39.695 28.8624 39.5741C28.8978 39.5222 28.9215 39.4626 28.9549 39.4092C29.0359 39.2799 29.1194 39.1523 29.2016 39.0239C29.2294 38.9806 29.2568 38.9369 29.2826 38.8962C29.2774 38.8701 29.2587 38.8338 29.2669 38.8059C29.2902 38.7434 29.3166 38.682 29.346 38.6221C29.3795 38.5425 29.3687 38.437 29.4838 38.4054C29.4989 38.4013 29.5018 38.3521 29.5102 38.3238C29.5461 38.2059 29.5803 38.0876 29.618 37.9704C29.6402 37.9011 29.642 37.8499 29.5536 37.8253C29.396 37.7814 29.2402 37.7304 29.0846 37.6797C29.0209 37.659 28.9595 37.6313 28.889 37.6035C28.8837 37.5763 28.8767 37.5408 28.871 37.5129C28.8194 37.5314 28.7675 37.5705 28.7341 37.5584C28.5702 37.499 28.4135 37.4197 28.2496 37.3601C28.1298 37.3166 27.9987 37.3032 27.8798 37.2574C27.7453 37.2008 27.6138 37.1374 27.4858 37.0673C27.4105 37.0292 27.3409 36.9787 27.2634 36.9463C27.1723 36.9083 27.0726 36.8903 26.9819 36.8518C26.8507 36.7964 26.723 36.7324 26.5959 36.6679C26.5508 36.6415 26.5075 36.6121 26.4663 36.5799C26.4321 36.5852 26.3973 36.5846 26.3634 36.5782C26.2122 36.5236 26.0632 36.4628 25.9096 36.4028C25.9122 36.3979 25.9009 36.4189 25.906 36.4095C25.8038 36.3713 25.7169 36.3371 25.6287 36.3064C25.5173 36.2761 25.408 36.2384 25.3015 36.1938C25.1533 36.1186 25.1325 36.1159 25.0638 36.2657C25.0426 36.3122 25.0384 36.3663 25.0196 36.4143C24.9564 36.576 24.8945 36.738 24.822 36.8954C24.803 36.9366 24.7399 36.9553 24.7114 36.9949C24.6297 37.1078 24.5654 37.2348 24.4743 37.3388C24.4196 37.4012 24.3276 37.4311 24.2431 37.4809C24.2665 37.5671 24.1504 37.5716 24.0918 37.6078C24.0386 37.6407 24.0091 37.7396 23.9039 37.6852C23.8671 37.6662 23.8243 37.8658 23.7306 37.6979C23.7252 37.7405 23.722 37.7667 23.7164 37.814H23.7167ZM27.139 36.1338L27.1617 36.1632C27.1763 36.1659 27.191 36.1682 27.2056 36.1714C27.3171 36.1957 27.4708 36.1839 27.5304 36.253C27.6241 36.362 27.7539 36.3348 27.851 36.4044C27.9056 36.4435 27.9867 36.4444 28.0546 36.4667C28.1226 36.4889 28.2211 36.4972 28.2494 36.5451C28.3357 36.6911 28.554 36.5999 28.6157 36.7682C28.6788 36.7712 28.7406 36.787 28.7974 36.8146C28.8542 36.8423 28.9047 36.8812 28.946 36.9291C28.9529 36.938 28.9744 36.9373 28.9893 36.9378C29.1211 36.9423 29.2453 36.9643 29.3311 37.08C29.3402 37.0919 29.3542 37.1073 29.3671 37.1088C29.4801 37.1218 29.5935 37.1319 29.743 37.1464C29.6404 36.9826 29.5611 36.8346 29.4615 36.7017C29.2966 36.482 29.0292 36.4231 28.7931 36.3304C28.6581 36.282 28.5271 36.2229 28.4014 36.1538C28.3299 36.1012 28.2522 36.0575 28.1701 36.0236C28.0617 35.9926 28.0133 35.931 28.0084 35.7911L27.9218 35.8828C27.7863 35.8589 27.713 35.7349 27.6774 35.6205C27.6415 35.505 27.5525 35.3605 27.6985 35.2397C27.7181 35.2235 27.7012 35.1634 27.7012 35.1391C27.7286 35.0927 27.7531 35.0535 27.7754 35.013C27.7909 34.9848 27.8009 34.9531 27.8184 34.9264C27.8324 34.9106 27.8485 34.8968 27.8663 34.8855C27.8118 34.8354 27.8575 34.7984 27.8787 34.7532C27.907 34.6893 27.9303 34.6233 27.9486 34.5559C27.9955 34.3975 28.0366 34.2374 28.0877 34.0804C28.0975 34.0504 28.142 34.0315 28.1607 34.0158C28.1507 33.9838 28.1465 33.9502 28.1484 33.9168C28.1866 33.7846 28.2332 33.6547 28.2724 33.5228C28.3225 33.3546 28.3623 33.183 28.4181 33.0169C28.4622 32.8864 28.5294 32.7639 28.5766 32.6343C28.6058 32.5538 28.58 32.4472 28.6963 32.4137C28.7023 32.412 28.7039 32.3927 28.7069 32.3815C28.7559 32.1988 28.8049 32.0161 28.851 31.8439C28.7434 31.7939 28.6332 31.7496 28.521 31.7112C28.4975 31.7088 28.4739 31.7124 28.4522 31.7217C28.4305 31.7309 28.4116 31.7456 28.3972 31.7642C28.3612 31.8573 28.3335 31.9534 28.3146 32.0514C28.2638 32.267 28.2161 32.4834 28.1667 32.6993C28.1638 32.7106 28.1595 32.7214 28.154 32.7317C28.0925 32.8563 28.0122 32.9754 27.9737 33.1067C27.9309 33.2819 27.8977 33.4593 27.8743 33.6381C27.8018 33.6718 27.7044 33.6876 27.7569 33.8167C27.7415 33.8079 27.7256 33.7999 27.7094 33.7927C27.6919 33.7863 27.6734 33.7822 27.6555 33.7772L27.6338 33.8112L27.7681 33.9085C27.5088 34.3762 27.4387 34.9489 27.0254 35.3628L26.9028 35.3382C26.8927 35.3639 26.8833 35.3881 26.8696 35.4232C26.8291 35.4042 26.7754 35.3966 26.7638 35.3703C26.7439 35.3289 26.7133 35.2935 26.6753 35.2678C26.6372 35.2421 26.593 35.2269 26.5472 35.2238C26.3773 35.1951 26.2048 35.1814 26.0338 35.1584C25.9877 35.1503 25.9421 35.1395 25.8973 35.1262C25.683 35.218 25.4616 35.3053 25.3914 35.5367C25.4357 35.5771 25.4848 35.612 25.5376 35.6404C25.5962 35.6573 25.6567 35.6665 25.7177 35.6681C25.7683 35.6727 25.8199 35.6676 25.8704 35.6733C25.9705 35.6845 26.0732 35.6951 26.1019 35.8208C26.1026 35.8237 26.1164 35.8236 26.1322 35.8263L26.1637 35.7403C26.3684 35.7972 26.5729 35.8446 26.7028 36.0526C26.8676 35.9005 27.0243 36.105 27.1999 36.0814C27.2079 36.0946 27.2157 36.1077 27.2233 36.1209L27.139 36.1338ZM26.6936 40.8417C26.7653 40.8453 26.8372 40.844 26.9087 40.8381C26.9257 40.8357 26.9537 40.7711 26.947 40.7642C26.9009 40.7211 26.8521 40.6809 26.801 40.6438L26.6936 40.8417ZM27.6399 33.5406C27.6005 33.4683 27.5773 33.3904 27.4993 33.4403C27.4603 33.4652 27.4491 33.5333 27.4254 33.582L27.4639 33.6198L27.6399 33.5406ZM26.9779 34.9512C26.9913 35.0282 27.0253 35.0742 27.0912 35.0331C27.1164 35.0174 27.1129 34.9556 27.1281 34.8912L26.9779 34.9512ZM25.4644 39.3304L25.4947 39.3319C25.4947 39.2923 25.5106 39.2336 25.4911 39.2173C25.446 39.1949 25.3969 39.1816 25.3466 39.1779L25.3586 39.3062L25.4433 39.2443C25.4521 39.2801 25.4582 39.3053 25.4644 39.3304Z" fill="#FF0D0D"/>
<path d="M54.6416 43.3052C54.6389 43.2677 54.6422 43.23 54.6512 43.1935C54.735 42.9839 54.8224 42.7753 54.9116 42.5677C54.9283 42.5234 54.9543 42.4832 54.9878 42.4497C55.0082 42.4317 55.0526 42.4402 55.0855 42.4369C54.964 42.3357 55.0949 42.2536 55.1268 42.1717C55.1791 42.0606 55.2423 41.9549 55.3154 41.8563C55.3863 41.7463 55.6904 41.6526 55.8069 41.7071C55.8295 41.7177 55.8388 41.7566 55.8428 41.7917C55.8894 41.8031 55.9875 41.7349 55.9789 41.8756C56.053 41.869 56.0676 41.9409 56.1107 41.9754C56.296 42.1248 56.3946 42.3389 56.5299 42.5264C56.6078 42.6336 56.6198 42.7876 56.7657 42.8533C56.8144 42.8752 56.8347 42.9592 56.8686 43.0145C56.994 43.2185 57.1705 43.3908 57.2465 43.6258C57.2525 43.6453 57.2776 43.6591 57.2949 43.6745C57.3154 43.6924 57.3521 43.7071 57.3557 43.7277C57.3763 43.8467 57.4504 43.9209 57.5399 43.9926C57.5626 44.0106 57.5434 44.0811 57.5434 44.1026C57.5873 44.1482 57.6267 44.1981 57.6608 44.2515C57.7506 44.4329 57.832 44.6187 57.9196 44.8013C58.0178 45.0062 57.9835 45.2073 57.8807 45.3918C57.7977 45.5407 57.6291 45.5557 57.4761 45.5825C57.3123 45.6112 57.1483 45.639 56.9861 45.6752C56.9628 45.6804 56.9363 45.7291 56.934 45.7593C56.9275 45.8343 56.9295 45.9098 56.94 45.9843C56.9772 46.1688 56.9679 46.3595 56.9132 46.5395C56.8879 46.6145 56.927 46.7087 56.9196 46.7927C56.9064 46.9435 56.9037 47.102 56.8514 47.2403C56.8129 47.3421 56.7712 47.4851 56.6064 47.4887C56.5751 47.4894 56.5444 47.5324 56.5142 47.5567C56.4868 47.5857 56.4527 47.6074 56.415 47.6201C56.3772 47.6328 56.337 47.6361 56.2977 47.6296C56.2003 47.6147 56.09 47.6862 55.9852 47.7189C55.8343 47.7662 55.6905 47.8165 55.5219 47.7586C55.4538 47.7352 55.351 47.7984 55.2687 47.8333C55.0044 47.9454 54.641 47.6899 54.6488 47.45C54.6567 47.2101 54.6269 46.9657 54.6589 46.7295C54.6861 46.5289 54.6878 46.3307 54.6976 46.131C54.7066 46.0238 54.7226 45.9174 54.7455 45.8123C54.7599 45.7334 54.7351 45.6985 54.6521 45.7066C54.4689 45.7346 54.284 45.7496 54.0987 45.7514C53.9454 45.7443 53.7862 45.7028 53.6908 45.5526C53.6696 45.5285 53.6458 45.5068 53.6198 45.4881L53.7091 45.4535L53.707 45.4115C53.4674 45.4756 53.5239 45.3201 53.5153 45.2035L53.6215 45.1706C53.4967 45.1004 53.4902 45.0205 53.5796 44.8787C53.6634 44.745 53.7374 44.6047 53.8247 44.4734C53.9357 44.3062 54.0554 44.1447 54.172 43.9813C54.2641 43.8523 54.3606 43.7263 54.4484 43.5944C54.4881 43.5345 54.5065 43.461 54.5438 43.3992C54.5722 43.3638 54.6051 43.3322 54.6416 43.3052ZM55.3483 47.1674C55.3838 47.1512 55.4213 47.1399 55.4598 47.1338C55.6515 47.1572 55.8457 47.1471 56.0339 47.1038C56.1405 47.0746 56.2511 47.0601 56.3577 47.031C56.3987 47.0137 56.4371 46.9908 56.4718 46.9631C56.4479 46.9278 56.4233 46.8925 56.3992 46.8571C56.3791 46.8271 56.34 46.7958 56.3423 46.7678C56.3558 46.6053 56.3788 46.4437 56.3994 46.2818C56.4061 46.2609 56.4107 46.2393 56.413 46.2174C56.3982 46.0751 56.3711 45.9334 56.367 45.791C56.3708 45.6724 56.381 45.5541 56.3979 45.4366C56.4083 45.3118 56.5306 45.1415 56.6398 45.1282C56.7857 45.1103 56.9343 45.1154 57.0806 45.0996C57.1846 45.0882 57.2867 45.0586 57.4034 45.0343C57.3203 44.8849 57.2546 44.7648 57.1868 44.646C57.1559 44.5918 57.1199 44.5405 57.0876 44.487C57.0363 44.4019 56.9898 44.3133 56.9347 44.2311C56.8583 44.1168 56.731 44.0275 56.7588 43.8816C56.697 43.8486 56.621 43.8324 56.588 43.7858C56.5008 43.6572 56.4214 43.5236 56.3503 43.3855C56.286 43.2665 56.2392 43.1375 56.1694 43.0223C56.1169 42.9356 56.0334 42.8683 55.9756 42.7842C55.8863 42.654 55.8071 42.5168 55.7256 42.3858L55.6172 42.4043C55.5992 42.4658 55.5918 42.5054 55.5766 42.5421C55.5526 42.5998 55.5249 42.6559 55.4963 42.7114C55.4852 42.7309 55.471 42.7485 55.4543 42.7634C55.3546 42.8494 55.2917 42.9704 55.2787 43.1014C55.2707 43.2305 55.2289 43.3552 55.1574 43.463C55.1437 43.4842 55.1056 43.4897 55.0838 43.5C55.0883 43.5355 55.1085 43.5803 55.0952 43.6099C55.0324 43.7629 54.9583 43.911 54.8736 44.0531C54.779 44.1992 54.6397 44.3142 54.5873 44.4911C54.5585 44.5881 54.4196 44.6731 54.356 44.6557C54.424 44.8542 54.2561 44.9301 54.1229 45.0519C54.1965 45.0583 54.2418 45.0663 54.2868 45.0656C54.5129 45.0625 54.7343 44.9705 54.9636 45.03C54.9701 45.0316 54.9784 45.0246 54.9861 45.0228C55.1245 44.9895 55.2158 45.0816 55.296 45.1615C55.4273 45.2925 55.4367 45.4663 55.4217 45.6446C55.4086 45.8028 55.4136 45.9625 55.4047 46.1212C55.3968 46.2631 55.3848 46.405 55.3669 46.5459C55.3595 46.6043 55.3212 46.6593 55.3166 46.7175C55.3151 46.7946 55.3193 46.8717 55.3294 46.9481C55.3354 47.019 55.342 47.0899 55.3486 47.1674H55.3483Z" fill="#FF0D0D"/>
<path d="M43.2997 29.4682C43.2661 29.5281 43.2558 29.5686 43.2298 29.5889C43.0921 29.6967 42.947 29.7949 42.8125 29.9063C42.7672 29.9438 42.7539 30.0179 42.7117 30.0615C42.5646 30.2133 42.4039 30.3526 42.2638 30.5107C42.2113 30.5841 42.1753 30.6681 42.1584 30.7569C42.1357 30.8382 42.1417 30.9274 42.1193 31.0088C42.0931 31.0945 42.0588 31.1776 42.0168 31.2569C42.0086 31.2733 41.9685 31.276 41.9423 31.2808C41.9027 31.2818 41.8634 31.2879 41.8254 31.2988C41.6383 31.3916 41.5533 31.2928 41.5199 31.15C41.4804 30.9802 41.4437 30.8105 41.484 30.6268C41.5025 30.4965 41.4927 30.3637 41.4552 30.2375C41.4381 30.1648 41.3555 30.1102 41.3221 30.0382C41.2677 29.9212 41.149 29.8733 41.0739 29.7807C41.0365 29.7347 41.0066 29.6828 40.9656 29.6222C40.8675 29.6165 40.7979 29.5387 40.7237 29.4539C40.657 29.3781 40.4936 29.457 40.4651 29.3296C40.43 29.3335 40.3921 29.3501 40.3678 29.3385C40.1813 29.2486 40.1068 28.932 40.2373 28.7695C40.2737 28.7225 40.3263 28.6907 40.3848 28.6804C40.5585 28.6693 40.7334 28.6762 40.9079 28.6762C40.9772 28.6208 41.0563 28.5558 41.1375 28.4935C41.2236 28.4276 41.3158 28.3677 41.2938 28.2346C41.2887 28.1987 41.2949 28.162 41.3117 28.1299C41.4811 27.8049 41.5968 27.4547 41.6544 27.0928C41.6755 26.9809 41.9134 26.8323 42.0338 26.8472C42.1858 26.8662 42.2853 26.9979 42.2899 27.1663C42.2928 27.2735 42.2691 27.376 42.2991 27.4907C42.3318 27.6158 42.4137 27.6897 42.4812 27.7802C42.543 27.8593 42.6098 27.9342 42.6811 28.0048C42.765 28.0911 42.8525 28.1734 42.9387 28.2575C42.9415 28.2603 42.9431 28.265 42.9464 28.2664C43.0681 28.3212 43.1894 28.3772 43.3121 28.4297C43.3647 28.453 43.4192 28.4714 43.4752 28.4848C43.5773 28.5075 43.6804 28.5285 43.7841 28.5413C43.9537 28.5622 44.1246 28.7655 44.0836 28.9205C44.0576 28.977 44.0203 29.0276 43.9741 29.0692C43.9398 29.1173 43.8989 29.1603 43.8526 29.1969C43.7114 29.2895 43.5669 29.3778 43.4184 29.4582C43.3802 29.4709 43.3395 29.4743 43.2997 29.4682ZM41.3891 29.2436C41.4156 29.2987 41.4477 29.3509 41.485 29.3994C41.5799 29.5036 41.6547 29.628 41.7812 29.7029C41.8056 29.723 41.8235 29.7497 41.8329 29.7799C41.8814 29.8954 41.9303 29.9138 42.0267 29.8388C42.0718 29.7976 42.1141 29.7532 42.1531 29.7062C42.2449 29.6113 42.3342 29.5138 42.4312 29.4247C42.4631 29.3953 42.5233 29.3978 42.5574 29.3697C42.6709 29.276 42.7802 29.177 42.8871 29.0762C42.917 29.0413 42.9431 29.0033 42.9649 28.9628C42.9197 28.9333 42.8747 28.9033 42.829 28.8746C42.7495 28.8249 42.666 28.7807 42.5906 28.7256C42.5231 28.6738 42.459 28.6177 42.3989 28.5575C42.3168 28.4791 42.2342 28.4004 42.1587 28.3157C42.1106 28.2562 42.0659 28.1939 42.0249 28.1293L41.8738 28.356C41.9277 28.3904 41.9098 28.4302 41.8738 28.5074C41.8163 28.6311 41.802 28.7745 41.6927 28.8745C41.675 28.891 41.6633 28.913 41.6597 28.9369C41.6503 29.0267 41.604 29.0626 41.5453 29.0485L41.3891 29.2436Z" fill="#FF0D0D"/>
<path d="M40.836 34.7261L40.795 34.8316C40.7504 34.7964 40.6892 34.7717 40.6709 34.7292C40.6071 34.592 40.5577 34.4486 40.5235 34.3013C40.5023 34.1935 40.531 34.0765 40.5325 33.9636C40.5398 33.8072 40.537 33.6506 40.524 33.4946C40.5201 33.4621 40.4171 33.4236 40.3571 33.4184C40.1225 33.3981 40.122 33.4027 39.912 33.286L39.9613 33.1622C39.9337 33.1125 39.8966 33.0759 39.9019 33.0469C39.9081 33.0284 39.9185 33.0115 39.9322 32.9976C39.946 32.9836 39.9628 32.9731 39.9813 32.9667C40.0841 32.9387 40.191 32.9265 40.295 32.9023C40.3701 32.8848 40.4431 32.8581 40.4979 32.8413C40.5255 32.6796 40.471 32.5266 40.6063 32.415C40.6158 32.4071 40.5808 32.3454 40.5494 32.3096C40.6017 32.1586 40.6472 31.9862 40.8419 31.9323C40.8707 31.9222 40.9018 31.9208 40.9314 31.9285C41.1422 32.0107 41.1418 32.0188 41.1513 32.2619C41.1589 32.4605 41.1577 32.576 41.2639 32.7935C41.2811 32.7792 41.2978 32.7535 41.3123 32.7547C41.5294 32.7734 41.7537 32.7191 41.9629 32.8196C42.0121 32.8375 42.0537 32.8715 42.0811 32.916C42.1086 32.9605 42.1202 33.0129 42.1142 33.0648C42.1022 33.1701 42.0917 33.2798 41.9493 33.3117C41.7476 33.3568 41.5481 33.414 41.3504 33.4746C41.3318 33.484 41.3158 33.4979 41.3038 33.515C41.2919 33.5321 41.2844 33.5519 41.282 33.5726C41.2947 33.7523 41.3192 33.9308 41.3394 34.1098C41.3425 34.1373 41.357 34.1799 41.3449 34.1899C41.2518 34.2675 41.3045 34.3792 41.273 34.4654C41.2187 34.6137 41.1801 34.788 40.9747 34.8193C40.8853 34.8329 40.8718 34.8332 40.836 34.7261Z" fill="#FF0D0D"/>
<path d="M33.9653 17.6454C34.0278 17.7035 34.0171 17.7797 33.9766 17.8696C33.9214 17.9923 33.8984 18.1277 33.7664 18.2071C33.703 18.2453 33.6553 18.2898 33.5833 18.235C33.5787 18.2311 33.5734 18.2282 33.5676 18.2265C33.5619 18.2248 33.5558 18.2244 33.5499 18.2251C33.4355 18.2686 33.3808 18.1941 33.3156 18.1202C33.2528 18.0541 33.2149 17.9683 33.2085 17.8773C33.1983 17.7519 33.1503 17.6293 33.1426 17.504C33.1327 17.3463 33.1471 17.1871 33.1506 17.0285C33.1544 16.8515 33.1583 16.6744 33.1612 16.4974C33.1635 16.3601 33.1684 16.2227 33.1648 16.0855C33.1611 15.9442 33.1312 15.8013 33.1448 15.6623C33.1601 15.5108 33.1961 15.3622 33.2517 15.2206C33.3013 15.0945 33.6642 15.0705 33.7746 15.1738C33.8199 15.2161 33.8611 15.2627 33.9036 15.3078C33.914 15.3188 33.9325 15.335 33.9298 15.3431C33.8907 15.4615 33.9861 15.5735 33.9357 15.6992C33.9064 15.7728 33.9298 15.8686 33.9338 15.9542C33.9458 16.1975 33.9594 16.4406 33.9747 16.6835C33.9824 16.8061 33.9977 16.9281 34.0046 17.0507C34.0067 17.0872 33.9853 17.1249 33.9867 17.1617C33.9909 17.2943 34.0018 17.4267 34.006 17.5593C34.0067 17.5809 33.9861 17.6032 33.9653 17.6454Z" fill="#FF0D0D"/>
<path d="M47.8044 31.1968C47.8868 31.0338 47.9696 31.1388 48.0414 31.1533C48.1551 31.1767 48.2657 31.2133 48.3708 31.2625C48.4592 31.3035 48.5338 31.6092 48.468 31.6582C48.3521 31.7446 48.3528 31.9154 48.1856 31.9775C48.1287 31.9733 48.04 31.9709 47.9525 31.9595C47.8081 31.9403 47.6639 31.9181 47.5205 31.8916C47.3892 31.8677 47.2588 31.8377 47.1287 31.8069C47.0774 31.7949 47.0479 31.7375 46.9757 31.755C46.9314 31.7657 46.8296 31.7467 46.7735 31.7577C46.7304 31.7621 46.6868 31.7607 46.644 31.7536C46.5656 31.7404 46.4862 31.7333 46.4067 31.7324C46.3021 31.7391 46.1911 31.644 46.088 31.5955C45.9973 31.5725 45.9084 31.5282 45.8217 31.5331C45.678 31.5411 45.6151 31.4241 45.5201 31.3634C45.4749 31.3346 45.4689 31.2337 45.4597 31.1635C45.454 31.1216 45.4855 31.0752 45.4843 31.0313C45.4803 30.8856 45.5202 30.8079 45.6608 30.797C45.8741 30.7819 46.0882 30.7809 46.3016 30.7942C46.4146 30.8006 46.5244 30.851 46.6376 30.8704C46.703 30.8815 46.773 30.8636 46.8395 30.8711C46.9118 30.8791 47.0114 30.8594 47.0067 30.9862C47.0064 30.9947 47.028 31.0042 47.0394 31.0128L47.0807 30.9349C47.2492 30.9783 47.441 30.9446 47.6036 31.0515C47.6218 31.0603 47.6426 31.0626 47.6623 31.0579C47.7451 31.0423 47.8027 31.0624 47.8044 31.1968Z" fill="#FF0D0D"/>
<path d="M43.0018 22.8037C42.946 22.7901 42.9092 22.7914 42.9024 22.7778C42.8457 22.664 42.6984 22.6125 42.6907 22.4664C42.6898 22.4506 42.6815 22.4324 42.6869 22.4196C42.7364 22.3021 42.732 22.1528 42.8326 22.0701C42.8892 22.0236 42.9628 21.9931 43.01 21.9298C43.046 21.8811 43.0807 21.831 43.1193 21.7844C43.2225 21.6602 43.305 21.4926 43.4375 21.4254C43.6052 21.3404 43.6711 21.1779 43.8068 21.0761C43.9285 20.9845 44.0313 20.8594 44.1645 20.794C44.2808 20.7371 44.4271 20.7355 44.5614 20.7235C44.6606 20.7147 44.7673 20.7151 44.811 20.8398C44.8581 20.9742 44.8919 21.0914 44.7969 21.2375C44.6838 21.4004 44.5448 21.5438 44.3854 21.6618C44.3146 21.7187 44.2698 21.8069 44.2034 21.8706C44.0986 21.9713 43.9845 22.0623 43.8764 22.1598C43.8311 22.2005 43.7919 22.2479 43.748 22.2904C43.6968 22.3456 43.641 22.3966 43.5813 22.4427C43.4855 22.5086 43.4153 22.6048 43.3231 22.6675C43.2213 22.7246 43.1136 22.7703 43.0018 22.8037Z" fill="#FF0D0D"/>
<path d="M32.9978 43.822C32.9827 43.8569 32.9752 43.8741 32.967 43.8928C33.1167 43.8468 33.2185 43.9203 33.2341 44.0718C33.2672 44.3989 33.2465 44.7267 33.2551 45.0541C33.2591 45.2087 33.3 45.3627 33.2997 45.517C33.298 45.6921 33.2822 45.8668 33.2524 46.0394C33.2267 46.1831 33.1878 46.3242 33.1362 46.4607C33.1137 46.5321 33.0675 46.5937 33.0054 46.6353C32.7711 46.7548 32.5473 46.6007 32.5432 46.3338C32.5414 46.22 32.5214 46.1062 32.5142 45.992C32.5075 45.9408 32.5107 45.8887 32.5237 45.8387C32.5716 45.7002 32.4408 45.5976 32.4649 45.4554C32.4942 45.2817 32.4492 45.095 32.481 44.9224C32.5187 44.7174 32.5003 44.5139 32.5187 44.3107C32.5259 44.2328 32.4854 44.1325 32.6046 44.0969C32.6137 44.0942 32.6177 44.0707 32.622 44.0563C32.6346 43.9975 32.6674 43.945 32.7146 43.9078C32.7619 43.8706 32.8206 43.8511 32.8807 43.8526C32.9207 43.8463 32.9599 43.8361 32.9978 43.822Z" fill="#FF0D0D"/>
<path d="M17.4678 31.2185C17.5678 31.153 17.6842 31.1826 17.8071 31.2299C17.8824 31.2691 17.9692 31.28 18.0519 31.2609C18.1262 31.2392 18.2218 31.2718 18.3029 31.2968C18.4392 31.3298 18.5709 31.3793 18.6952 31.4443C18.9611 31.6054 18.9827 31.7416 18.7562 32.0044C18.6475 32.1302 18.4978 32.0913 18.3609 32.0989C18.229 32.111 18.0964 32.1127 17.9642 32.1041C17.8442 32.0861 17.726 32.0578 17.6109 32.0196C17.478 31.9752 17.3428 31.9385 17.2057 31.9097C17.0115 31.8779 16.7906 31.8714 16.6507 31.6734C16.5465 31.526 16.5683 31.2887 16.7245 31.2022C16.7634 31.1885 16.8048 31.183 16.846 31.1862C17.0018 31.1777 17.1569 31.1667 17.3125 31.1655C17.3665 31.1756 17.4189 31.1934 17.4678 31.2185Z" fill="#FF0D0D"/>
<path d="M44.008 41.8848C44.0613 42.0305 43.8987 42.0544 43.8426 42.1449C43.8051 42.197 43.7644 42.2467 43.7209 42.2939C43.5621 42.261 43.3922 42.2212 43.2514 42.0826C43.1256 41.9589 42.9699 41.8663 42.8388 41.7472C42.7829 41.684 42.7372 41.6125 42.7033 41.5352C42.6 41.3499 42.4985 41.1634 42.3988 40.976C42.3912 40.9576 42.39 40.9371 42.3955 40.9179C42.4223 40.8122 42.5872 40.7206 42.6861 40.7688C42.8038 40.8259 42.91 40.9065 43.026 40.9678C43.1834 41.0511 43.3507 41.1167 43.5034 41.2074C43.6039 41.2587 43.6892 41.3354 43.7509 41.4298C43.8259 41.5736 43.9503 41.6482 44.065 41.7419C44.0924 41.771 44.1159 41.8036 44.1349 41.8387L44.008 41.8848Z" fill="#FF0D0D"/>
<path d="M21.6525 40.2146C21.6705 40.2549 21.6811 40.2787 21.6821 40.2809C21.585 40.4002 21.4949 40.5059 21.4105 40.6158C21.2849 40.793 21.1072 40.9267 20.9021 40.9982C20.8889 41.0044 20.8775 41.0141 20.8694 41.0264C20.7653 41.1598 20.6421 41.1962 20.4756 41.1388C20.4097 41.1161 20.3248 41.1048 20.2865 41.0575C20.2482 41.0103 20.2475 40.924 20.2461 40.8546C20.2438 40.8047 20.2585 40.7555 20.2877 40.7151C20.417 40.5668 20.5523 40.4237 20.6907 40.2838C20.7278 40.2577 20.769 40.238 20.8127 40.2258C20.8137 40.19 20.8201 40.1547 20.8314 40.1207C20.8696 40.0429 20.9157 39.9683 20.9601 39.8932C20.9687 39.875 20.9821 39.8595 20.9988 39.8483C21.2045 39.7456 21.4165 39.6843 21.6444 39.7704C21.6879 39.7871 21.7263 39.8147 21.756 39.8506C21.7858 39.8865 21.8058 39.9293 21.8141 39.9752C21.8225 40.021 21.8189 40.0682 21.8037 40.1122C21.7886 40.1563 21.7624 40.1957 21.7276 40.2266C21.7178 40.2345 21.6913 40.2218 21.6525 40.2146Z" fill="#FF0D0D"/>
<path d="M30.9063 24.9798C30.9798 25.2916 31.0399 25.6034 30.9754 25.9268C30.9655 25.9937 30.9324 26.055 30.8819 26.1C30.8313 26.145 30.7666 26.1708 30.699 26.1729C30.586 26.1672 30.5026 26.0535 30.4957 25.9048C30.4966 25.7594 30.4863 25.6141 30.4649 25.4702C30.4392 25.3445 30.4397 25.2171 30.4076 25.0906C30.3735 24.9566 30.4173 24.8047 30.4047 24.6625C30.3981 24.5883 30.4227 24.5704 30.4786 24.5567C30.6935 24.5042 30.8614 24.6803 30.813 24.901C30.8076 24.9256 30.8479 24.9601 30.8669 24.99L30.9063 24.9798Z" fill="#FF0D0D"/>
<path d="M36.276 25.3227C36.1945 25.3458 36.1146 25.3741 36.0368 25.4075C35.9324 25.4594 35.8403 25.5116 35.71 25.4717C35.6257 25.4459 35.5237 25.4808 35.4296 25.4832C35.3436 25.4854 35.2573 25.4822 35.1714 25.478C35.0172 25.4704 34.8599 25.467 34.7236 25.3841C34.6798 25.349 34.6408 25.3083 34.6077 25.2631C34.6526 25.2165 34.7033 25.1757 34.7584 25.1417C34.8313 25.1158 34.9061 25.0955 34.9822 25.0811C35.0413 25.0558 35.1074 25.0523 35.1689 25.0713C35.2536 25.1001 35.3636 25.0569 35.4623 25.0417C35.5011 25.0357 35.5392 25.009 35.5765 25.0111C35.8196 25.0254 36.0623 25.0482 36.3055 25.0613C36.3267 25.0603 36.3478 25.0642 36.3673 25.0726C36.3867 25.081 36.404 25.0938 36.4178 25.1099C36.4315 25.1261 36.4414 25.1451 36.4467 25.1657C36.452 25.1862 36.4525 25.2077 36.4482 25.2285C36.4413 25.2764 36.3505 25.3123 36.2974 25.3536L36.276 25.3227Z" fill="#FF0D0D"/>
<defs>
<filter id="filter0_d_16481_2291" x="0.000244141" y="0" width="70" height="70" filterUnits="userSpaceOnUse" color-interpolation-filters="sRGB">
<feFlood flood-opacity="0" result="BackgroundImageFix"/>
<feColorMatrix in="SourceAlpha" type="matrix" values="0 0 0 0 0 0 0 0 0 0 0 0 0 0 0 0 0 0 127 0" result="hardAlpha"/>
<feOffset dy="4"/>
<feGaussianBlur stdDeviation="2"/>
<feComposite in2="hardAlpha" operator="out"/>
<feColorMatrix type="matrix" values="0 0 0 0 0 0 0 0 0 0 0 0 0 0 0 0 0 0 0.25 0"/>
<feBlend mode="normal" in2="BackgroundImageFix" result="effect1_dropShadow_16481_2291"/>
<feBlend mode="normal" in="SourceGraphic" in2="effect1_dropShadow_16481_2291" result="shape"/>
</filter>
</defs>
</svg>
