<svg width="70" height="70" viewBox="0 0 70 70" fill="none" xmlns="http://www.w3.org/2000/svg">
<g filter="url(#filter0_d_16481_1416)">
<circle cx="35.0002" cy="31" r="31" fill="white"/>
</g>
<g opacity="0.2">
<path fill-rule="evenodd" clip-rule="evenodd" d="M39.711 43.0757C45.5411 43.0757 50.2672 43.8218 50.2672 44.7419C50.2672 45.6621 45.5411 46.4082 39.711 46.4082C33.881 46.4082 29.1548 45.6621 29.1548 44.7419C29.1548 43.8218 33.881 43.0757 39.711 43.0757Z" fill="#3D0076"/>
</g>
<path fill-rule="evenodd" clip-rule="evenodd" d="M28.0864 36.1002C28.925 39.2566 31.031 40.5948 34.4201 40.2632C35.8604 40.1223 36.7539 40.3083 37.0885 40.6723C31.0702 48.0985 46.1683 45.6835 48.0298 38.9999C48.4818 37.4104 47.7856 36.7251 46.0908 36.2422C45.5072 36.076 45.4595 35.2311 45.6105 34.3566C47.0213 32.7027 47.1755 30.9473 46.0731 29.0902C48.1068 28.8232 49.4115 28.3131 49.9872 27.56C50.4268 26.7346 50.3914 25.7714 49.9516 24.6422C48.1256 19.9548 47.2476 17.5971 47.2476 17.5971C47.8026 17.194 47.6366 16.4765 46.7496 15.4444C46.4479 15.3238 46.0091 15.2435 45.4333 15.2491C40.7719 15.2932 38.4416 15.338 38.4416 15.338C36.8635 16.3099 35.5469 17.1223 34.4919 17.7753C34.2265 17.9232 34.1376 18.3087 34.2251 18.9318C30.3305 17.6985 27.7769 18.1398 27.18 20.4442C26.8626 21.6697 28.9844 23.2478 32.9087 25.0699C31.6409 24.9506 29.85 24.9149 27.5358 24.963C24.9211 24.9409 24.387 27.1567 26.6818 27.4362C30.6982 27.9249 33.4691 28.3062 35.0435 28.2187C33.0328 29.7385 27.8652 33.2404 28.0864 36.1002Z" fill="white"/>
<path d="M38.3065 45.4852C36.977 45.4852 36.0242 45.1023 35.6325 44.3897C35.1496 43.5112 35.5212 42.2758 36.7368 40.7152C36.462 40.5626 35.8305 40.3758 34.4447 40.5112C32.6929 40.6825 31.2515 40.4092 30.1612 39.6985C29.0568 38.9786 28.2778 37.7896 27.846 36.1643C27.8422 36.1497 27.8396 36.1347 27.8384 36.1196C27.7447 34.9078 28.4937 33.5248 30.128 31.8915C31.4556 30.5649 33.0668 29.3739 34.2433 28.5043C34.2555 28.4952 34.2677 28.4862 34.2799 28.4772C32.8554 28.4465 30.7882 28.192 28.0992 27.861C27.6362 27.804 27.1538 27.7448 26.6521 27.6836C25.3636 27.5267 24.9487 26.8205 24.9848 26.2635C25.035 25.49 25.9138 24.714 27.4972 24.714C27.5096 24.714 27.522 24.714 27.5345 24.7141C29.1515 24.6808 30.5259 24.6885 31.6405 24.7369C28.1254 22.9852 26.6264 21.5904 26.9393 20.382C27.1604 19.5284 27.637 18.894 28.3558 18.4963C29.5827 17.8176 31.4621 17.8478 33.945 18.5854C33.93 18.0663 34.0689 17.7295 34.3656 17.561C35.4532 16.888 36.7807 16.0688 38.3114 15.1262C38.3493 15.1028 38.3927 15.0901 38.4372 15.0892C38.4605 15.0888 40.822 15.0439 45.4312 15.0003C45.9922 14.9951 46.4801 15.0685 46.8424 15.2134C46.8796 15.2282 46.9127 15.2519 46.9388 15.2823C47.582 16.0306 47.8671 16.6301 47.8103 17.115C47.7871 17.326 47.6924 17.5226 47.542 17.6724C47.7703 18.281 48.644 20.5986 50.184 24.552C50.6637 25.7837 50.6713 26.806 50.2073 27.6772C50.201 27.6892 50.1936 27.7007 50.1854 27.7115C49.5983 28.4796 48.3801 28.996 46.4676 29.2863C47.4128 31.0999 47.2042 32.8403 45.8453 34.4653C45.771 34.9299 45.6841 35.8677 46.1594 36.003C47.5921 36.4112 48.8393 37.0651 48.2698 39.0683C47.6888 41.1542 45.9696 42.6085 44.6298 43.4609C43.0138 44.4889 41.0006 45.2244 39.2447 45.428C38.9333 45.465 38.62 45.4841 38.3065 45.4852ZM35.328 39.9664C36.281 39.9664 36.9454 40.1484 37.2722 40.504C37.3127 40.548 37.3359 40.6051 37.3378 40.6648C37.3396 40.7245 37.3199 40.7829 37.2823 40.8293C36.0979 42.2908 35.6783 43.439 36.069 44.1497C36.4395 44.8238 37.6051 45.1166 39.1873 44.9332C42.6323 44.5336 46.9011 42.1261 47.7903 38.9333C48.1735 37.5859 47.7274 36.9676 46.023 36.482C45.5743 36.3542 45.096 35.8745 45.3655 34.3144C45.3731 34.2704 45.3924 34.2292 45.4214 34.1952C46.7677 32.617 46.911 30.9889 45.8593 29.2176C45.8383 29.1821 45.8264 29.142 45.8246 29.1008C45.8229 29.0597 45.8314 29.0187 45.8495 28.9816C45.8675 28.9445 45.8944 28.9125 45.9278 28.8884C45.9613 28.8643 46.0002 28.8489 46.0411 28.8435C47.9821 28.5887 49.239 28.1114 49.7774 27.4249C50.1592 26.693 50.1403 25.8121 49.7199 24.7328C47.9141 20.0972 47.0234 17.7078 47.0146 17.6842C46.9956 17.6332 46.9939 17.5774 47.0096 17.5253C47.0253 17.4733 47.0576 17.4278 47.1017 17.3958C47.2317 17.3013 47.2997 17.1937 47.3157 17.0572C47.342 16.8321 47.2379 16.4071 46.602 15.6548C46.3819 15.5759 46.0128 15.4927 45.4361 15.4983C41.2606 15.5378 38.9313 15.5783 38.5147 15.5859C37.0067 16.5146 35.6977 17.3224 34.6234 17.9872C34.6201 17.9892 34.6169 17.9911 34.6136 17.9929C34.453 18.0824 34.4028 18.4036 34.4721 18.8973C34.478 18.939 34.4732 18.9815 34.4582 19.0208C34.4432 19.0601 34.4184 19.095 34.3863 19.1221C34.3541 19.1493 34.3156 19.1679 34.2744 19.1761C34.2331 19.1844 34.1904 19.1821 34.1503 19.1694C31.6615 18.3812 29.7411 18.2992 28.5969 18.9321C28.0024 19.261 27.607 19.7908 27.4214 20.5069C27.2378 21.2157 28.059 22.5436 33.014 24.8442C33.0672 24.8689 33.11 24.9117 33.1348 24.9649C33.1596 25.0181 33.1648 25.0784 33.1495 25.1351C33.1341 25.1918 33.0992 25.2413 33.051 25.2747C33.0027 25.3082 32.9442 25.3235 32.8857 25.318C31.6344 25.2002 29.8362 25.1645 27.5414 25.2122C27.5389 25.2122 27.5368 25.2123 27.5341 25.2122C27.5218 25.2121 27.5096 25.212 27.4974 25.212C26.2335 25.212 25.5161 25.7674 25.4818 26.2958C25.4527 26.7439 25.9357 27.0945 26.7122 27.1891C27.2142 27.2502 27.6968 27.3094 28.16 27.3666C31.3616 27.7607 33.6747 28.0455 35.03 27.9702C35.0833 27.9673 35.1362 27.9815 35.1807 28.0108C35.2253 28.0402 35.2593 28.0831 35.2777 28.1332C35.296 28.1833 35.2978 28.238 35.2828 28.2892C35.2677 28.3404 35.2366 28.3854 35.194 28.4176C35.0015 28.563 34.777 28.729 34.5392 28.9048C32.3114 30.5516 28.1703 33.6124 28.3333 36.0589C29.1341 39.0421 31.1181 40.3362 34.3961 40.0155C34.7317 39.9827 35.0423 39.9663 35.328 39.9664H35.328Z" fill="#390176"/>
<path d="M30.2927 37.4568C29.3535 37.4568 28.6602 37.2138 28.2636 36.7391C27.9883 36.4098 27.7286 35.8028 28.0541 34.7813C28.0636 34.7495 28.0792 34.72 28.1002 34.6944C28.1212 34.6688 28.1471 34.6476 28.1764 34.6321C28.2056 34.6166 28.2377 34.6071 28.2707 34.6042C28.3037 34.6012 28.3369 34.6049 28.3685 34.6149C28.4 34.625 28.4292 34.6412 28.4544 34.6627C28.4796 34.6842 28.5003 34.7105 28.5152 34.74C28.5301 34.7696 28.539 34.8018 28.5413 34.8349C28.5436 34.8679 28.5393 34.9011 28.5287 34.9324C28.3225 35.5797 28.3619 36.08 28.6457 36.4198C29.0359 36.8867 29.9069 37.058 31.0975 36.9025C34.6386 36.4396 38.516 34.6891 43.2998 31.3936C44.4758 30.5834 45.571 29.7666 45.6215 29.2807C45.6281 29.2169 45.6215 29.1289 45.5111 29.0127C45.4663 28.9647 45.4423 28.9009 45.4443 28.8353C45.4462 28.7697 45.474 28.7076 45.5216 28.6623C45.5691 28.6171 45.6326 28.5925 45.6983 28.5938C45.7639 28.5951 45.8263 28.6223 45.872 28.6694C46.0597 28.8668 46.1421 29.0898 46.1169 29.3322C46.0486 29.9889 45.1734 30.7075 43.5824 31.8038C38.7311 35.1458 34.7844 36.9229 31.162 37.3963C30.8739 37.4352 30.5835 37.4554 30.2927 37.4568Z" fill="#390176"/>
<path d="M46.3934 29.285C45.4913 29.285 44.7573 28.5508 44.7573 27.6484C44.7573 26.746 45.4913 26.0115 46.3934 26.0115C47.2956 26.0115 48.0297 26.7458 48.0297 27.6484C48.0297 28.5509 47.2957 29.285 46.3934 29.285ZM46.3934 26.5096C46.1682 26.5095 45.948 26.5762 45.7607 26.7012C45.5734 26.8263 45.4274 27.0041 45.3411 27.2121C45.2548 27.4202 45.2322 27.6491 45.2761 27.87C45.32 28.0909 45.4284 28.2939 45.5876 28.4532C45.7468 28.6125 45.9496 28.721 46.1705 28.7649C46.3914 28.8089 46.6204 28.7864 46.8285 28.7003C47.0366 28.6141 47.2144 28.4682 47.3396 28.281C47.4647 28.0937 47.5316 27.8736 47.5316 27.6484C47.5313 27.3465 47.4114 27.0571 47.198 26.8436C46.9846 26.6301 46.6953 26.51 46.3934 26.5096Z" fill="#390176"/>
<path d="M31.2677 36.3127C30.5296 36.3127 29.989 36.0987 29.7062 35.6689C29.2275 34.9413 29.6492 33.8342 30.8342 32.7075C33.8888 29.8025 36.5653 28.1246 38.9414 27.6351C37.4552 27.5297 36.1954 27.795 35.1754 28.4304C35.1476 28.4483 35.1166 28.4604 35.0841 28.4662C35.0516 28.472 35.0182 28.4712 34.986 28.464C34.9538 28.4568 34.9233 28.4432 34.8964 28.4241C34.8694 28.405 34.8466 28.3807 34.8291 28.3527C34.8117 28.3246 34.8 28.2934 34.7947 28.2608C34.7894 28.2282 34.7907 28.1949 34.7984 28.1628C34.8061 28.1306 34.8201 28.1004 34.8397 28.0738C34.8592 28.0471 34.8838 28.0246 34.9121 28.0076C36.5445 26.9907 38.7144 26.8422 41.3709 27.5633C41.3784 27.565 41.3856 27.567 41.3927 27.5693C41.6577 27.6416 41.9276 27.7226 42.2023 27.8122C43.4702 28.226 44.0676 28.6421 44.1392 29.1613C44.2191 29.7409 43.5944 30.2321 43.1175 30.5511C42.9268 30.6786 42.7215 30.8175 42.5016 30.9678C40.7951 32.1283 38.2162 33.882 34.3415 35.5367C33.1319 36.0533 32.0801 36.3126 31.2677 36.3127ZM40.3967 27.9837C39.2569 27.9837 38.018 28.312 36.7011 28.9643C35.028 29.7931 33.1695 31.1739 31.1774 33.0684C30.211 33.9873 29.7969 34.9006 30.1224 35.3952C30.4544 35.9 31.7076 36.1199 34.1459 35.0786C37.9761 33.4429 40.531 31.7056 42.2215 30.5559C42.4428 30.4054 42.6492 30.2658 42.8406 30.1371C43.5446 29.6661 43.667 29.3835 43.6457 29.2294C43.6179 29.0277 43.3181 28.7003 42.0477 28.2857C41.7809 28.1986 41.5191 28.12 41.2622 28.0499C40.9758 28.0054 40.6864 27.9833 40.3967 27.9837Z" fill="#390176"/>
<path d="M30.6842 36.2518C30.6432 36.2519 30.6028 36.2418 30.5666 36.2224C30.5304 36.2031 30.4995 36.1751 30.4768 36.141C30.2726 35.8351 30.208 35.4897 30.2847 35.1147C30.5363 33.8841 32.355 32.2403 36.366 29.6185C38.1828 28.4307 40.0903 28.171 42.1978 28.8242C42.7964 29.0099 43.1307 29.2967 43.1913 29.6768C43.2672 30.1526 42.9038 30.6679 42.0802 31.2522C42.0264 31.2904 41.9595 31.3057 41.8944 31.2946C41.8293 31.2835 41.7712 31.247 41.733 31.1932C41.6948 31.1393 41.6795 31.0724 41.6906 31.0073C41.7016 30.9422 41.7381 30.8841 41.792 30.8459C42.6689 30.224 42.7188 29.876 42.6995 29.7553C42.672 29.5829 42.4415 29.4212 42.0503 29.2999C40.0662 28.6849 38.3467 28.9187 36.6385 30.0353C32.8012 32.5437 30.9922 34.141 30.7726 35.2145C30.7229 35.4579 30.7616 35.6706 30.8911 35.8646C30.9161 35.9021 30.9305 35.9456 30.9327 35.9907C30.9349 36.0357 30.9248 36.0804 30.9036 36.1202C30.8824 36.1599 30.8507 36.1932 30.8121 36.2164C30.7735 36.2395 30.7292 36.2518 30.6842 36.2519V36.2518Z" fill="#390176"/>
<path fill-rule="evenodd" clip-rule="evenodd" d="M41.3598 31.4373C40.5304 29.997 36.831 31.7127 35.2178 34.8775C37.8816 33.6617 39.8782 32.4215 41.3598 31.4373Z" fill="#390176"/>
<path d="M35.2171 35.1263C35.1745 35.1263 35.1326 35.1153 35.0954 35.0945C35.0582 35.0737 35.027 35.0437 35.0047 35.0073C34.9825 34.971 34.9699 34.9296 34.9682 34.887C34.9665 34.8444 34.9758 34.8021 34.9952 34.7641C36.2573 32.288 38.7051 30.7128 40.2492 30.6733C40.8644 30.6585 41.3249 30.8786 41.5749 31.3127C41.6064 31.3676 41.616 31.4324 41.6015 31.494C41.587 31.5556 41.5496 31.6094 41.4968 31.6445C40.063 32.5969 38.0653 33.851 35.3205 35.1038C35.288 35.1186 35.2528 35.1263 35.2171 35.1263ZM40.311 31.1706C40.2949 31.1706 40.2785 31.1708 40.2619 31.1712C39.0005 31.2035 37.0433 32.4462 35.8288 34.3163C38.0432 33.2559 39.7273 32.2139 40.9944 31.3797C40.8343 31.2407 40.6055 31.1706 40.311 31.1706Z" fill="#390176"/>
<path d="M38.4421 27.6118C38.4333 27.6118 38.4244 27.6114 38.4156 27.6104C34.9447 27.2422 31.276 26.9417 26.52 26.6362C26.4543 26.6317 26.3931 26.6013 26.3497 26.5517C26.3063 26.5022 26.2844 26.4374 26.2886 26.3717C26.2928 26.306 26.3229 26.2446 26.3723 26.201C26.4216 26.1575 26.4863 26.1352 26.552 26.1391C31.315 26.4451 34.9901 26.7461 38.4681 27.1151C38.5315 27.1219 38.5899 27.1527 38.6312 27.2011C38.6726 27.2496 38.6938 27.3121 38.6905 27.3758C38.6872 27.4394 38.6596 27.4994 38.6134 27.5433C38.5672 27.5872 38.5059 27.6118 38.4421 27.6118Z" fill="#390176"/>
<path d="M45.154 28.5173C45.1415 28.5173 45.1289 28.5164 45.1165 28.5145C41.9582 28.0376 39.7389 27.7342 38.5202 27.6126C38.4873 27.6098 38.4554 27.6004 38.4262 27.5851C38.397 27.5698 38.3711 27.5489 38.3501 27.5235C38.329 27.4981 38.3132 27.4688 38.3036 27.4373C38.294 27.4058 38.2907 27.3727 38.294 27.3398C38.2972 27.307 38.307 27.2752 38.3226 27.2462C38.3383 27.2172 38.3596 27.1916 38.3852 27.1709C38.4108 27.1501 38.4403 27.1347 38.472 27.1255C38.5036 27.1162 38.5368 27.1134 38.5695 27.117C39.7966 27.2394 42.0243 27.5438 45.1909 28.022C45.2531 28.0313 45.3094 28.0638 45.3486 28.1129C45.3878 28.162 45.407 28.2241 45.4023 28.2868C45.3976 28.3494 45.3694 28.408 45.3234 28.4508C45.2774 28.4935 45.2169 28.5173 45.154 28.5173Z" fill="#380072"/>
<path d="M45.2685 27.086H45.2644C42.1222 27.0353 37.8752 26.4324 32.6416 25.294C32.5777 25.2793 32.5223 25.24 32.4872 25.1846C32.4521 25.1293 32.4403 25.0624 32.4542 24.9983C32.4681 24.9343 32.5067 24.8784 32.5616 24.8426C32.6165 24.8068 32.6833 24.7942 32.7475 24.8073C37.949 25.9387 42.163 26.5378 45.2724 26.588C45.3379 26.5894 45.4001 26.6165 45.4457 26.6635C45.4913 26.7104 45.5166 26.7735 45.5161 26.8389C45.5156 26.9044 45.4893 26.967 45.4429 27.0133C45.3966 27.0595 45.3339 27.0856 45.2685 27.086V27.086Z" fill="#380072"/>
<path d="M45.2686 27.0863C45.2199 27.0863 45.1723 27.0719 45.1317 27.045C36.4166 21.2911 30.479 18.9481 27.4849 20.0815C27.4542 20.0934 27.4215 20.0991 27.3887 20.0983C27.3558 20.0975 27.3234 20.0902 27.2934 20.0768C27.2634 20.0634 27.2363 20.0442 27.2137 20.0203C27.1911 19.9964 27.1735 19.9683 27.1619 19.9375C27.1502 19.9068 27.1448 19.874 27.1459 19.8412C27.147 19.8083 27.1545 19.776 27.1682 19.7461C27.1818 19.7161 27.2012 19.6892 27.2253 19.6669C27.2494 19.6445 27.2777 19.6271 27.3085 19.6157C28.9046 19.0114 31.2475 19.3048 34.2713 20.4874C37.2525 21.6531 40.9987 23.7196 45.4061 26.6295C45.4508 26.659 45.4848 26.7021 45.5031 26.7525C45.5213 26.8029 45.5229 26.8578 45.5074 26.9091C45.492 26.9604 45.4604 27.0053 45.4174 27.0373C45.3744 27.0692 45.3222 27.0864 45.2686 27.0864L45.2686 27.0863Z" fill="#390176"/>
<path d="M46.3941 26.5097C46.359 26.5097 46.3242 26.5023 46.2921 26.4879C46.26 26.4735 46.2314 26.4524 46.208 26.4261C45.0602 25.1361 40.99 22.6892 34.1104 19.1535C34.0523 19.123 34.0086 19.0707 33.9889 19.0081C33.9691 18.9455 33.9748 18.8777 34.0048 18.8193C34.0348 18.7609 34.0867 18.7168 34.149 18.6964C34.2114 18.676 34.2793 18.6811 34.338 18.7105C41.3702 22.3246 45.3746 24.7401 46.5802 26.0951C46.6121 26.1309 46.633 26.1753 46.6403 26.2227C46.6476 26.2702 46.641 26.3187 46.6213 26.3626C46.6017 26.4064 46.5698 26.4436 46.5295 26.4696C46.4892 26.4957 46.4422 26.5096 46.3942 26.5097H46.3941Z" fill="#390176"/>
<path d="M34.4902 18.0246C34.4251 18.0245 34.3627 17.9989 34.3163 17.9533C34.2698 17.9077 34.2431 17.8458 34.2418 17.7807C34.2404 17.7157 34.2646 17.6527 34.3091 17.6052C34.3536 17.5577 34.4149 17.5296 34.4799 17.5268C39.5507 17.3134 42.2907 17.1982 42.6999 17.1812C46.4683 15.2758 46.6087 15.2288 46.6689 15.2087C46.7314 15.188 46.7996 15.1929 46.8586 15.2224C46.9175 15.2518 46.9623 15.3035 46.9833 15.3659C47.0042 15.4284 46.9996 15.4966 46.9703 15.5557C46.9411 15.6147 46.8896 15.6597 46.8272 15.6809C46.7316 15.7164 45.9664 16.0876 42.8765 17.65C42.8448 17.666 42.8101 17.6751 42.7746 17.6766C42.7746 17.6766 40.0167 17.7924 34.5008 18.0244C34.4973 18.0245 34.4937 18.0246 34.4902 18.0246Z" fill="#390176"/>
<path d="M46.3941 26.5095C46.3447 26.5095 46.2964 26.4948 46.2554 26.4673C46.2143 26.4398 46.1824 26.4007 46.1636 26.355L42.5343 17.522C42.5212 17.4916 42.5143 17.459 42.5139 17.4259C42.5136 17.3928 42.5198 17.36 42.5323 17.3294C42.5448 17.2988 42.5633 17.2709 42.5866 17.2475C42.6099 17.2241 42.6377 17.2056 42.6683 17.193C42.6989 17.1804 42.7317 17.1741 42.7648 17.1743C42.7978 17.1746 42.8305 17.1814 42.8609 17.1944C42.8913 17.2074 42.9188 17.2263 42.9418 17.2501C42.9648 17.2738 42.9829 17.3019 42.9949 17.3327L46.6243 26.1657C46.6398 26.2035 46.6458 26.2446 46.6417 26.2853C46.6376 26.3259 46.6236 26.365 46.6008 26.3989C46.5781 26.4329 46.5473 26.4608 46.5113 26.48C46.4752 26.4993 46.435 26.5094 46.3941 26.5095Z" fill="#390176"/>
<path d="M43.6618 19.5746L43.4482 19.1246L47.1401 17.372C47.1696 17.3579 47.2017 17.3499 47.2343 17.3482C47.267 17.3466 47.2997 17.3514 47.3305 17.3623C47.3613 17.3733 47.3896 17.3902 47.4139 17.4122C47.4382 17.4341 47.4579 17.4606 47.4719 17.4901C47.4859 17.5197 47.494 17.5517 47.4957 17.5843C47.4973 17.617 47.4925 17.6497 47.4816 17.6805C47.4706 17.7113 47.4537 17.7397 47.4317 17.7639C47.4098 17.7882 47.3833 17.8079 47.3538 17.8219L43.6618 19.5746Z" fill="#390176"/>
<path d="M35.5265 19.8552C35.4613 19.8549 35.3989 19.8291 35.3525 19.7833C35.3062 19.7374 35.2796 19.6753 35.2786 19.6101C35.2776 19.5449 35.3021 19.4819 35.347 19.4347C35.3919 19.3874 35.4536 19.3596 35.5187 19.3573L43.546 19.1009C43.579 19.0993 43.612 19.1043 43.643 19.1156C43.674 19.1269 43.7025 19.1443 43.7268 19.1667C43.751 19.1891 43.7706 19.2161 43.7843 19.2462C43.798 19.2762 43.8056 19.3087 43.8067 19.3417C43.8077 19.3747 43.8022 19.4076 43.7904 19.4384C43.7787 19.4693 43.7609 19.4975 43.7381 19.5214C43.7153 19.5453 43.688 19.5644 43.6578 19.5777C43.6276 19.591 43.595 19.5981 43.562 19.5987L35.5346 19.8551C35.5319 19.8552 35.5292 19.8552 35.5265 19.8552Z" fill="#380072"/>
<path d="M40.3998 38.0285C40.3439 38.0286 40.2896 38.0099 40.2457 37.9754C40.2017 37.9409 40.1706 37.8926 40.1574 37.8383C40.1442 37.784 40.1497 37.7268 40.1729 37.676C40.1961 37.6252 40.2358 37.5836 40.2855 37.5581C43.5031 35.8994 45.4097 34.5236 45.9522 33.4691C45.9828 33.4109 46.035 33.3671 46.0977 33.3473C46.1604 33.3275 46.2283 33.3332 46.2867 33.3633C46.3452 33.3934 46.3894 33.4453 46.4097 33.5078C46.43 33.5703 46.4247 33.6383 46.3951 33.6969C45.7959 34.8618 43.8721 36.2695 40.5138 38.0008C40.4785 38.019 40.4395 38.0285 40.3998 38.0285Z" fill="#390176"/>
<path d="M40.4171 41.9965C40.3584 41.9965 40.3015 41.9758 40.2566 41.9379C40.2116 41.9 40.1815 41.8475 40.1716 41.7896C40.1616 41.7317 40.1725 41.6721 40.2022 41.6214C40.2319 41.5707 40.2786 41.5322 40.334 41.5126C43.4835 40.3973 45.3099 39.1881 45.7625 37.9187C45.9754 37.3212 45.886 36.7128 45.4889 36.0585C45.456 36.0021 45.4465 35.935 45.4626 35.8717C45.4786 35.8083 45.5189 35.7539 45.5747 35.72C45.6306 35.6861 45.6975 35.6755 45.7611 35.6905C45.8247 35.7054 45.8798 35.7448 45.9146 35.8C46.3878 36.5796 46.4945 37.3487 46.2317 38.086C45.7192 39.5234 43.8444 40.7979 40.5003 41.9821C40.4736 41.9916 40.4455 41.9965 40.4171 41.9965Z" fill="#390176"/>
<path d="M38.3194 42.1652C38.275 42.1652 38.2315 42.1534 38.1932 42.1309C38.1549 42.1085 38.1233 42.0762 38.1017 42.0374C37.8146 41.5232 37.3093 41.0553 36.6 40.6468C36.5438 40.6133 36.5031 40.559 36.4866 40.4957C36.4701 40.4325 36.4791 40.3653 36.5118 40.3086C36.5444 40.2519 36.598 40.2104 36.661 40.1929C36.724 40.1754 36.7914 40.1834 36.8485 40.2152C37.6371 40.6693 38.205 41.2007 38.5366 41.7947C38.5577 41.8326 38.5686 41.8753 38.5681 41.9187C38.5676 41.9621 38.5558 42.0046 38.5339 42.042C38.512 42.0794 38.4806 42.1105 38.443 42.1321C38.4054 42.1537 38.3628 42.1651 38.3194 42.1652Z" fill="#390176"/>
<path d="M40.3121 17.1328C40.2036 17.1335 40.0954 17.122 39.9895 17.0986C39.6981 17.0321 39.4981 16.8672 39.4409 16.6464C39.3837 16.4256 39.4784 16.1844 39.7008 15.9847C39.883 15.8211 40.1418 15.6899 40.4297 15.6153H40.4299C41.1008 15.4416 41.6878 15.6226 41.7951 16.0363C41.9022 16.4503 41.4771 16.8936 40.8061 17.0675C40.6449 17.1099 40.4789 17.1319 40.3121 17.1328ZM40.5546 16.0974C40.3456 16.1516 40.1557 16.2456 40.0336 16.3553C39.9403 16.439 39.9186 16.5044 39.9231 16.5214C39.9276 16.5392 39.9771 16.5849 40.1004 16.6131C40.2604 16.6496 40.472 16.6395 40.6811 16.5854C41.1371 16.4671 41.3292 16.2239 41.313 16.1612C41.2968 16.0987 41.0111 15.9794 40.5546 16.0974Z" fill="#390176"/>
<path d="M46.3502 20.6096C46.3001 20.6096 46.2511 20.5945 46.2097 20.5662C46.1683 20.5379 46.1364 20.4977 46.1182 20.451C46.0627 20.3088 46.0615 20.1512 46.1149 20.0082C46.1684 19.8652 46.2726 19.747 46.4078 19.676C46.5429 19.6049 46.6995 19.586 46.8477 19.623C46.9958 19.6601 47.1251 19.7505 47.2108 19.8769C47.2349 19.9124 47.2494 19.9535 47.2529 19.9963C47.2564 20.0391 47.2488 20.0821 47.2309 20.121C47.2129 20.16 47.1852 20.1937 47.1503 20.2188C47.1155 20.2439 47.0748 20.2596 47.0321 20.2643C47.0109 20.2665 46.9904 20.2733 46.9719 20.2841L46.4764 20.5753C46.4381 20.5978 46.3946 20.6096 46.3502 20.6096Z" fill="#380072"/>
<path fill-rule="evenodd" clip-rule="evenodd" d="M26.4884 33.6352C29.6644 31.1909 31.3129 30.0116 32.1523 30.4187C32.5383 30.1045 32.9216 29.8064 33.2868 29.5287C31.3108 28.7078 29.4892 29.514 27.3243 31.4293C24.3706 34.0426 20.4577 32.8265 20.8486 29.5611L19.5854 29.5434C19.032 33.415 23.7249 35.7618 26.4884 33.6352Z" fill="#A7A7DB"/>
<path d="M24.0567 34.6905C23.2227 34.6905 22.3647 34.462 21.5764 34.0018C19.9363 33.0442 19.0786 31.3221 19.3379 29.5075C19.347 29.4478 19.3773 29.3933 19.4232 29.3541C19.4691 29.3148 19.5276 29.2934 19.588 29.2937L20.8511 29.3115C20.886 29.3119 20.9204 29.3198 20.9521 29.3344C20.9838 29.3491 21.012 29.3702 21.035 29.3965C21.058 29.4228 21.0752 29.4536 21.0856 29.4869C21.0959 29.5203 21.0991 29.5554 21.0949 29.5901C20.9528 30.7775 21.4218 31.7472 22.3818 32.2504C23.5187 32.8463 25.4364 32.7657 27.1584 31.2421C29.6002 29.0818 31.4613 28.5006 33.3813 29.2981C33.4217 29.3149 33.457 29.342 33.4836 29.3768C33.5102 29.4116 33.5272 29.4528 33.5328 29.4962C33.5384 29.5396 33.5324 29.5837 33.5155 29.6241C33.4986 29.6645 33.4714 29.6998 33.4365 29.7263C33.0194 30.0435 32.6505 30.3329 32.3086 30.6113C32.2718 30.6412 32.2272 30.66 32.1801 30.6655C32.133 30.671 32.0853 30.6629 32.0426 30.6421C31.3228 30.2925 29.5209 31.6141 26.6394 33.832C25.8976 34.4028 24.9922 34.6905 24.0567 34.6905ZM19.8057 29.7949C19.6652 31.3437 20.4097 32.7438 21.8275 33.5716C23.3243 34.4455 25.0939 34.3928 26.3356 33.4372C29.6196 30.9098 31.1442 29.8441 32.1063 30.1339C32.3163 29.9644 32.5367 29.7904 32.772 29.6082C31.1792 29.1309 29.6115 29.7367 27.4884 31.6152C26.3966 32.5811 25.0842 33.0964 23.8725 33.0965C23.2588 33.0965 22.671 32.9643 22.1506 32.6915C21.0734 32.1269 20.5094 31.0848 20.5766 29.8057L19.8057 29.7949Z" fill="#380072"/>
<path fill-rule="evenodd" clip-rule="evenodd" d="M31.7105 29.2092C30.3024 29.2239 28.9049 30.0306 27.3244 31.4291C24.4874 33.939 20.7662 32.916 20.8229 29.9379C20.6571 29.9748 20.4897 30.0127 20.3208 30.0514C20.7642 32.7743 22.3653 33.8181 25.1243 33.1827C26.5431 32.6087 27.4391 31.9697 28.0064 31.4569C29.5699 30.0438 30.9108 29.3825 31.85 29.2667C31.8048 29.247 31.7581 29.2277 31.7104 29.2092" fill="white"/>
<path fill-rule="evenodd" clip-rule="evenodd" d="M19.2214 28.4761C20.0418 28.7494 20.7446 28.8888 21.3297 28.8941C21.3134 29.0427 21.2664 29.1863 21.1916 29.3158C21.1169 29.4453 21.016 29.5578 20.8955 29.6462C20.7749 29.7346 20.6373 29.797 20.4913 29.8295C20.3454 29.8619 20.1943 29.8636 20.0476 29.8345C19.901 29.8054 19.762 29.7462 19.6394 29.6606C19.5169 29.5749 19.4135 29.4647 19.3358 29.337C19.2581 29.2092 19.2078 29.0668 19.1881 28.9186C19.1684 28.7704 19.1797 28.6197 19.2214 28.4761Z" fill="#A7A7DB"/>
<path d="M20.2544 30.1046C20.0487 30.104 19.8459 30.0556 19.662 29.9633C19.4781 29.871 19.3182 29.7373 19.1948 29.5726C19.0714 29.408 18.9879 29.217 18.9509 29.0146C18.9139 28.8122 18.9244 28.604 18.9815 28.4063C18.9908 28.3741 19.0066 28.3441 19.0278 28.3181C19.049 28.2921 19.0752 28.2707 19.1049 28.2551C19.1346 28.2395 19.1671 28.2301 19.2006 28.2274C19.234 28.2247 19.2676 28.2287 19.2994 28.2393C20.0913 28.5032 20.775 28.6395 21.3313 28.6446C21.3661 28.6449 21.4005 28.6525 21.4322 28.6669C21.4639 28.6813 21.4922 28.7022 21.5153 28.7283C21.5384 28.7543 21.5558 28.7849 21.5664 28.818C21.577 28.8512 21.5804 28.8862 21.5766 28.9208C21.5403 29.2462 21.3855 29.5468 21.1416 29.7651C20.8976 29.9835 20.5818 30.1043 20.2545 30.1046H20.2544ZM19.4271 28.8029C19.4333 28.9892 19.5021 29.168 19.6223 29.3105C19.7425 29.453 19.9072 29.5508 20.0898 29.5883C20.2724 29.6259 20.4623 29.6009 20.6289 29.5174C20.7956 29.4338 20.9293 29.2967 21.0085 29.128C20.5422 29.0905 20.0126 28.9816 19.4271 28.8029Z" fill="#380072"/>
<path fill-rule="evenodd" clip-rule="evenodd" d="M19.6073 28.5977C20.1055 28.7421 20.5383 28.8326 20.9057 28.8693C22.0065 29.2686 23.9484 24.0339 22.2282 22.9787C21.8077 22.6622 21.0901 22.4191 20.0753 22.2493C19.7876 22.2304 19.5021 22.3102 19.2659 22.4755C19.0296 22.6408 18.8568 22.8817 18.776 23.1584C18.6951 23.4352 18.711 23.7312 18.8211 23.9977C18.9312 24.2642 19.1288 24.4852 19.3814 24.6242C20.0676 24.8725 20.3404 25.0831 20.1999 25.256C19.016 27.4204 18.8184 28.5343 19.6073 28.5977Z" fill="#D6D6FF"/>
<path d="M21.0357 29.1409C20.974 29.1409 20.9127 29.1317 20.8537 29.1135C20.4842 29.0743 20.0496 28.9833 19.5612 28.8427C19.2301 28.8077 19.0671 28.629 18.9884 28.4832C18.8108 28.1542 18.7195 27.4532 19.9612 25.1736C19.8974 25.1208 19.7288 25.0138 19.2972 24.8576C19.285 24.8532 19.2732 24.8479 19.2619 24.8416C18.9597 24.6753 18.7232 24.411 18.5915 24.0921C18.4597 23.7733 18.4407 23.4191 18.5374 23.0879C18.6341 22.7568 18.8409 22.4686 19.1236 22.2708C19.4062 22.073 19.7478 21.9775 20.0921 22.0001C20.1004 22.0006 20.1087 22.0016 20.117 22.003C21.1747 22.1802 21.9117 22.4318 22.3691 22.772C22.9512 23.136 23.2208 23.9061 23.1492 25.0002C23.0925 25.8671 22.8165 26.887 22.411 27.7284C21.9664 28.6508 21.4858 29.1409 21.0357 29.1409ZM20.4101 25.3908C19.2643 27.4892 19.3405 28.0869 19.4266 28.2466C19.4506 28.291 19.4933 28.3379 19.6277 28.3487C19.6444 28.35 19.661 28.353 19.6771 28.3577C20.158 28.4972 20.5799 28.5856 20.931 28.6207C20.9515 28.6228 20.9717 28.6274 20.9911 28.6344C21.1424 28.6898 21.545 28.3779 21.9623 27.5121C22.7374 25.9038 22.9839 23.7334 22.0984 23.1902C22.0917 23.1861 22.0852 23.1816 22.0789 23.1769C21.6947 22.8877 21.0113 22.6589 20.0476 22.4963C19.8189 22.484 19.5927 22.5492 19.4055 22.6813C19.2184 22.8134 19.0813 23.0048 19.0164 23.2245C18.9514 23.4442 18.9625 23.6793 19.0477 23.8919C19.1329 24.1046 19.2873 24.2823 19.486 24.3963C20.1184 24.6269 20.4044 24.8202 20.4711 25.0613C20.4869 25.1172 20.4896 25.176 20.479 25.2332C20.4684 25.2903 20.4448 25.3442 20.4101 25.3908Z" fill="#380072"/>
<path fill-rule="evenodd" clip-rule="evenodd" d="M21.2058 28.8519C22.3136 28.3976 23.8007 23.9425 22.2284 22.978C21.8079 22.6616 21.0903 22.4184 20.0755 22.2486C19.8695 22.235 19.6633 22.272 19.4749 22.3565C19.685 22.488 19.9486 22.6341 20.2658 22.7949C22.7429 23.333 23.0162 25.282 21.0856 28.6419C21.1258 28.7156 21.1659 28.7856 21.2058 28.8519" fill="white"/>
<path fill-rule="evenodd" clip-rule="evenodd" d="M19.6007 22.3079C19.3939 22.3751 19.2079 22.4944 19.0605 22.6543C18.9131 22.8142 18.8094 23.0093 18.7593 23.2209C18.7091 23.4325 18.7143 23.6534 18.7742 23.8625C18.8341 24.0715 18.9469 24.2616 19.1015 24.4145C19.3799 24.478 19.6722 24.429 19.9146 24.2781C20.157 24.1272 20.33 23.8866 20.3958 23.6087C20.4617 23.3309 20.4151 23.0382 20.2661 22.7946C20.1172 22.5509 19.878 22.376 19.6007 22.3079Z" fill="#380072"/>
<path d="M19.3402 24.47C19.2575 24.47 19.175 24.4607 19.0944 24.4422L19.0866 24.4405L19.081 24.4348C18.9229 24.2786 18.8077 24.0843 18.7465 23.8707C18.6852 23.657 18.6799 23.4312 18.7312 23.215C18.7825 22.9987 18.8885 22.7993 19.0391 22.6358C19.1897 22.4724 19.3798 22.3505 19.5912 22.2818L19.5989 22.2793L19.6066 22.2812C19.8905 22.3521 20.1352 22.5317 20.2877 22.7815C20.4403 23.0312 20.4884 23.3309 20.4219 23.6158C20.3013 24.1244 19.843 24.47 19.3402 24.47ZM19.1147 24.3893C19.3851 24.4492 19.6682 24.4003 19.9029 24.2532C20.1375 24.106 20.3049 23.8725 20.3687 23.603C20.4326 23.3335 20.3879 23.0497 20.2442 22.8129C20.1006 22.5761 19.8695 22.4053 19.601 22.3375C19.4005 22.4041 19.2203 22.5208 19.0776 22.6766C18.9349 22.8325 18.8344 23.0222 18.7857 23.2278C18.737 23.4334 18.7416 23.648 18.7992 23.8513C18.8568 24.0546 18.9654 24.2398 19.1147 24.3893L19.1147 24.3893Z" fill="#380072"/>
<path d="M20.0188 25.1608C19.9587 25.1608 19.9007 25.1391 19.8554 25.0997C19.8101 25.0603 19.7805 25.0058 19.7722 24.9463C19.7638 24.8869 19.7773 24.8264 19.81 24.776C19.8427 24.7257 19.8926 24.6888 19.9503 24.6723C20.1653 24.6107 20.36 24.4927 20.514 24.3305C20.6681 24.1683 20.776 23.9678 20.8265 23.7499C20.877 23.532 20.8682 23.3045 20.8012 23.0911C20.7342 22.8777 20.6113 22.6861 20.4452 22.5362C20.3969 22.4917 20.368 22.43 20.365 22.3643C20.362 22.2987 20.385 22.2346 20.429 22.1858C20.473 22.1371 20.5345 22.1077 20.6001 22.1041C20.6657 22.1005 20.7301 22.123 20.7792 22.1666C21.0111 22.3761 21.1828 22.6438 21.2764 22.9419C21.37 23.2401 21.3822 23.5579 21.3116 23.8623C21.2411 24.1668 21.0904 24.4468 20.8752 24.6734C20.6599 24.9 20.388 25.065 20.0876 25.1511C20.0652 25.1575 20.0421 25.1608 20.0188 25.1608Z" fill="#390176"/>
<path fill-rule="evenodd" clip-rule="evenodd" d="M24.1046 26.8472C24.615 24.5301 24.1698 23.4808 22.7691 23.6994C23.01 24.3925 22.921 25.3852 22.6672 26.3169C23.2761 28.1449 23.7553 28.3216 24.1046 26.8472Z" fill="#D6D6FF"/>
<path d="M23.5569 28.0839C23.157 28.0839 22.8291 27.5909 22.431 26.3959C22.4155 26.3493 22.4141 26.2991 22.4269 26.2517C22.6966 25.2617 22.7355 24.3613 22.5338 23.7813C22.5219 23.7469 22.5176 23.7102 22.5213 23.6739C22.5251 23.6376 22.5368 23.6026 22.5556 23.5714C22.5743 23.5401 22.5997 23.5133 22.63 23.4929C22.6603 23.4726 22.6946 23.4591 22.7307 23.4535C23.3383 23.3588 23.8062 23.4805 24.1212 23.8158C24.6153 24.3414 24.6894 25.3506 24.3479 26.901C24.3476 26.9022 24.3473 26.9036 24.347 26.9048C24.2194 27.4433 24.0168 28.0639 23.5789 28.0834C23.5715 28.0837 23.5642 28.0839 23.5569 28.0839ZM22.9273 26.3089C23.2768 27.338 23.4961 27.541 23.5544 27.5788C23.5953 27.542 23.7208 27.3865 23.862 26.7918C24.2341 25.101 24.0111 24.4257 23.7584 24.1569C23.6051 23.9937 23.3845 23.9156 23.0882 23.92C23.2657 24.7524 23.0796 25.7277 22.9273 26.3089Z" fill="#390176"/>
<path d="M23.5288 28.0307C23.5063 28.0308 23.484 28.0259 23.4635 28.0165C23.443 28.007 23.4249 27.9932 23.4102 27.9761C23.3956 27.9589 23.3849 27.9388 23.3788 27.9171C23.3727 27.8954 23.3714 27.8726 23.375 27.8504C23.6799 25.9525 23.6521 24.8177 23.2925 24.4775C23.1838 24.3747 23.0425 24.3466 22.8474 24.3893C22.8273 24.3939 22.8065 24.3945 22.7862 24.3911C22.7659 24.3876 22.7465 24.3801 22.7291 24.3691C22.7117 24.3581 22.6967 24.3437 22.6849 24.3269C22.6731 24.31 22.6647 24.2909 22.6603 24.2708C22.6559 24.2507 22.6556 24.2299 22.6593 24.2096C22.663 24.1894 22.6707 24.1701 22.6819 24.1528C22.6931 24.1355 22.7076 24.1207 22.7247 24.109C22.7417 24.0974 22.7608 24.0893 22.781 24.0852C23.0773 24.0204 23.3214 24.0764 23.5063 24.2514C23.9639 24.6841 24.0181 25.8093 23.6823 27.8998C23.6764 27.9363 23.6578 27.9695 23.6296 27.9935C23.6015 28.0175 23.5658 28.0307 23.5288 28.0307Z" fill="#390176"/>
<path fill-rule="evenodd" clip-rule="evenodd" d="M13.9813 26.9807C14.8499 25.0937 15.8106 23.8186 17.0234 23.2268C13.0142 22.1944 9.9872 27.0615 11.769 28.1291C12.6271 28.6434 13.6519 27.6959 13.9813 26.9807Z" fill="#39D5FD"/>
<path d="M12.2955 28.5245C12.065 28.5249 11.8388 28.462 11.6417 28.3427C10.962 27.9354 10.8101 27.0355 11.2454 25.9941C11.6381 25.0546 12.4404 24.1469 13.3915 23.5662C14.1965 23.0746 15.491 22.5749 17.0862 22.9856C17.1355 22.9983 17.1797 23.0259 17.2129 23.0645C17.2461 23.1031 17.2667 23.151 17.2718 23.2017C17.277 23.2524 17.2664 23.3034 17.2417 23.3479C17.2169 23.3924 17.1791 23.4283 17.1333 23.4506C16.0315 23.9882 15.102 25.143 14.208 27.0848C13.9718 27.5978 13.406 28.2463 12.7219 28.4577C12.5839 28.5012 12.4402 28.5238 12.2955 28.5245ZM15.8952 23.3304C13.8376 23.3304 12.2517 24.8781 11.7049 26.1863C11.3671 26.9944 11.4392 27.6407 11.8977 27.9155C12.099 28.0363 12.327 28.0586 12.5749 27.9819C13.0836 27.8247 13.5629 27.295 13.7557 26.8765C14.5427 25.1669 15.3709 24.0272 16.3257 23.3529C16.1827 23.3379 16.039 23.3305 15.8952 23.3304Z" fill="#380072"/>
<g opacity="0.3">
<path fill-rule="evenodd" clip-rule="evenodd" d="M45.8288 29.0441C45.1077 28.1926 44.3754 27.9464 43.6317 28.3056C45.082 28.9683 45.1709 29.7036 41.657 32.006C38.3426 34.3614 34.4463 36.0219 29.9683 36.9876C33.6656 36.9166 37.6652 35.4707 41.967 32.6498C44.8114 30.8348 46.0987 29.6329 45.8288 29.0441Z" fill="#380072"/>
</g>
<g opacity="0.3">
<path fill-rule="evenodd" clip-rule="evenodd" d="M46.6388 26.5266C46.8362 26.5546 47.0232 26.6327 47.1819 26.7535C47.3406 26.8743 47.4657 27.0337 47.5452 27.2166C47.6248 27.3995 47.6562 27.5997 47.6364 27.7982C47.6166 27.9966 47.5463 28.1867 47.4321 28.3502C47.318 28.5138 47.1639 28.6453 46.9844 28.7324C46.805 28.8194 46.6063 28.8591 46.4072 28.8475C46.2081 28.8359 46.0153 28.7735 45.8471 28.6662C45.679 28.5589 45.5412 28.4104 45.4468 28.2347C45.5589 28.3136 45.6855 28.3696 45.8193 28.3994C45.9531 28.4293 46.0915 28.4324 46.2266 28.4087C46.3616 28.3849 46.4906 28.3347 46.6062 28.261C46.7218 28.1873 46.8217 28.0914 46.9002 27.979C46.9786 27.8665 47.0341 27.7397 47.0634 27.6058C47.0928 27.4719 47.0954 27.3334 47.0711 27.1985C47.0468 27.0636 46.9961 26.9348 46.9219 26.8195C46.8477 26.7042 46.7515 26.6046 46.6388 26.5266Z" fill="#380072"/>
</g>
<g opacity="0.3">
<path fill-rule="evenodd" clip-rule="evenodd" d="M43.3683 19.3559C43.5117 19.683 43.5833 19.8465 43.5832 19.8464C43.5832 19.8464 41.1876 19.8345 36.3958 19.8109C41.0442 19.5074 43.3684 19.3557 43.3683 19.3559ZM47.2475 17.5972C46.8072 17.8062 46.5871 17.9107 46.5871 17.9108L46.6342 18.0203L43.7425 19.3208C43.7425 19.3208 43.7752 19.4543 43.8404 19.7211C43.9603 19.6574 43.9016 19.6868 44.015 19.6293L47.0203 26.1677C46.9889 26.1693 46.9571 26.1702 46.9246 26.1705C47.6203 26.7922 47.907 27.4605 47.7846 28.1753C49.5321 27.9072 50.1273 26.8952 49.5701 25.1391C47.8015 20.2158 46.9172 17.7541 46.9172 17.754C47.1128 17.9124 47.3027 18.0697 47.487 18.226L47.2475 17.5972Z" fill="#390176"/>
</g>
<g opacity="0.3">
<path fill-rule="evenodd" clip-rule="evenodd" d="M46.7073 17.8501C46.427 17.9691 46.0619 18.1094 45.612 18.2709C45.1546 18.5893 44.4689 18.9489 43.5548 19.3496C43.5548 19.3496 43.4753 19.1561 43.3162 18.7689C44.9989 18.2607 45.8555 17.716 45.8858 17.1349C45.8413 16.5894 45.4427 16.462 44.6901 16.7528C45.1588 16.3464 45.5316 16.1402 45.8085 16.1341L46.5395 15.7693C46.5207 15.7959 46.5731 15.8058 46.5539 15.8344C47.4017 16.9248 47.3424 17.4528 46.1447 17.8358C46.3471 17.8495 46.5347 17.8543 46.7074 17.85" fill="#390176"/>
</g>
<g opacity="0.3">
<path fill-rule="evenodd" clip-rule="evenodd" d="M31.259 36.0278C34.0459 36.3501 38.8824 34.4208 43.1822 30.0039C43.0284 29.887 42.8619 29.7876 42.686 29.7076C43.0272 29.4603 42.8578 29.296 42.1778 29.2148C40.3286 28.4241 37.7622 29.4171 34.4786 32.1937L34.4796 32.1934C32.6404 33.5458 31.2797 35.0803 31.259 36.0278" fill="#380072"/>
</g>
<g opacity="0.3">
<path fill-rule="evenodd" clip-rule="evenodd" d="M43.7576 28.9018C42.2013 27.816 40.6416 27.4703 39.0785 27.8647C35.8557 28.7916 33.1315 30.5902 30.906 33.2602C33.0395 31.654 35.465 30.2722 38.1826 29.1149C41.8037 28.536 43.3174 28.945 42.7238 30.3419C43.702 29.9983 44.0466 29.5183 43.7576 28.9018Z" fill="#380072"/>
</g>
<path fill-rule="evenodd" clip-rule="evenodd" d="M45.8561 20.6513L46.8455 20.0699C46.9381 20.0158 47.0483 20.0005 47.1521 20.0274C47.2559 20.0543 47.3449 20.1212 47.3995 20.2135C47.4536 20.3061 47.4688 20.4164 47.4419 20.5202C47.415 20.624 47.348 20.713 47.2557 20.7676L46.2662 21.3493C46.1736 21.4033 46.0634 21.4185 45.9596 21.3915C45.8558 21.3646 45.7669 21.2976 45.7123 21.2054V21.2051C45.6583 21.1125 45.6431 21.0023 45.67 20.8986C45.6969 20.7948 45.7638 20.7059 45.8561 20.6513Z" fill="white"/>
<path d="M46.0627 21.6541C45.9487 21.6543 45.8365 21.6246 45.7375 21.5681C45.6384 21.5116 45.5558 21.4301 45.498 21.3318C45.4962 21.3289 45.4945 21.3258 45.4929 21.3228C45.4085 21.1734 45.3861 20.997 45.4305 20.8313C45.4749 20.6656 45.5824 20.524 45.7301 20.4368H45.7302L46.7197 19.8553C46.869 19.7704 47.0458 19.7476 47.2118 19.7919C47.3777 19.8363 47.5196 19.9442 47.6067 20.0923C47.6937 20.2404 47.719 20.4168 47.677 20.5834C47.635 20.75 47.5291 20.8933 47.3822 20.9825L46.3928 21.5641C46.2928 21.6231 46.1788 21.6541 46.0627 21.6541ZM45.9299 21.0835C45.9518 21.1173 45.9858 21.1414 46.0249 21.1509C46.064 21.1604 46.1053 21.1547 46.1403 21.1348L47.1298 20.5531C47.1646 20.5318 47.1896 20.4977 47.1995 20.4581C47.2094 20.4185 47.2034 20.3767 47.1828 20.3415C47.1621 20.3063 47.1285 20.2806 47.0891 20.27C47.0497 20.2594 47.0077 20.2646 46.9722 20.2846L45.9826 20.8662C45.9473 20.8873 45.9217 20.9215 45.9114 20.9613C45.901 21.0011 45.9067 21.0434 45.9273 21.079C45.9282 21.0805 45.929 21.082 45.9299 21.0835Z" fill="#390176"/>
<g opacity="0.3">
<path fill-rule="evenodd" clip-rule="evenodd" d="M43.5548 19.3498L43.3161 18.769C37.7412 18.9948 34.9537 19.1077 34.9536 19.1078C35.6831 19.4287 36.0479 19.5893 36.0478 19.5894C41.0525 19.4298 43.5548 19.3499 43.5548 19.3497" fill="#380072"/>
</g>
<g opacity="0.3">
<path fill-rule="evenodd" clip-rule="evenodd" d="M27.6724 19.7557C27.7503 19.3293 27.8788 19.0766 28.0578 18.9975C31.7822 18.5786 36.9278 20.6898 43.6624 25.0773C44.4341 25.5802 45.137 25.6496 45.6187 25.5492C46.218 25.9285 46.5177 26.1181 46.5178 26.118C45.9046 26.3612 45.4878 26.601 45.2676 26.8373C36.6874 21.1764 30.8224 18.8159 27.6724 19.7557" fill="#380072"/>
</g>
<g opacity="0.3">
<path fill-rule="evenodd" clip-rule="evenodd" d="M44.4445 26.8123C44.4552 26.0363 41.3306 24.2156 35.0709 21.3501C41.604 24.9646 40.8864 26.1388 32.9182 24.8726C38.1956 26.1612 42.0377 26.8077 44.4445 26.8123Z" fill="#380072"/>
</g>
<g opacity="0.3">
<path fill-rule="evenodd" clip-rule="evenodd" d="M45.3941 26.9851C39.5477 26.3961 35.4968 25.8071 33.2412 25.2183C34.1266 25.9104 33.7487 26.2568 32.1073 26.2575C29.0858 26.1042 27.2741 26.0983 26.6722 26.2398C26.3281 26.4237 26.328 26.5824 26.6721 26.7158C29.1398 27.3203 31.136 27.8149 32.6606 28.1997C34.2875 28.3246 35.1009 28.387 35.1009 28.3871C36.2679 27.7951 37.0708 27.5022 37.5097 27.5085C41.6948 28.2579 44.1983 28.5382 45.0203 28.3494C45.0331 27.5777 45.1577 27.1229 45.3941 26.9851Z" fill="#390176"/>
</g>
<g opacity="0.3">
<path fill-rule="evenodd" clip-rule="evenodd" d="M33.2528 30.0889C32.9162 30.4991 32.5427 30.8465 32.1322 31.1312C31.8828 30.7073 30.8557 31.0703 29.051 32.2201C27.3681 34.2081 25.5333 35.1375 23.5465 35.0084C21.2498 34.7188 19.3307 32.8729 19.8711 30.4854C21.0436 35.4758 25.2371 35.1837 28.4996 32.0779C29.8337 30.8076 31.4967 30.3906 31.5334 29.9034C32.8051 29.8209 32.9756 29.9029 33.2528 30.0889" fill="#390176"/>
</g>
<g opacity="0.3">
<path fill-rule="evenodd" clip-rule="evenodd" d="M19.3462 29.2396C19.4182 29.9992 19.7354 30.3905 20.298 30.4136C19.9651 30.1372 19.9414 29.823 20.2268 29.471C19.6775 29.1089 19.3839 29.0318 19.3462 29.2397" fill="#390176"/>
</g>
<g opacity="0.3">
<path fill-rule="evenodd" clip-rule="evenodd" d="M19.2397 28.7421C19.4935 29.1565 19.8639 29.3677 20.3508 29.3754C21.2297 27.8668 21.5269 26.7621 21.2424 26.0614H21.2425L21.242 26.0604C21.2155 25.995 21.1832 25.932 21.1456 25.8723C21.0271 25.5703 21.0707 25.2457 21.2763 24.8984C20.8849 25.266 20.6892 25.4499 20.6893 25.45C20.025 26.375 19.6929 26.8375 19.6929 26.8376C19.3909 28.1071 19.2399 28.7419 19.2398 28.742" fill="#390176"/>
</g>
<g opacity="0.3">
<path fill-rule="evenodd" clip-rule="evenodd" d="M20.2098 25.5897C20.8254 25.0706 21.1213 24.6356 21.0973 24.2847C20.9482 24.5826 20.6487 24.6864 20.1988 24.596C19.8603 24.8421 19.5581 25.0137 19.2922 25.1108C19.9039 25.4301 20.2098 25.5897 20.2099 25.5897" fill="#390176"/>
</g>
<g opacity="0.3">
<path fill-rule="evenodd" clip-rule="evenodd" d="M47.9047 37.7499C47.9028 37.666 47.8996 37.5814 47.8943 37.4963C47.7567 37.2493 47.562 37.0349 47.3103 36.8533C47.5935 37.1266 47.7916 37.4255 47.9046 37.7499M46.21 41.8295C46.5221 41.5238 46.801 41.1859 47.042 40.8215C46.7841 41.173 46.5063 41.5096 46.21 41.8295ZM38.0485 42.5594V42.5597H38.0475C37.991 42.5678 37.9345 42.5754 37.8779 42.583C37.5284 42.6527 37.2374 42.8533 37.0049 43.1849C36.3621 44.2194 37.7724 45.1628 41.6477 44.3694C43.3148 43.4193 44.4873 42.4129 45.1653 41.3502C45.5625 40.506 45.2647 40.2631 44.272 40.6213H44.2721C42.3055 41.5924 40.2148 42.2544 38.0485 42.5594ZM45.6043 29.6734L45.6032 29.6706C45.6229 29.6534 45.642 29.6369 45.6605 29.6217L45.6613 29.6209C45.8558 29.4591 46.0029 29.3917 46.1025 29.419C46.0548 29.3248 46.0042 29.23 45.9506 29.1348C45.8436 29.3244 45.7249 29.5071 45.595 29.6817L45.6043 29.6734ZM38.3067 40.9507V40.9509C37.7981 40.2785 37.0274 39.7556 36.1236 39.7574C33.0224 39.7635 31.2463 39.9309 30.2438 39.3925C31.7678 40.2127 33.7845 40.5398 36.2938 40.374C36.5248 40.5002 36.7391 40.6267 36.9367 40.7535C35.2769 42.8272 35.1127 44.2284 36.4442 44.9571C37.9561 45.5352 39.6903 45.3394 41.647 44.3696C41.5778 44.4091 41.5078 44.4485 41.4371 44.4877C43.5407 43.7808 45.1313 42.8952 46.2089 41.8308C47.866 38.8823 47.8656 37.3153 46.2077 37.1297C46.0396 36.6893 46.0171 36.4253 46.1402 36.3374H46.1401C45.9169 36.2285 45.7078 35.9281 45.5127 35.4363C45.5814 35.7385 45.6912 36.0944 45.842 36.5039C46.367 37.9267 45.6052 39.1375 43.5566 40.1364C44.9839 39.0832 45.4998 37.8971 45.1043 36.5781C44.8937 36.1636 44.7692 35.7129 44.7307 35.226L45.3333 34.9174C45.3054 34.8257 45.278 34.7302 45.2506 34.6301C45.9844 33.8954 46.4333 33.117 46.5974 32.295C46.3375 33.5255 45.4009 34.5975 43.7878 35.511C45.5042 34.1006 46.2041 32.4969 45.8876 30.6999C45.8505 30.514 45.7621 30.469 45.6224 30.5649L45.6228 30.5644C39.8981 35.2024 35.0263 37.4123 31.0072 37.194C31.5591 37.0759 32.1039 36.945 32.6415 36.8013C31.7594 37.0227 30.8542 37.21 29.926 37.363C32.7696 37.9404 36.6535 37.1599 41.5776 35.0215V35.0218C42.1231 34.8128 42.3275 34.9607 42.1907 35.4657C41.9521 36.0724 41.2501 36.7879 40.0847 37.612C39.9546 37.9368 40.0376 38.0909 40.3338 38.0744C42.357 38.2292 43.0147 38.8051 42.3069 39.8022C41.2582 40.9023 40.2792 41.5143 39.4533 41.6494C39.0767 41.6846 38.7559 41.5411 38.4909 41.219C38.4341 41.1277 38.3727 41.0381 38.3069 40.9511L38.3067 40.9507ZM37.4662 41.124C37.7407 41.3646 37.9458 41.5807 38.0815 41.7723C38.0814 41.7394 38.0795 41.7065 38.0759 41.6737C37.9068 41.4898 37.7036 41.3065 37.4662 41.124Z" fill="#390176"/>
</g>
<g opacity="0.3">
<path fill-rule="evenodd" clip-rule="evenodd" d="M39.189 27.4353C37.4293 28.2853 35.6824 29.1917 33.9485 30.1545C35.3314 29.0168 35.7312 28.3633 35.1478 28.1941C37.0772 27.4364 38.4243 27.1834 39.189 27.4353" fill="#380072"/>
</g>
<path fill-rule="evenodd" clip-rule="evenodd" d="M20.1421 29.6202C20.7575 29.6395 21.1133 29.4615 21.2096 29.0864C21.2096 29.0864 20.9458 29.0598 20.418 29.0063C20.8265 29.2224 20.7346 29.4271 20.1421 29.6203" fill="white"/>
<path d="M21.0357 29.1409C20.974 29.1409 20.9127 29.1317 20.8537 29.1135C20.4842 29.0743 20.0496 28.9833 19.5612 28.8427C19.2301 28.8077 19.0671 28.629 18.9884 28.4832C18.8108 28.1542 18.7195 27.4532 19.9612 25.1736C19.8974 25.1208 19.7288 25.0138 19.2972 24.8576C19.285 24.8532 19.2732 24.8479 19.2619 24.8416C18.9597 24.6753 18.7232 24.411 18.5915 24.0921C18.4597 23.7733 18.4407 23.4191 18.5374 23.0879C18.6341 22.7568 18.8409 22.4686 19.1236 22.2708C19.4062 22.073 19.7478 21.9775 20.0921 22.0001C20.1004 22.0006 20.1087 22.0016 20.117 22.003C21.1747 22.1802 21.9117 22.4318 22.3691 22.772C22.9512 23.136 23.2208 23.9061 23.1492 25.0002C23.0925 25.8671 22.8165 26.887 22.411 27.7284C21.9664 28.6508 21.4858 29.1409 21.0357 29.1409ZM20.4101 25.3908C19.2643 27.4892 19.3405 28.0869 19.4266 28.2466C19.4506 28.291 19.4933 28.3379 19.6277 28.3487C19.6444 28.35 19.661 28.353 19.6771 28.3577C20.158 28.4972 20.5799 28.5856 20.931 28.6207C20.9515 28.6228 20.9717 28.6274 20.9911 28.6344C21.1424 28.6898 21.545 28.3779 21.9623 27.5121C22.7374 25.9038 22.9839 23.7334 22.0984 23.1902C22.0917 23.1861 22.0852 23.1816 22.0789 23.1769C21.6947 22.8877 21.0113 22.6589 20.0476 22.4963C19.8189 22.484 19.5927 22.5492 19.4055 22.6813C19.2184 22.8134 19.0813 23.0048 19.0164 23.2245C18.9514 23.4442 18.9625 23.6793 19.0477 23.8919C19.1329 24.1046 19.2873 24.2823 19.486 24.3963C20.1184 24.6269 20.4044 24.8202 20.4711 25.0613C20.4869 25.1172 20.4896 25.176 20.479 25.2332C20.4684 25.2903 20.4448 25.3442 20.4101 25.3908Z" fill="#390176"/>
<path d="M20.2544 30.1046C20.0487 30.104 19.8459 30.0556 19.662 29.9633C19.4781 29.871 19.3182 29.7373 19.1948 29.5726C19.0714 29.408 18.9879 29.217 18.9509 29.0146C18.9139 28.8122 18.9244 28.604 18.9815 28.4063C18.9908 28.3741 19.0066 28.3441 19.0278 28.3181C19.049 28.2921 19.0752 28.2707 19.1049 28.2551C19.1346 28.2395 19.1671 28.2301 19.2006 28.2274C19.234 28.2247 19.2676 28.2287 19.2994 28.2393C20.0913 28.5032 20.775 28.6395 21.3313 28.6446C21.3661 28.6449 21.4005 28.6525 21.4322 28.6669C21.4639 28.6813 21.4922 28.7022 21.5153 28.7283C21.5384 28.7543 21.5558 28.7849 21.5664 28.818C21.577 28.8512 21.5804 28.8862 21.5766 28.9208C21.5403 29.2462 21.3855 29.5468 21.1416 29.7651C20.8976 29.9835 20.5818 30.1043 20.2545 30.1046H20.2544ZM19.4271 28.8029C19.4333 28.9892 19.5021 29.168 19.6223 29.3105C19.7425 29.453 19.9072 29.5508 20.0898 29.5883C20.2724 29.6259 20.4623 29.6009 20.6289 29.5174C20.7956 29.4338 20.9293 29.2967 21.0085 29.128C20.5422 29.0905 20.0126 28.9816 19.4271 28.8029Z" fill="#390176"/>
<path d="M24.0567 34.6905C23.2227 34.6905 22.3647 34.462 21.5764 34.0018C19.9363 33.0442 19.0786 31.3221 19.3379 29.5075C19.347 29.4478 19.3773 29.3933 19.4232 29.3541C19.4691 29.3148 19.5276 29.2934 19.588 29.2937L20.8511 29.3115C20.886 29.3119 20.9204 29.3198 20.9521 29.3344C20.9838 29.3491 21.012 29.3702 21.035 29.3965C21.058 29.4228 21.0752 29.4536 21.0856 29.4869C21.0959 29.5203 21.0991 29.5554 21.0949 29.5901C20.9528 30.7775 21.4218 31.7472 22.3818 32.2504C23.5187 32.8463 25.4364 32.7657 27.1584 31.2421C29.6002 29.0818 31.4613 28.5006 33.3813 29.2981C33.4217 29.3149 33.457 29.342 33.4836 29.3768C33.5102 29.4116 33.5272 29.4528 33.5328 29.4962C33.5384 29.5396 33.5324 29.5837 33.5155 29.6241C33.4986 29.6645 33.4714 29.6998 33.4365 29.7263C33.0194 30.0435 32.6505 30.3329 32.3086 30.6113C32.2718 30.6412 32.2272 30.66 32.1801 30.6655C32.133 30.671 32.0853 30.6629 32.0426 30.6421C31.3228 30.2925 29.5209 31.6141 26.6394 33.832C25.8976 34.4028 24.9922 34.6905 24.0567 34.6905ZM19.8057 29.7949C19.6652 31.3437 20.4097 32.7438 21.8275 33.5716C23.3243 34.4455 25.0939 34.3928 26.3356 33.4372C29.6196 30.9098 31.1442 29.8441 32.1063 30.1339C32.3163 29.9644 32.5367 29.7904 32.772 29.6082C31.1792 29.1309 29.6115 29.7367 27.4884 31.6152C26.3966 32.5811 25.0842 33.0964 23.8725 33.0965C23.2588 33.0965 22.671 32.9643 22.1506 32.6915C21.0734 32.1269 20.5094 31.0848 20.5766 29.8057L19.8057 29.7949Z" fill="#390176"/>
<g opacity="0.5">
<path fill-rule="evenodd" clip-rule="evenodd" d="M14.8626 23.213C15.642 22.9815 16.2222 23.0251 16.6032 23.344C14.535 23.5887 12.7191 24.9482 12.0488 26.92C11.9379 27.2458 12.1874 27.5914 12.5066 27.7203C12.6617 27.783 12.8333 27.7917 12.9939 27.7449C13.1545 27.6982 13.2948 27.5988 13.392 27.4627C12.9329 28.3544 12.3026 28.4998 11.501 27.8987C10.7043 26.4901 11.8248 24.9282 14.8626 23.213Z" fill="white"/>
</g>
<g opacity="0.5">
<path fill-rule="evenodd" clip-rule="evenodd" d="M13.1126 26.408C13.2397 26.4827 13.2309 26.7335 13.0932 26.9683C12.9554 27.2029 12.7406 27.3329 12.6135 27.2585C12.4865 27.184 12.4952 26.9332 12.6331 26.6983C12.7709 26.4635 12.9856 26.3334 13.1126 26.408" fill="white"/>
</g>
<path d="M12.2955 28.5245C12.065 28.5249 11.8388 28.462 11.6417 28.3427C10.962 27.9354 10.8101 27.0355 11.2454 25.9941C11.6381 25.0546 12.4404 24.1469 13.3915 23.5662C14.1965 23.0746 15.491 22.5749 17.0862 22.9856C17.1355 22.9983 17.1797 23.0259 17.2129 23.0645C17.2461 23.1031 17.2667 23.151 17.2718 23.2017C17.277 23.2524 17.2664 23.3034 17.2417 23.3479C17.2169 23.3924 17.1791 23.4283 17.1333 23.4506C16.0315 23.9882 15.102 25.143 14.208 27.0848C13.9718 27.5978 13.406 28.2463 12.7219 28.4577C12.5839 28.5012 12.4402 28.5238 12.2955 28.5245ZM15.8952 23.3304C13.8376 23.3304 12.2517 24.8781 11.7049 26.1863C11.3671 26.9944 11.4392 27.6407 11.8977 27.9155C12.099 28.0363 12.327 28.0586 12.5749 27.9819C13.0836 27.8247 13.5629 27.295 13.7557 26.8765C14.5427 25.1669 15.3709 24.0272 16.3257 23.3529C16.1827 23.3379 16.039 23.3305 15.8952 23.3304Z" fill="#390176"/>
<path fill-rule="evenodd" clip-rule="evenodd" d="M14.1821 21.6641C15.1807 21.1199 16.0194 20.8747 16.7453 21.0117C15.3234 19.2471 12.403 20.393 12.8358 21.4444C13.0442 21.9506 13.8038 21.8703 14.1821 21.6641Z" fill="#39D5FD"/>
<path d="M13.5259 22.0737C13.3843 22.0752 13.2435 22.0526 13.1094 22.007C12.8712 21.9225 12.6971 21.761 12.6061 21.5397C12.4181 21.083 12.6637 20.5847 13.2472 20.2395C14.1457 19.7076 15.8854 19.5474 16.9398 20.856C16.9718 20.8957 16.9908 20.9442 16.9943 20.995C16.9979 21.0458 16.9857 21.0965 16.9595 21.1402C16.9334 21.1839 16.8944 21.2185 16.848 21.2394C16.8015 21.2603 16.7498 21.2664 16.6997 21.257C16.0672 21.1376 15.305 21.3366 14.3019 21.8833C14.1054 21.9904 13.8163 22.0737 13.5259 22.0737ZM14.7622 20.3498C14.2747 20.3498 13.8166 20.4812 13.5008 20.6681C13.2229 20.8326 12.9629 21.0981 13.0666 21.3502C13.1034 21.4394 13.1718 21.5007 13.2758 21.5375C13.511 21.6208 13.861 21.5563 14.0635 21.4459H14.0635C14.8424 21.0215 15.5017 20.7888 16.0854 20.7368C15.6774 20.4595 15.2075 20.3498 14.7622 20.3498Z" fill="#380072"/>
<g opacity="0.5">
<path fill-rule="evenodd" clip-rule="evenodd" d="M15.8004 20.2988C16.2183 20.452 16.4587 20.6609 16.5216 20.9253C15.5338 20.3562 14.2922 20.3591 13.353 21.0051C13.1978 21.1118 13.1942 21.3451 13.292 21.506C13.3396 21.5842 13.4121 21.6442 13.4979 21.6762C13.5837 21.7083 13.6778 21.7105 13.765 21.6826C13.2719 21.9237 12.9477 21.7814 12.7925 21.2554C12.9037 20.3766 13.9064 20.0577 15.8005 20.2988" fill="white"/>
</g>
<g opacity="0.5">
<path fill-rule="evenodd" clip-rule="evenodd" d="M13.9883 21.1285C14.0197 21.2028 13.9338 21.3102 13.7965 21.368C13.6593 21.426 13.5225 21.4128 13.4911 21.3386C13.4597 21.2644 13.5457 21.1569 13.6829 21.0992C13.8202 21.0411 13.957 21.0543 13.9883 21.1285" fill="white"/>
</g>
<path d="M13.5259 22.0737C13.3843 22.0752 13.2435 22.0526 13.1094 22.007C12.8712 21.9225 12.6971 21.761 12.6061 21.5397C12.4181 21.083 12.6637 20.5847 13.2472 20.2395C14.1457 19.7076 15.8854 19.5474 16.9398 20.856C16.9718 20.8957 16.9908 20.9442 16.9943 20.995C16.9979 21.0458 16.9857 21.0965 16.9595 21.1402C16.9334 21.1839 16.8944 21.2185 16.848 21.2394C16.8015 21.2603 16.7498 21.2664 16.6997 21.257C16.0672 21.1376 15.305 21.3366 14.3019 21.8833C14.1054 21.9904 13.8163 22.0737 13.5259 22.0737ZM14.7622 20.3498C14.2747 20.3498 13.8166 20.4812 13.5008 20.6681C13.2229 20.8326 12.9629 21.0981 13.0666 21.3502C13.1034 21.4394 13.1718 21.5007 13.2758 21.5375C13.511 21.6208 13.861 21.5563 14.0635 21.4459H14.0635C14.8424 21.0215 15.5017 20.7888 16.0854 20.7368C15.6774 20.4595 15.2075 20.3498 14.7622 20.3498Z" fill="#390176"/>
<g opacity="0.3">
<path fill-rule="evenodd" clip-rule="evenodd" d="M46.1482 15.4805C45.5501 16.0477 44.8414 16.3946 44.0222 16.5212C45.2485 15.902 44.9193 15.5759 43.0347 15.5428C44.7118 15.2644 45.7497 15.2436 46.1482 15.4805" fill="#380072"/>
</g>
<defs>
<filter id="filter0_d_16481_1416" x="0.000244141" y="0" width="70" height="70" filterUnits="userSpaceOnUse" color-interpolation-filters="sRGB">
<feFlood flood-opacity="0" result="BackgroundImageFix"/>
<feColorMatrix in="SourceAlpha" type="matrix" values="0 0 0 0 0 0 0 0 0 0 0 0 0 0 0 0 0 0 127 0" result="hardAlpha"/>
<feOffset dy="4"/>
<feGaussianBlur stdDeviation="2"/>
<feComposite in2="hardAlpha" operator="out"/>
<feColorMatrix type="matrix" values="0 0 0 0 0 0 0 0 0 0 0 0 0 0 0 0 0 0 0.25 0"/>
<feBlend mode="normal" in2="BackgroundImageFix" result="effect1_dropShadow_16481_1416"/>
<feBlend mode="normal" in="SourceGraphic" in2="effect1_dropShadow_16481_1416" result="shape"/>
</filter>
</defs>
</svg>
