<svg width="70" height="70" viewBox="0 0 70 70" fill="none" xmlns="http://www.w3.org/2000/svg">
<g filter="url(#filter0_d_16476_840)">
<circle cx="35" cy="31" r="31" fill="white"/>
</g>
<path d="M50.7468 21.4433V26.4526C50.7468 44.8966 34.9503 50.2096 34.9503 50.2096C34.9503 50.2096 19.1538 44.8966 19.1538 26.4526V21.4433L34.9503 12.7905L50.7468 21.4433Z" fill="url(#paint0_linear_16476_840)"/>
<path d="M42.7247 17.3075C40.7236 16.2029 36.9533 14.1343 34.9501 13.0342L34.6929 13.1753C29.8834 15.8087 24.2089 18.9412 19.4155 21.6022C19.428 22.6198 19.4351 26.1909 19.4638 27.1735C19.4821 27.7037 19.514 28.2485 19.5567 28.7773C19.6046 29.2929 19.6647 29.863 19.7405 30.3737C19.7733 30.5794 19.8255 30.9601 19.8671 31.1675C19.9086 31.4017 19.9668 31.725 20.0177 31.957C21.1798 37.676 24.2891 42.5788 28.9503 46.0857C30.7858 47.4579 32.7947 48.6237 34.9501 49.4106C33.9801 48.9985 33.0473 48.5024 32.1467 47.9563C27.824 45.3452 24.2391 41.4381 22.2873 36.7714L22.0913 36.29C22.0753 36.2498 22.0579 36.2101 22.043 36.1694C21.9786 35.993 21.8806 35.7385 21.8162 35.5608C21.6548 35.0921 21.475 34.5551 21.3431 34.0763C21.3097 33.9505 21.2375 33.702 21.2047 33.5758C21.1482 33.3428 21.0731 33.0507 21.0207 32.8188C20.9126 32.3361 20.7993 31.7762 20.7227 31.2897C20.5541 30.2642 20.4447 29.2298 20.3948 28.1917C20.3215 26.8405 20.3812 23.7812 20.3881 22.1763C22.3351 21.1196 25.8848 19.2084 27.6779 18.2249C29.4725 17.2421 33.0069 15.326 34.9511 14.2555C39.5286 16.7601 44.9218 19.6977 49.5129 22.1759C49.5171 23.5473 49.5708 26.636 49.5281 27.6724C49.5055 28.4845 49.4371 29.3262 49.3452 30.1332C49.3108 30.3777 49.2629 30.7902 49.2199 31.0334C49.2014 31.1595 49.1557 31.4209 49.1376 31.5463C49.1155 31.6719 49.063 31.9317 49.0416 32.0567C48.9647 32.451 48.8598 32.9353 48.7589 33.3238C48.7071 33.5488 48.6196 33.8543 48.5585 34.0766C48.4492 34.4631 48.3027 34.9369 48.1691 35.3152C48.0979 35.5351 47.9842 35.8316 47.9039 36.048C46.1486 40.6978 42.7871 44.6626 38.6415 47.3928C37.4709 48.1669 36.2422 48.8597 34.95 49.4103C37.1052 48.623 39.114 47.4571 40.9492 46.0848C44.0047 43.7895 46.5187 40.7626 48.1285 37.2888C48.2609 37.0104 48.4428 36.5935 48.5589 36.3081C48.6478 36.0862 48.772 35.7853 48.8514 35.5597C49.0658 34.9934 49.267 34.3591 49.4369 33.7784C49.5009 33.5396 49.5847 33.2396 49.6437 33.0016C49.7442 32.602 49.8538 32.0944 49.9357 31.6942C50.0232 31.236 50.111 30.7051 50.1781 30.2409C50.2646 29.5916 50.3393 28.897 50.3807 28.2429C50.4932 26.624 50.4577 23.2666 50.483 21.6029C48.4907 20.4878 44.7192 18.4203 42.7247 17.3075Z" fill="url(#paint1_linear_16476_840)"/>
<path d="M34.9503 51L34.7114 50.9196C34.6687 50.9053 33.6484 50.5587 32.1306 49.7529C30.1098 48.6749 28.233 47.3464 26.5446 45.7988C24.1812 43.6242 22.2976 41.0908 20.946 38.2691C19.2595 34.748 18.4043 30.7722 18.4043 26.4522V20.9989L34.9503 11.9355L51.4963 20.9989V26.4522C51.4963 30.7722 50.6412 34.748 48.9546 38.2691C47.603 41.0908 45.7194 43.6243 43.3561 45.7988C41.6676 47.3464 39.7908 48.6749 37.77 49.7529C36.2522 50.5587 35.2319 50.9053 35.1892 50.9196L34.9503 51ZM19.9033 21.887V26.4522C19.9033 30.5315 20.7033 34.2774 22.2809 37.5859C23.5422 40.2309 25.3029 42.6088 27.5139 44.6536C29.1054 46.1194 30.8754 47.3786 32.782 48.4014C33.7945 48.9422 34.5773 49.2664 34.9503 49.4104C35.3229 49.2666 36.1058 48.9424 37.1185 48.4014C39.0252 47.3786 40.7952 46.1194 42.3867 44.6536C44.5978 42.6088 46.3584 40.2309 47.6197 37.5859C49.1973 34.2774 49.9973 30.5315 49.9973 26.4522V21.887L34.9503 13.6447L19.9033 21.887Z" fill="url(#paint2_linear_16476_840)"/>
<path d="M28.9854 38.0582V29.0711C28.9854 28.8326 29.0801 28.6038 29.2488 28.4351C29.4175 28.2664 29.6462 28.1717 29.8848 28.1717H30.8523V26.6091C30.8523 24.3495 32.6908 22.5112 34.9506 22.5112H34.9744C37.2209 22.5241 39.0485 24.3803 39.0485 26.6488V28.1716H40.0161C40.1342 28.1716 40.2511 28.1948 40.3603 28.24C40.4694 28.2852 40.5685 28.3515 40.6521 28.435C40.7356 28.5185 40.8018 28.6177 40.847 28.7268C40.8922 28.8359 40.9155 28.9529 40.9155 29.071V38.0581C40.9155 38.2967 40.8207 38.5254 40.6521 38.6941C40.4834 38.8628 40.2546 38.9575 40.0161 38.9575H29.8848C29.6462 38.9575 29.4175 38.8628 29.2488 38.6941C29.0802 38.5255 28.9854 38.2968 28.9854 38.0582ZM37.1409 28.1718V26.6092C37.1409 26.0283 36.9101 25.4711 36.4993 25.0604C36.0885 24.6496 35.5314 24.4188 34.9504 24.4188C34.3695 24.4188 33.8123 24.6496 33.4016 25.0604C32.9908 25.4711 32.76 26.0283 32.76 26.6092V28.1718H37.1409Z" fill="url(#paint3_linear_16476_840)"/>
<path d="M29.3792 38.0496V29.0802C29.3792 29.0127 29.3924 28.9458 29.4183 28.8835C29.4441 28.8211 29.482 28.7645 29.5297 28.7167C29.5774 28.669 29.6341 28.6312 29.6964 28.6053C29.7588 28.5795 29.8256 28.5662 29.8931 28.5662H31.2461V26.6093C31.2461 24.5672 32.9077 22.9058 34.9501 22.9058H34.9716C37.0019 22.9174 38.6536 24.5967 38.6536 26.649V28.5661H40.0066C40.1429 28.5661 40.2737 28.6203 40.37 28.7167C40.4664 28.8131 40.5206 28.9438 40.5206 29.0801V38.0496C40.5206 38.1171 40.5073 38.1839 40.4814 38.2463C40.4556 38.3087 40.4178 38.3653 40.37 38.413C40.3223 38.4608 40.2657 38.4986 40.2033 38.5245C40.1409 38.5503 40.0741 38.5636 40.0066 38.5636H29.8931C29.7568 38.5636 29.6261 38.5094 29.5297 38.413C29.4333 38.3167 29.3792 38.1859 29.3792 38.0496ZM34.9499 31.316C34.6429 31.316 34.3449 31.4191 34.1034 31.6087C33.862 31.7984 33.6912 32.0635 33.6183 32.3617C33.5455 32.6599 33.5748 32.974 33.7016 33.2536C33.8285 33.5331 34.0454 33.762 34.3178 33.9036L34.3759 33.9339L34.2518 35.4417C34.2495 35.4699 34.2531 35.4982 34.2622 35.525C34.2714 35.5517 34.2861 35.5762 34.3052 35.5971C34.3244 35.6179 34.3476 35.6345 34.3735 35.6458C34.3994 35.6572 34.4274 35.6631 34.4557 35.6631H35.4442C35.4725 35.6631 35.5004 35.6572 35.5263 35.6458C35.5522 35.6345 35.5755 35.6179 35.5946 35.5971C35.6138 35.5763 35.6284 35.5517 35.6376 35.525C35.6468 35.4982 35.6503 35.4699 35.648 35.4417L35.5239 33.9339L35.582 33.9036C35.8544 33.762 36.0714 33.5331 36.1982 33.2536C36.325 32.974 36.3544 32.66 36.2815 32.3617C36.2087 32.0635 36.0379 31.7984 35.7964 31.6088C35.555 31.4191 35.2569 31.316 34.9499 31.316ZM37.5347 28.5662V26.6093C37.5347 25.9238 37.2623 25.2664 36.7776 24.7817C36.2929 24.2969 35.6354 24.0246 34.9499 24.0246C34.2644 24.0246 33.607 24.2969 33.1222 24.7817C32.6375 25.2664 32.3652 25.9238 32.3652 26.6093V28.5662H37.5347Z" fill="url(#paint4_linear_16476_840)"/>
<path d="M38.5561 28.6644V26.6486C38.5561 24.6593 36.9612 23.0154 34.9721 23.004C32.9744 22.9925 31.3457 24.6141 31.3457 26.6089V28.6644H29.9071C29.7935 28.6644 29.6845 28.7095 29.6042 28.7898C29.5239 28.8701 29.4788 28.9791 29.4788 29.0926V38.0363C29.4788 38.1498 29.5239 38.2588 29.6042 38.3391C29.6845 38.4194 29.7935 38.4645 29.9071 38.4645H39.9948C40.1084 38.4645 40.2174 38.4194 40.2977 38.3391C40.378 38.2588 40.4231 38.1498 40.4231 38.0363V29.0926C40.4231 28.9791 40.378 28.8701 40.2977 28.7898C40.2174 28.7095 40.1084 28.6644 39.9948 28.6644H38.5561ZM35.6286 33.9907L35.7473 35.4331C35.7508 35.4749 35.7455 35.5169 35.7319 35.5565C35.7183 35.5962 35.6966 35.6326 35.6682 35.6634C35.6399 35.6942 35.6054 35.7188 35.567 35.7357C35.5286 35.7525 35.4872 35.7612 35.4453 35.7612H34.4567C34.4148 35.7612 34.3734 35.7525 34.335 35.7357C34.2966 35.7188 34.2622 35.6942 34.2338 35.6634C34.2054 35.6326 34.1837 35.5962 34.1701 35.5565C34.1565 35.5169 34.1512 35.4749 34.1547 35.4331L34.2734 33.9907C33.9814 33.8389 33.7489 33.5936 33.6129 33.2939C33.477 32.9943 33.4455 32.6577 33.5236 32.3381C33.6017 32.0185 33.7849 31.7343 34.0437 31.5311C34.3025 31.3279 34.622 31.2175 34.951 31.2175C35.28 31.2175 35.5995 31.3279 35.8583 31.5311C36.1172 31.7343 36.3003 32.0185 36.3784 32.3381C36.4565 32.6577 36.425 32.9943 36.2891 33.2939C36.1532 33.5936 35.9206 33.8389 35.6286 33.9907ZM37.6343 28.6644H32.2676V26.6089C32.2676 25.8972 32.5503 25.2147 33.0535 24.7115C33.5568 24.2082 34.2393 23.9255 34.951 23.9255C35.6626 23.9255 36.3452 24.2082 36.8484 24.7115C37.3516 25.2147 37.6343 25.8972 37.6343 26.6089V28.6644Z" fill="white"/>
<defs>
<filter id="filter0_d_16476_840" x="0" y="0" width="70" height="70" filterUnits="userSpaceOnUse" color-interpolation-filters="sRGB">
<feFlood flood-opacity="0" result="BackgroundImageFix"/>
<feColorMatrix in="SourceAlpha" type="matrix" values="0 0 0 0 0 0 0 0 0 0 0 0 0 0 0 0 0 0 127 0" result="hardAlpha"/>
<feOffset dy="4"/>
<feGaussianBlur stdDeviation="2"/>
<feComposite in2="hardAlpha" operator="out"/>
<feColorMatrix type="matrix" values="0 0 0 0 0 0 0 0 0 0 0 0 0 0 0 0 0 0 0.25 0"/>
<feBlend mode="normal" in2="BackgroundImageFix" result="effect1_dropShadow_16476_840"/>
<feBlend mode="normal" in="SourceGraphic" in2="effect1_dropShadow_16476_840" result="shape"/>
</filter>
<linearGradient id="paint0_linear_16476_840" x1="34.9503" y1="16.5699" x2="34.9503" y2="47.7774" gradientUnits="userSpaceOnUse">
<stop stop-color="#005ED1"/>
<stop offset="1" stop-color="#001B45"/>
</linearGradient>
<linearGradient id="paint1_linear_16476_840" x1="34.9493" y1="16.7082" x2="34.9493" y2="47.0462" gradientUnits="userSpaceOnUse">
<stop stop-color="#002F87"/>
<stop offset="1" stop-color="#00102E"/>
</linearGradient>
<linearGradient id="paint2_linear_16476_840" x1="34.9503" y1="13.1856" x2="34.9503" y2="50.414" gradientUnits="userSpaceOnUse">
<stop stop-color="#D9D9D9"/>
<stop offset="1" stop-color="#878787"/>
</linearGradient>
<linearGradient id="paint3_linear_16476_840" x1="34.9504" y1="24.1723" x2="34.9504" y2="37.8885" gradientUnits="userSpaceOnUse">
<stop stop-color="#002F87"/>
<stop offset="1" stop-color="#00102E"/>
</linearGradient>
<linearGradient id="paint4_linear_16476_840" x1="34.9499" y1="24.4872" x2="34.9499" y2="37.5458" gradientUnits="userSpaceOnUse">
<stop stop-color="#005ED1"/>
<stop offset="1" stop-color="#002F6F"/>
</linearGradient>
</defs>
</svg>
