<svg width="70" height="70" viewBox="0 0 70 70" fill="none" xmlns="http://www.w3.org/2000/svg">
<g filter="url(#filter0_d_7_1055)">
<circle cx="35" cy="31" r="31" fill="white"/>
</g>
<path d="M40.624 28.75L39.9541 40.9312C42.5483 41.0966 44.94 41.9005 47.5285 42.2511C48.8313 42.4307 49.7122 42.006 50.3023 41.2876C51.1119 40.3041 51.3884 38.7647 51.4853 37.459C51.6792 34.8563 50.5417 32.4303 48.6574 30.6714C47.3204 29.4228 45.3762 28.177 43.3721 28.177C42.4 28.1742 41.4707 28.3823 40.624 28.75Z" fill="#F2928D"/>
<path d="M49.4204 38.8445C49.3691 40.1045 47.2966 40.6176 46.2761 40.7545C44.5286 40.9882 41.0107 40.9597 41.0107 40.9597C41.0107 40.9597 42.8153 38.2373 46.2761 37.4961C47.4078 37.2566 49.486 37.2509 49.4204 38.8445Z" fill="#21214A"/>
<path d="M22.0092 37.4592C21.9635 38.7648 22.069 40.3042 22.7703 41.2877C23.2834 42.0061 24.1159 42.4309 25.4386 42.2513C28.6172 41.8237 31.5876 40.7375 34.8289 40.9171C35.3278 40.9456 35.8267 40.9998 36.317 41.0768C37.5742 41.912 39.0166 42.4565 40.5874 42.3824C44.0425 42.2171 46.4941 38.819 46.8134 35.8884C47.0358 33.833 46.3202 31.1762 45.3253 29.1008C44.0625 26.461 42.8794 23.3224 41.5652 20.4517C39.5868 16.1727 38.0588 12.826 36.5707 8.35601C36.1716 7.1587 35.3877 6.07542 34.2246 5.45396C31.9212 4.22529 29.4923 5.6364 28.6656 7.9398C27.856 10.1976 27.2745 18.3279 28.4575 28.8186C27.3942 29.2947 26.3964 29.9788 25.5868 30.6659C23.5058 32.4305 22.1032 34.8565 22.0092 37.4592Z" fill="#F2928D"/>
<path d="M26.9976 38.8445C27.0489 40.1045 29.1214 40.6176 30.142 40.7545C31.8895 40.9882 35.4073 40.9597 35.4073 40.9597C35.4073 40.9597 33.6028 38.2373 30.142 37.4961C29.0074 37.2566 26.932 37.2509 26.9976 38.8445Z" fill="#21214A"/>
<path d="M40.5869 42.3824C44.042 42.217 46.4936 38.819 46.8129 35.8884C47.0353 33.833 46.3197 31.1761 45.3248 29.1008C44.062 26.461 42.8789 23.3224 41.5647 20.4517" stroke="#21214A" stroke-width="1.1567" stroke-miterlimit="10" stroke-linecap="round" stroke-linejoin="round"/>
<path d="M34.7638 30.3608C34.7638 30.3608 32.9393 27.4246 28.4551 28.8214" stroke="#21214A" stroke-width="1.1567" stroke-miterlimit="10" stroke-linecap="round" stroke-linejoin="round"/>
<path d="M41.19 30.9167C41.438 31.4469 41.8485 31.9714 42.0481 32.3705C42.3075 32.8894 42.5299 33.4225 42.6781 33.9784C42.986 35.1358 42.852 36.3245 42.5441 37.4677C42.4899 37.6701 42.4985 37.901 42.7608 37.9637C42.8919 37.995 43.023 37.9523 43.1057 37.8611C43.6815 37.2168 44.075 36.5184 44.38 35.7287C44.8817 34.4316 44.7221 32.8124 44.2488 31.5296C43.9039 30.6002 42.8121 28.2655 41.4067 29.3488C40.8479 29.7821 40.9277 30.3522 41.19 30.9167Z" fill="#FFB7B3"/>
<path d="M47.5528 46.986C47.1343 46.1582 46.7174 45.3299 46.2989 44.5021C46.2093 44.3251 46.1563 44.1549 46.2056 43.9529C46.2482 43.7847 46.3746 43.597 46.5313 43.5066C46.8482 43.3262 47.3719 43.3548 47.5522 43.7119C47.9706 44.5397 48.3875 45.3679 48.806 46.1957C48.8957 46.3728 48.9487 46.5429 48.8993 46.7449C48.8567 46.9131 48.7303 47.1008 48.5737 47.1912C48.2567 47.3716 47.7346 47.3426 47.5528 46.986Z" fill="#608BA1"/>
<path d="M39.3566 47.1399C39.4659 46.476 39.5752 45.8121 39.685 45.1497C39.7131 44.9793 39.8649 44.7954 40.0107 44.7033C40.1665 44.6048 40.3983 44.5559 40.5784 44.6015C40.7589 44.6486 40.9362 44.7466 41.0316 44.9086C41.1339 45.0817 41.1575 45.2576 41.1249 45.4577C41.0155 46.1216 40.9062 46.7856 40.7964 47.448C40.7683 47.6183 40.6166 47.8022 40.4708 47.8943C40.3149 47.9928 40.0831 48.0417 39.9031 47.9961C39.7226 47.949 39.5452 47.851 39.4499 47.689C39.3455 47.5149 39.3239 47.34 39.3566 47.1399Z" fill="#608BA1"/>
<path d="M31.49 45.1551C31.9176 44.5704 32.3457 43.9871 32.7733 43.4024C32.8775 43.2599 33.1293 43.1699 33.2985 43.1638C33.4759 43.1569 33.6933 43.2225 33.82 43.3463C33.9558 43.4773 34.0599 43.6565 34.055 43.8514C34.0484 43.9134 34.0418 43.9754 34.0347 44.036C34.0039 44.1589 33.944 44.2659 33.8574 44.3595C33.4298 44.9442 33.0016 45.5275 32.574 46.1122C32.4698 46.2547 32.218 46.3447 32.0489 46.3508C31.8714 46.3577 31.6556 46.2916 31.5274 46.1683C31.3916 46.0373 31.2874 45.8581 31.2924 45.6633C31.299 45.6012 31.3055 45.5392 31.3126 45.4787C31.3423 45.3578 31.4018 45.2492 31.49 45.1551Z" fill="#608BA1"/>
<path d="M42.4807 53.6863C42.6141 52.9499 42.7475 52.2135 42.8825 51.4766C42.9495 51.1042 43.408 50.8347 43.7763 50.93C44.1806 51.0357 44.3938 51.3875 44.3212 51.7867C44.1878 52.5231 44.0544 53.2595 43.9194 53.9964C43.8524 54.3689 43.3939 54.6383 43.0256 54.5431C42.6213 54.4374 42.4081 54.0855 42.4807 53.6863Z" fill="#608BA1"/>
<path d="M32.7764 51.7868C33.0098 51.1275 33.2443 50.4663 33.4778 49.807C33.5416 49.6239 33.6301 49.4697 33.8034 49.3607C33.9593 49.2622 34.1911 49.2133 34.3711 49.2589C34.5516 49.306 34.729 49.404 34.8243 49.566C34.9162 49.7223 34.9804 49.9339 34.9176 50.1151C34.6842 50.7743 34.4497 51.4356 34.2162 52.0948C34.1524 52.278 34.0639 52.4322 33.8906 52.5412C33.7347 52.6397 33.5029 52.6886 33.3229 52.643C33.1424 52.5959 32.965 52.4979 32.8697 52.3359C32.7773 52.1781 32.712 51.9685 32.7764 51.7868Z" fill="#608BA1"/>
<path d="M35.0092 59.5211C35.3666 58.6833 35.7241 57.8454 36.0815 57.0076C36.1504 56.8462 36.356 56.7021 36.5198 56.6511C36.693 56.5972 36.924 56.6069 37.083 56.6957C37.2481 56.7876 37.3924 56.9292 37.4413 57.114C37.4914 57.3083 37.4639 57.4752 37.3839 57.6617C37.0264 58.4996 36.669 59.3374 36.3115 60.1753C36.2442 60.3362 36.0386 60.4802 35.8748 60.5312C35.7016 60.5852 35.4706 60.5755 35.3116 60.4867C35.1465 60.3948 35.0022 60.2531 34.9533 60.0684C34.9016 59.8746 34.9307 59.7072 35.0092 59.5211Z" fill="#608BA1"/>
<defs>
<filter id="filter0_d_7_1055" x="0" y="0" width="70" height="70" filterUnits="userSpaceOnUse" color-interpolation-filters="sRGB">
<feFlood flood-opacity="0" result="BackgroundImageFix"/>
<feColorMatrix in="SourceAlpha" type="matrix" values="0 0 0 0 0 0 0 0 0 0 0 0 0 0 0 0 0 0 127 0" result="hardAlpha"/>
<feOffset dy="4"/>
<feGaussianBlur stdDeviation="2"/>
<feComposite in2="hardAlpha" operator="out"/>
<feColorMatrix type="matrix" values="0 0 0 0 0 0 0 0 0 0 0 0 0 0 0 0 0 0 0.25 0"/>
<feBlend mode="normal" in2="BackgroundImageFix" result="effect1_dropShadow_7_1055"/>
<feBlend mode="normal" in="SourceGraphic" in2="effect1_dropShadow_7_1055" result="shape"/>
</filter>
</defs>
</svg>
