<svg width="70" height="70" viewBox="0 0 70 70" fill="none" xmlns="http://www.w3.org/2000/svg">
<g filter="url(#filter0_d_16481_2288)">
<circle cx="35.0002" cy="31" r="31" fill="white"/>
</g>
<path d="M53.0155 36.9097L53.0267 36.8774C50.3526 36.8774 48.7146 35.2467 46.7469 33.8722C45.3173 32.8754 43.7146 32.0122 41.4085 32.0122C40.3724 32.0122 39.4926 32.0216 38.7457 32.0433H33.3061C32.9239 32.0433 32.5574 32.1951 32.2872 32.4653C32.017 32.7355 31.8652 33.102 31.8652 33.4842C31.8652 33.8664 32.017 34.2329 32.2872 34.5031C32.5574 34.7733 32.9239 34.9251 33.3061 34.9251H38.4139C38.8586 34.9964 39.2699 35.205 39.5902 35.5216C39.9104 35.8382 40.1237 36.247 40.2 36.6909C40.2764 37.1347 40.2121 37.5913 40.0161 37.9967C39.8201 38.4022 39.5022 38.7362 39.1069 38.952C38.9449 38.9947 38.164 39.2021 37.1214 39.4791C36.4491 39.6399 35.8102 39.812 35.2126 39.9842L35.0829 40.0184C32.8401 40.6118 30.4253 41.2467 29.9874 41.3507C29.7233 41.3706 29.4578 41.3521 29.199 41.2956L21.1546 36.0798L19.6971 35.0257V35.0289C19.627 34.9831 19.5543 34.9415 19.4793 34.9044C19.3717 34.8484 19.2593 34.8022 19.1434 34.7663C19.0501 34.739 18.9552 34.7179 18.8591 34.7031C18.7548 34.6866 18.6494 34.6779 18.5437 34.6772C18.4029 34.677 18.2625 34.6913 18.1246 34.7196C17.5462 34.7676 17.0068 35.031 16.6134 35.4578C16.22 35.8845 16.0012 36.4434 16.0002 37.0238C16.0006 37.3285 16.0619 37.6301 16.1806 37.9108C16.2992 38.1915 16.4728 38.4456 16.691 38.6583L16.6889 38.6603L16.7004 38.6686C16.8691 38.8343 17.0614 38.9741 17.271 39.0836L17.8247 39.4859L30.4348 48.6274L30.4358 48.6264C30.4866 48.646 30.5385 48.6656 30.5904 48.6864C31.0513 48.8574 31.5511 48.8948 32.0323 48.7944L32.0945 48.7788C36.3662 47.6906 45.194 45.4483 49.3258 44.4292C49.4273 44.3909 49.5239 44.3564 49.6234 44.3192C50.6773 44.0537 52.1152 43.7394 53.0155 43.7394V43.1357H53.0267L53.0155 42.3068V36.9097Z" fill="#616E7D"/>
<path d="M32.9453 14.9307C28.4235 19.7802 27.8468 22.6734 27.8123 23.7066L27.8114 23.7305C27.7918 23.901 27.7821 24.0724 27.7822 24.244C27.7822 26.942 30.0987 29.1371 32.9452 29.1371C35.7918 29.1371 38.108 26.9421 38.108 24.244C38.1081 24.0724 38.0984 23.901 38.0788 23.7305L38.0779 23.7066C38.0438 22.6734 37.467 19.7802 32.9453 14.9307ZM28.9794 25.38C28.6641 25.4047 28.384 25.2015 28.3539 24.9245C28.3227 24.6475 28.5541 24.4027 28.8696 24.3778C29.185 24.3529 29.466 24.5573 29.4962 24.8341C29.5263 25.111 29.2949 25.3549 28.9794 25.38ZM30.5407 20.3385C30.0201 21.5354 29.7036 22.7057 29.4483 23.7087C29.4048 23.8766 29.2378 23.9942 29.0449 24.0065L28.9173 23.9981C28.6754 23.9547 28.5231 23.7524 28.5749 23.5479C28.8374 22.5199 29.162 21.3188 29.7024 20.076C29.7876 19.8801 30.0448 19.7783 30.2762 19.8521C30.5076 19.9245 30.6256 20.1423 30.5407 20.3384V20.3385Z" fill="#AAD4C8"/>
<path d="M32.6158 14.1267C27.6459 19.3392 27.007 22.5314 26.9654 23.6734C26.9448 23.8626 26.9344 24.0527 26.9343 24.243C26.9343 27.3385 29.6302 29.856 32.9457 29.856C36.26 29.856 38.9572 27.3383 38.9572 24.243C38.9569 24.0528 38.9469 23.8627 38.927 23.6734C38.8845 22.5324 38.2454 19.3393 33.2755 14.1267C33.1147 13.9578 32.7766 13.9578 32.6158 14.1267ZM38.0794 23.7295C38.0989 23.9 38.1087 24.0714 38.1085 24.243C38.1085 26.941 35.7921 29.1361 32.9457 29.1361C30.0994 29.1361 27.7828 26.9411 27.7828 24.243C27.7826 24.0714 27.7923 23.9 27.8119 23.7295L27.8129 23.7056C27.8472 22.6724 28.424 19.7792 32.9459 14.9297C37.4675 19.7792 38.0444 22.6724 38.0785 23.7056L38.0794 23.7295Z" fill="#616E7D"/>
<path d="M29.7018 20.0757C29.1614 21.3183 28.8368 22.5196 28.5743 23.5476C28.5225 23.752 28.6751 23.9543 28.9167 23.9978L29.0443 24.0062C29.2372 23.9936 29.4042 23.8765 29.4477 23.7084C29.703 22.7054 30.0194 21.5351 30.5401 20.3382C30.625 20.1423 30.5071 19.9243 30.2756 19.8516C30.0442 19.778 29.787 19.8796 29.7018 20.0757Z" fill="white"/>
<path d="M28.3536 24.9229C28.3838 25.1998 28.6639 25.403 28.9792 25.3783C29.2945 25.3535 29.5258 25.1096 29.4959 24.8325C29.466 24.5553 29.1847 24.3511 28.8693 24.3761C28.5539 24.4011 28.3225 24.6458 28.3536 24.9229Z" fill="white"/>
<defs>
<filter id="filter0_d_16481_2288" x="0.000244141" y="0" width="70" height="70" filterUnits="userSpaceOnUse" color-interpolation-filters="sRGB">
<feFlood flood-opacity="0" result="BackgroundImageFix"/>
<feColorMatrix in="SourceAlpha" type="matrix" values="0 0 0 0 0 0 0 0 0 0 0 0 0 0 0 0 0 0 127 0" result="hardAlpha"/>
<feOffset dy="4"/>
<feGaussianBlur stdDeviation="2"/>
<feComposite in2="hardAlpha" operator="out"/>
<feColorMatrix type="matrix" values="0 0 0 0 0 0 0 0 0 0 0 0 0 0 0 0 0 0 0.25 0"/>
<feBlend mode="normal" in2="BackgroundImageFix" result="effect1_dropShadow_16481_2288"/>
<feBlend mode="normal" in="SourceGraphic" in2="effect1_dropShadow_16481_2288" result="shape"/>
</filter>
</defs>
</svg>
