<svg width="375" height="812" viewBox="0 0 375 812" fill="none" xmlns="http://www.w3.org/2000/svg">
<g clip-path="url(#clip0_4001_793)">
<rect width="375" height="812" fill="#EDF5FA"/>
<path fill-rule="evenodd" clip-rule="evenodd" d="M372 402.526V0H0V402.526L16.5868 371.63C24.4002 357.076 45.5714 357.998 52.0902 373.176L52.6113 374.389C59.4962 390.42 82.4621 389.708 88.341 373.282V373.282C94.5676 355.885 119.366 356.456 124.785 374.121L130.422 392.495C135.368 408.619 157.315 410.766 165.293 395.907L167.581 391.644C173.174 381.227 187.754 380.288 194.635 389.903V389.903C202.706 401.176 220.322 397.516 223.233 383.961L227.141 365.764C229.63 354.173 244.694 351.043 251.594 360.683L254.933 365.348C260.552 373.197 272.817 370.648 274.843 361.211V361.211C277.435 349.14 294.83 349.656 296.702 361.86L299.127 377.67C301.174 391.015 319.025 394.084 325.411 382.189L328.198 376.998C334.06 366.078 349.569 365.66 356.011 376.248L372 402.526Z" fill="url(#paint0_linear_4001_793)"/>
</g>
<defs>
<linearGradient id="paint0_linear_4001_793" x1="323.108" y1="-104.145" x2="-114.6" y2="359.923" gradientUnits="userSpaceOnUse">
<stop stop-color="#45A3D9"/>
<stop offset="1" stop-color="#45D9D0"/>
</linearGradient>
<clipPath id="clip0_4001_793">
<rect width="375" height="812" fill="white"/>
</clipPath>
</defs>
</svg>
