<svg width="21" height="21" viewBox="0 0 21 21" fill="none" xmlns="http://www.w3.org/2000/svg">
<path d="M15.6048 19.4275C15.0799 19.1936 14.6168 18.8404 14.2523 18.396C13.8879 17.9517 13.6321 17.4284 13.5055 16.8678C13.4936 16.8169 13.4657 16.7711 13.4258 16.7372C13.0327 16.3972 12.7032 15.99 12.4526 15.5347C12.3537 15.3601 12.3063 15.161 12.3159 14.9606C12.3255 14.7602 12.3918 14.5666 12.5071 14.4023C12.6223 14.2381 12.7818 14.1099 12.967 14.0326C13.1521 13.9553 13.3554 13.9321 13.5533 13.9657C13.6814 13.989 13.8119 13.997 13.9419 13.9896C13.977 13.9875 14.0111 13.9778 14.0419 13.961C14.0728 13.9442 14.0995 13.9208 14.1203 13.8925C14.6235 13.2041 15.3562 12.7183 16.1862 12.5227C16.238 12.5102 16.2841 12.4806 16.3171 12.4387C16.35 12.3968 16.3679 12.345 16.3678 12.2917V10.5492C16.3677 10.4915 16.3469 10.4358 16.3092 10.3923C16.2715 10.3487 16.2193 10.3201 16.1623 10.3118C16.0237 10.2911 15.9011 10.2688 15.788 10.2418C15.3147 10.1274 14.8658 9.92883 14.4628 9.65561C14.4189 9.62419 14.3652 9.6095 14.3114 9.6142C13.7267 9.64796 13.1407 9.57565 12.5817 9.40076C11.7026 9.17347 11.507 7.91085 12.2758 7.42727C12.4235 7.32737 12.5574 7.20848 12.674 7.07367C12.6969 7.0479 12.7137 7.01739 12.7233 6.98435C12.733 6.9513 12.7352 6.91653 12.7298 6.88253C12.6219 6.12703 12.729 5.35642 13.0388 4.65897C13.3142 4.03179 13.7456 3.4855 14.2917 3.07205C14.8379 2.6586 15.4807 2.39174 16.1591 2.29683C16.2179 2.28819 16.2714 2.25795 16.3091 2.212C16.3468 2.16606 16.366 2.10771 16.363 2.04835C16.338 1.49632 16.101 0.975221 15.7013 0.593631C15.3016 0.212041 14.7701 -0.000604871 14.2175 1.29238e-06H6.09414C5.52411 0.000843916 4.97766 0.227662 4.57458 0.630738C4.17151 1.03381 3.94469 1.58026 3.94385 2.15029V5.70226C3.9442 5.73567 3.95149 5.76864 3.96526 5.79908C3.97904 5.82952 3.99899 5.85676 4.02385 5.87908C4.04871 5.90139 4.07795 5.9183 4.10969 5.92871C4.14144 5.93913 4.175 5.94283 4.20825 5.93959C4.3908 5.92019 4.57421 5.91009 4.75777 5.90932C5.76503 5.91026 6.75074 6.20107 7.59721 6.74702C8.44368 7.29298 9.11514 8.07101 9.53142 8.98822C9.54508 9.01893 9.56504 9.04643 9.59001 9.06893C9.61498 9.09143 9.6444 9.10843 9.67637 9.11883C9.98333 9.21946 10.3042 9.27107 10.6273 9.27174C10.8622 9.27284 11.092 9.34032 11.2902 9.4664C11.4884 9.59248 11.647 9.77202 11.7476 9.98433C11.8481 10.1966 11.8866 10.433 11.8586 10.6663C11.8306 10.8995 11.7373 11.1201 11.5893 11.3026C11.0925 11.9332 10.4774 12.4608 9.77831 12.8556C9.72721 12.8823 9.688 12.9272 9.6684 12.9814C9.29494 13.984 8.62334 14.8481 7.74398 15.4575C6.86462 16.0669 5.81969 16.3923 4.74981 16.39C4.56887 16.3886 4.38812 16.3779 4.20825 16.3581C4.17501 16.3549 4.14147 16.3587 4.10974 16.3691C4.07802 16.3796 4.04881 16.3965 4.02395 16.4188C3.9991 16.4411 3.97915 16.4683 3.96536 16.4987C3.95157 16.5291 3.94425 16.5621 3.94385 16.5955V18.2377C3.94469 18.8077 4.17151 19.3541 4.57458 19.7572C4.97766 20.1603 5.52411 20.3871 6.09414 20.388H14.2175C14.7552 20.3881 15.2733 20.1856 15.6685 19.8209C15.6975 19.7942 15.7195 19.7606 15.7324 19.7233C15.7453 19.686 15.7487 19.6461 15.7424 19.6071C15.7361 19.5681 15.7202 19.5313 15.6962 19.5C15.6722 19.4686 15.6408 19.4437 15.6048 19.4275ZM8.65856 1.75209C8.47574 1.74638 8.29789 1.69123 8.14392 1.5925C7.98994 1.49378 7.8656 1.35517 7.78411 1.19142L7.40184 0.477844H12.9114L12.5275 1.19142C12.446 1.35517 12.3217 1.49378 12.1677 1.5925C12.0137 1.69123 11.8359 1.74638 11.653 1.75209H8.65856ZM11.8283 18.3173H8.48335C8.41999 18.3173 8.35922 18.2921 8.31441 18.2473C8.2696 18.2025 8.24443 18.1417 8.24443 18.0784C8.24443 18.015 8.2696 17.9542 8.31441 17.9094C8.35922 17.8646 8.41999 17.8395 8.48335 17.8395H11.8283C11.8916 17.8395 11.9524 17.8646 11.9972 17.9094C12.042 17.9542 12.0672 18.015 12.0672 18.0784C12.0672 18.1417 12.042 18.2025 11.9972 18.2473C11.9524 18.2921 11.8916 18.3173 11.8283 18.3173ZM16.7633 16.4059H17.3943L17.5651 15.7688H16.934L16.7633 16.4059Z" fill="url(#paint0_linear_2188_144)"/>
<path d="M15.8611 13.1247C15.2377 13.3752 14.7114 13.8197 14.3604 14.3926C14.3551 14.4009 14.3481 14.4081 14.3398 14.4136C14.3316 14.4191 14.3223 14.4228 14.3126 14.4245C14.0348 14.4808 13.7489 14.4852 13.4695 14.4374C13.3612 14.419 13.2499 14.4317 13.1485 14.474C13.0471 14.5164 12.9598 14.5867 12.8968 14.6766C12.8337 14.7666 12.7975 14.8727 12.7924 14.9824C12.7872 15.0922 12.8133 15.2012 12.8676 15.2967C13.1225 15.7686 13.4755 16.1804 13.9029 16.5045C13.9103 16.5097 13.9167 16.5162 13.9215 16.5239C13.9264 16.5315 13.9297 16.54 13.9313 16.5489C14.1554 18.085 15.6013 19.3005 17.1107 19.284C17.6885 19.2774 18.2537 19.1136 18.7455 18.8103C19.2374 18.5069 19.6374 18.0753 19.9026 17.5619C20.1678 17.0484 20.2882 16.4725 20.2509 15.8958C20.2137 15.3191 20.0201 14.7635 19.691 14.2884C19.2779 13.6904 18.6745 13.2498 17.9791 13.0385C17.2836 12.8272 16.5371 12.8576 15.8611 13.1247ZM18.5182 15.7688H18.06L17.8894 16.4059H18.3589C18.4223 16.4059 18.4831 16.4311 18.5279 16.4759C18.5727 16.5207 18.5979 16.5815 18.5979 16.6448C18.5979 16.7082 18.5727 16.769 18.5279 16.8138C18.4831 16.8586 18.4223 16.8837 18.3589 16.8837H17.7613L17.6086 17.4535C17.6004 17.4838 17.5864 17.5123 17.5673 17.5372C17.5482 17.5621 17.5244 17.583 17.4972 17.5987C17.47 17.6144 17.44 17.6246 17.4088 17.6287C17.3777 17.6328 17.3461 17.6307 17.3157 17.6226C17.2854 17.6144 17.257 17.6004 17.2321 17.5813C17.2072 17.5622 17.1862 17.5384 17.1705 17.5112C17.1548 17.484 17.1447 17.454 17.1406 17.4228C17.1365 17.3917 17.1385 17.3601 17.1467 17.3297L17.2661 16.8837H16.635L16.4805 17.4605C16.4724 17.4908 16.4584 17.5193 16.4393 17.5442C16.4202 17.5691 16.3963 17.59 16.3691 17.6057C16.342 17.6214 16.3119 17.6316 16.2808 17.6357C16.2497 17.6398 16.218 17.6377 16.1877 17.6296C16.1574 17.6215 16.1289 17.6074 16.104 17.5883C16.0791 17.5692 16.0582 17.5454 16.0425 17.5182C16.0268 17.491 16.0166 17.461 16.0125 17.4298C16.0084 17.3987 16.0105 17.3671 16.0186 17.3367L16.14 16.8837H15.8105C15.7471 16.8837 15.6863 16.8586 15.6415 16.8138C15.5967 16.769 15.5715 16.7082 15.5715 16.6448C15.5715 16.5815 15.5967 16.5207 15.6415 16.4759C15.6863 16.4311 15.7471 16.4059 15.8105 16.4059H16.2687L16.4393 15.7688H15.9697C15.9064 15.7688 15.8456 15.7436 15.8008 15.6988C15.756 15.654 15.7308 15.5932 15.7308 15.5299C15.7308 15.4665 15.756 15.4057 15.8008 15.3609C15.8456 15.3161 15.9064 15.2909 15.9697 15.2909H16.5674L16.7201 14.7212C16.7365 14.6599 16.7766 14.6077 16.8315 14.576C16.8864 14.5443 16.9517 14.5357 17.0129 14.5521C17.0742 14.5685 17.1264 14.6086 17.1581 14.6635C17.1898 14.7184 17.1984 14.7837 17.182 14.845L17.0626 15.2909H17.6936L17.8481 14.7142C17.8563 14.6839 17.8703 14.6554 17.8894 14.6305C17.9085 14.6056 17.9323 14.5847 17.9595 14.569C17.9867 14.5533 18.0167 14.5431 18.0479 14.539C18.079 14.5349 18.1106 14.537 18.141 14.5451C18.1713 14.5532 18.1997 14.5673 18.2246 14.5864C18.2496 14.6055 18.2705 14.6293 18.2862 14.6565C18.3019 14.6837 18.312 14.7137 18.3161 14.7449C18.3202 14.776 18.3182 14.8076 18.31 14.8379L18.188 15.2909H18.5182C18.5816 15.2909 18.6424 15.3161 18.6872 15.3609C18.732 15.4057 18.7571 15.4665 18.7571 15.5299C18.7571 15.5932 18.732 15.654 18.6872 15.6988C18.6424 15.7436 18.5816 15.7688 18.5182 15.7688ZM13.4767 4.85199C13.1685 5.54166 13.0877 6.31142 13.2457 7.05007C13.2489 7.0658 13.2489 7.08203 13.2455 7.09773C13.2422 7.11344 13.2356 7.12828 13.2263 7.14134C13.0434 7.40892 12.8125 7.64024 12.5452 7.82354C12.4479 7.89058 12.3714 7.9837 12.3246 8.0922C12.2778 8.2007 12.2625 8.3202 12.2805 8.43699C12.2984 8.55379 12.349 8.66316 12.4262 8.75256C12.5035 8.84197 12.6044 8.90779 12.7174 8.94248C13.2866 9.12683 13.8889 9.18584 14.483 9.11546C14.4965 9.11347 14.5103 9.11416 14.5235 9.1175C14.5367 9.12083 14.5492 9.12674 14.5601 9.13489C15.1889 9.6138 15.9565 9.87491 16.7469 9.87874C19.365 9.89068 21.1244 7.02602 19.9145 4.67535C18.5553 2.03575 14.6813 2.1251 13.4767 4.85199ZM16.9848 7.90636C16.9181 7.94418 16.8428 7.96406 16.7661 7.96406C16.6895 7.96406 16.6141 7.94418 16.5474 7.90636C15.6129 7.37516 15.0821 6.71558 15.1047 5.87951C15.1041 5.75639 15.1278 5.63437 15.1744 5.52041C15.221 5.40644 15.2896 5.30277 15.3762 5.21532C15.4629 5.12786 15.5659 5.05833 15.6795 5.01069C15.793 4.96306 15.9148 4.93825 16.0379 4.93768C16.1781 4.93762 16.3165 4.96936 16.4426 5.03053C16.5688 5.0917 16.6794 5.18069 16.7661 5.29081C16.8529 5.18069 16.9635 5.0917 17.0897 5.03053C17.2158 4.96936 17.3542 4.93762 17.4944 4.93768C17.6175 4.93825 17.7393 4.96306 17.8528 5.01069C17.9664 5.05833 18.0694 5.12786 18.156 5.21532C18.2427 5.30277 18.3113 5.40644 18.3579 5.52041C18.4045 5.63437 18.4282 5.75639 18.4276 5.87951C18.451 6.71558 17.9193 7.37468 16.9848 7.90636ZM9.27994 12.6456C9.28964 12.6173 9.30486 12.5912 9.3247 12.5688C9.34455 12.5464 9.36864 12.5282 9.39558 12.5152C10.1061 12.1472 10.7285 11.6299 11.2201 10.9986C11.3106 10.8862 11.3675 10.7506 11.3844 10.6073C11.4013 10.464 11.3774 10.3188 11.3156 10.1884C11.2538 10.0581 11.1564 9.94774 11.0348 9.87015C10.9131 9.79256 10.7721 9.75082 10.6278 9.74972C10.1772 9.74736 9.73098 9.66138 9.31179 9.49614C9.28039 9.48432 9.25175 9.46619 9.22761 9.44288C9.20348 9.41957 9.18437 9.39157 9.17147 9.3606C8.79326 8.42675 8.12812 7.63723 7.27204 7.10597C3.905 4.9955 -0.4131 7.79694 0.0317718 11.7262C0.294745 14.0486 2.44313 15.9669 4.75955 15.9185C6.71392 15.9612 8.68598 14.5632 9.27994 12.6456ZM3.62547 13.1758C3.553 13.2183 3.47053 13.2407 3.38655 13.2407H2.74942C2.62269 13.2407 2.50115 13.1903 2.41154 13.1007C2.32192 13.0111 2.27158 12.8896 2.27158 12.7628V10.3736C2.27158 10.2469 2.32192 10.1253 2.41154 10.0357C2.50115 9.94612 2.62269 9.89578 2.74942 9.89578H3.38655C3.4704 9.89563 3.55282 9.9176 3.62547 9.95949V13.1758ZM4.10331 12.9618V10.1001C4.57128 9.66594 4.87232 8.78193 5.07285 8.36525C5.42582 7.63128 6.13685 8.6158 5.96307 9.14573C5.90302 9.32922 5.77576 9.89435 5.77576 9.89435C6.15595 9.89435 6.52058 10.0454 6.78942 10.3142C7.05825 10.5831 7.20929 10.9477 7.20929 11.3279V11.8057C7.20929 12.1859 7.05825 12.5505 6.78942 12.8194C6.52058 13.0882 6.15595 13.2392 5.77576 13.2392H4.88633C4.73798 13.2392 4.59166 13.2046 4.45898 13.1383L4.10331 12.9618Z" fill="url(#paint1_linear_2188_144)"/>
<defs>
<linearGradient id="paint0_linear_2188_144" x1="3.94385" y1="0" x2="23.0243" y2="13.1831" gradientUnits="userSpaceOnUse">
<stop stop-color="#00ABE0"/>
<stop offset="1" stop-color="#5451D6"/>
</linearGradient>
<linearGradient id="paint1_linear_2188_144" x1="0" y1="2.75" x2="16.0819" y2="23.1737" gradientUnits="userSpaceOnUse">
<stop stop-color="#00ABE0"/>
<stop offset="1" stop-color="#5451D6"/>
</linearGradient>
</defs>
</svg>
