<svg width="60" height="60" viewBox="0 0 65 66" fill="none" xmlns="http://www.w3.org/2000/svg">
<g filter="url(#filter0_d_16421_421)">
<circle cx="32" cy="29" r="18" fill="#2186DA"/>
</g>
<rect x="17" y="14" width="30" height="30" fill="white" fill-opacity="0.01"/>
<path fill-rule="evenodd" clip-rule="evenodd" d="M34.75 36.5L24.25 36.5C23.6977 36.5 23.25 36.0523 23.25 35.5C23.25 34.9477 23.6977 34.5 24.25 34.5L34.75 34.5C35.3023 34.5 35.75 34.9477 35.75 35.5C35.75 36.0523 35.3023 36.5 34.75 36.5ZM23.25 23.5C23.25 22.9477 23.6977 22.5 24.25 22.5L40.75 22.5C41.3023 22.5 41.75 22.9477 41.75 23.5C41.75 24.0523 41.3023 24.5 40.75 24.5L24.25 24.5C23.6977 24.5 23.25 24.0523 23.25 23.5ZM24.25 30.5L37.75 30.5C38.3023 30.5 38.75 30.0523 38.75 29.5C38.75 28.9477 38.3023 28.5 37.75 28.5L24.25 28.5C23.6977 28.5 23.25 28.9477 23.25 29.5C23.25 30.0523 23.6977 30.5 24.25 30.5Z" fill="#F7F8F9"/>
<defs>
<filter id="filter0_d_16421_421" x="-1" y="0" width="66" height="66" filterUnits="userSpaceOnUse" color-interpolation-filters="sRGB">
<feFlood flood-opacity="0" result="BackgroundImageFix"/>
<feColorMatrix in="SourceAlpha" type="matrix" values="0 0 0 0 0 0 0 0 0 0 0 0 0 0 0 0 0 0 127 0" result="hardAlpha"/>
<feOffset dy="4"/>
<feGaussianBlur stdDeviation="7.5"/>
<feColorMatrix type="matrix" values="0 0 0 0 0 0 0 0 0 0 0 0 0 0 0 0 0 0 0.15 0"/>
<feBlend mode="normal" in2="BackgroundImageFix" result="effect1_dropShadow_16421_421"/>
<feBlend mode="normal" in="SourceGraphic" in2="effect1_dropShadow_16421_421" result="shape"/>
</filter>
</defs>
</svg>
