<svg width="36" height="36" viewBox="0 0 36 36" fill="none" xmlns="http://www.w3.org/2000/svg">
<rect opacity="0.01" width="36" height="36" fill="white"/>
<path d="M18.0195 34.8552C20.0924 34.8552 21.7728 33.1749 21.7728 31.102C21.7728 29.0292 20.0924 27.3489 18.0195 27.3489C15.9467 27.3489 14.2664 29.0292 14.2664 31.102C14.2664 33.1749 15.9467 34.8552 18.0195 34.8552Z" fill="#FF0D0D"/>
<path fill-rule="evenodd" clip-rule="evenodd" d="M18.0193 28.272C16.4562 28.272 15.1892 29.5391 15.1892 31.1021C15.1892 32.6651 16.4562 33.9322 18.0193 33.9322C19.5822 33.9322 20.8493 32.6651 20.8493 31.1021C20.8493 29.5391 19.5822 28.272 18.0193 28.272ZM13.343 31.1021C13.343 28.5194 15.4366 26.4258 18.0193 26.4258C20.6019 26.4258 22.6955 28.5194 22.6955 31.1021C22.6955 33.6847 20.6019 35.7783 18.0193 35.7783C15.4366 35.7783 13.343 33.6847 13.343 31.1021Z" fill="#FDFDFD"/>
<path fill-rule="evenodd" clip-rule="evenodd" d="M17.1094 19.7561H18.7833V30.4392H17.1094V19.7561Z" fill="#FF0D0D"/>
<path d="M18.02 20.2179C23.4092 20.2179 27.7782 15.849 27.7782 10.4597C27.7782 5.07033 23.4092 0.701416 18.02 0.701416C12.6306 0.701416 8.26172 5.07033 8.26172 10.4597C8.26172 15.849 12.6306 20.2179 18.02 20.2179Z" fill="#0590FF"/>
<path fill-rule="evenodd" clip-rule="evenodd" d="M18.0198 1.16277C12.8854 1.16277 8.72312 5.32505 8.72312 10.4595C8.72312 15.5939 12.8854 19.7562 18.0198 19.7562C23.1543 19.7562 27.3165 15.5939 27.3165 10.4595C27.3165 5.32505 23.1543 1.16277 18.0198 1.16277ZM7.80005 10.4595C7.80005 4.8153 12.3756 0.239746 18.0198 0.239746C23.664 0.239746 28.2397 4.8153 28.2397 10.4595C28.2397 16.1038 23.664 20.6793 18.0198 20.6793C12.3756 20.6793 7.80005 16.1038 7.80005 10.4595Z" fill="#1D7FCD" fill-opacity="0.5"/>
<path d="M20.1971 16.5965C20.2836 16.5043 20.3273 16.3798 20.3172 16.2538L20.2574 15.4428C19.645 15.6998 18.9875 15.8321 18.3233 15.8321C17.6591 15.8321 17.0016 15.6998 16.3892 15.4428L16.3289 16.2538C16.3243 16.3162 16.3327 16.3789 16.3534 16.4379C16.3742 16.4969 16.4069 16.551 16.4495 16.5969C16.4921 16.6427 16.5436 16.6792 16.601 16.7042C16.6584 16.7292 16.7203 16.7421 16.7828 16.7421H19.8638C19.9264 16.7424 19.9884 16.7296 20.0458 16.7045C20.1032 16.6794 20.1548 16.6426 20.1971 16.5965ZM21.9296 13.3347C21.1619 13.8837 19.8478 14.2391 18.3233 14.2391C16.7988 14.2391 15.4847 13.8837 14.717 13.3347C15.2767 14.5272 16.6802 15.3768 18.3233 15.3768C19.9664 15.3768 21.3699 14.5272 21.9296 13.3347ZM14.6826 10.3709H15.1702C15.1134 10.2474 15.0565 10.1231 15.011 9.9932C14.791 9.38796 14.6798 8.74858 14.6826 8.1046C14.6826 6.42603 15.1063 5.3584 15.6822 4.68237H14.6826C14.5016 4.68237 14.328 4.75429 14.1999 4.88231C14.0719 5.01033 14 5.18396 14 5.365V9.6883C14 9.86934 14.0719 10.043 14.1999 10.171C14.328 10.299 14.5016 10.3709 14.6826 10.3709Z" fill="white"/>
<path d="M18.3234 4C16.2983 4 15.1378 5.49723 15.1378 8.10486C15.1341 8.69532 15.2359 9.2817 15.4381 9.83645C15.5267 10.0776 15.6361 10.3109 15.7658 10.5327C16.5914 10.2645 17.4553 10.1331 18.3234 10.1436C19.1914 10.1331 20.0553 10.2645 20.8809 10.5327C21.0093 10.3109 21.1189 10.0788 21.2086 9.83873C21.4107 9.28314 21.5124 8.69605 21.509 8.10486C21.509 5.49723 20.3485 4 18.3234 4ZM18.3234 4.91017C16.8125 4.91017 16.048 5.98417 16.048 8.10486C16.048 8.1652 16.024 8.22308 15.9813 8.26575C15.9386 8.30843 15.8808 8.3324 15.8204 8.3324C15.7601 8.3324 15.7022 8.30843 15.6595 8.26575C15.6168 8.22308 15.5929 8.1652 15.5929 8.10486C15.5929 5.75207 16.5622 4.45508 18.3234 4.45508C18.3837 4.45508 18.4416 4.47906 18.4843 4.52173C18.5269 4.5644 18.5509 4.62228 18.5509 4.68263C18.5509 4.74297 18.5269 4.80085 18.4843 4.84352C18.4416 4.88619 18.3837 4.91017 18.3234 4.91017Z" fill="white"/>
<path d="M18.3235 12.6465C19.5802 12.6465 20.5989 12.3918 20.5989 12.0776C20.5989 11.7635 19.5802 11.5088 18.3235 11.5088C17.0668 11.5088 16.0481 11.7635 16.0481 12.0776C16.0481 12.3918 17.0668 12.6465 18.3235 12.6465Z" fill="white"/>
<path d="M20.94 11.0308C20.9131 11.0268 20.8874 11.0166 20.8649 11.0012C20.8627 11.0012 20.8627 10.9989 20.8604 10.9989C20.0442 10.7198 19.1858 10.5843 18.3233 10.5985C16.0092 10.5985 14.4551 11.4222 14.4551 12.1913C14.4551 12.9603 16.0092 13.7841 18.3233 13.7841C20.6374 13.7841 22.1915 12.9603 22.1915 12.1913C22.1915 11.7726 21.7296 11.3403 20.94 11.0308ZM18.3233 13.1014C17.0081 13.1014 15.5928 12.7806 15.5928 12.0775C15.5928 11.3744 17.0081 11.0535 18.3233 11.0535C19.6385 11.0535 21.0538 11.3744 21.0538 12.0775C21.0538 12.7806 19.6385 13.1014 18.3233 13.1014ZM21.6361 9.99434C21.5897 10.1221 21.5376 10.2478 21.48 10.3709H21.964C22.145 10.3709 22.3186 10.299 22.4467 10.171C22.5747 10.043 22.6466 9.86934 22.6466 9.6883V5.365C22.6466 5.18396 22.5747 5.01033 22.4467 4.88231C22.3186 4.75429 22.145 4.68237 21.964 4.68237H20.9644C21.5403 5.3584 21.964 6.42603 21.964 8.1046C21.967 8.74893 21.856 9.3887 21.6361 9.99434Z" fill="white"/>
</svg>
