<svg width="36" height="36" viewBox="0 0 36 36" fill="none" xmlns="http://www.w3.org/2000/svg">
<rect opacity="0.01" width="36" height="36" fill="white"/>
<path d="M18.0196 34.8552C20.0925 34.8552 21.7729 33.1749 21.7729 31.102C21.7729 29.0292 20.0925 27.3489 18.0196 27.3489C15.9468 27.3489 14.2665 29.0292 14.2665 31.102C14.2665 33.1749 15.9468 34.8552 18.0196 34.8552Z" fill="#3E4958"/>
<path fill-rule="evenodd" clip-rule="evenodd" d="M18.0193 28.272C16.4562 28.272 15.1892 29.5391 15.1892 31.1021C15.1892 32.6651 16.4562 33.9322 18.0193 33.9322C19.5822 33.9322 20.8493 32.6651 20.8493 31.1021C20.8493 29.5391 19.5822 28.272 18.0193 28.272ZM13.343 31.1021C13.343 28.5194 15.4366 26.4258 18.0193 26.4258C20.6019 26.4258 22.6955 28.5194 22.6955 31.1021C22.6955 33.6847 20.6019 35.7783 18.0193 35.7783C15.4366 35.7783 13.343 33.6847 13.343 31.1021Z" fill="#FDFDFD"/>
<path fill-rule="evenodd" clip-rule="evenodd" d="M17.1094 19.7561H18.7833V30.4392H17.1094V19.7561Z" fill="#3E4958"/>
<path d="M18.02 20.2179C23.4092 20.2179 27.7782 15.849 27.7782 10.4597C27.7782 5.07033 23.4092 0.701416 18.02 0.701416C12.6306 0.701416 8.26172 5.07033 8.26172 10.4597C8.26172 15.849 12.6306 20.2179 18.02 20.2179Z" fill="#0590FF"/>
<path fill-rule="evenodd" clip-rule="evenodd" d="M18.0198 1.16277C12.8854 1.16277 8.72312 5.32505 8.72312 10.4595C8.72312 15.5939 12.8854 19.7562 18.0198 19.7562C23.1543 19.7562 27.3165 15.5939 27.3165 10.4595C27.3165 5.32505 23.1543 1.16277 18.0198 1.16277ZM7.80005 10.4595C7.80005 4.8153 12.3756 0.239746 18.0198 0.239746C23.6641 0.239746 28.2397 4.8153 28.2397 10.4595C28.2397 16.1038 23.6641 20.6793 18.0198 20.6793C12.3756 20.6793 7.80005 16.1038 7.80005 10.4595Z" fill="#1D7FCD"/>
<path d="M18.0201 13.4621C19.6783 13.4621 21.0227 12.1178 21.0227 10.4596C21.0227 8.80131 19.6783 7.45703 18.0201 7.45703C16.3619 7.45703 15.0176 8.80131 15.0176 10.4596C15.0176 12.1178 16.3619 13.4621 18.0201 13.4621Z" fill="#F9FFFF"/>
</svg>
