<svg width="24" height="24" viewBox="0 0 24 24" fill="none" xmlns="http://www.w3.org/2000/svg">
<path d="M12 1C5.92487 1 1 5.92487 1 12C1 18.0751 5.92487 23 12 23C18.0751 23 23 18.0751 23 12C23 5.92487 18.0751 1 12 1Z" stroke="#FEFEFE" stroke-width="2" stroke-linecap="round" stroke-linejoin="round"/>
<path d="M3.49805 18.9804C3.49805 18.9804 5.94997 15.8501 11.9999 15.8501C18.0499 15.8501 20.502 18.9804 20.502 18.9804" stroke="#FEFEFE" stroke-width="2" stroke-linecap="round" stroke-linejoin="round"/>
<path d="M12.0002 11.9999C13.8228 11.9999 15.3002 10.5225 15.3002 8.6999C15.3002 6.87737 13.8228 5.3999 12.0002 5.3999C10.1776 5.3999 8.7002 6.87737 8.7002 8.6999C8.7002 10.5225 10.1776 11.9999 12.0002 11.9999Z" stroke="#FEFEFE" stroke-width="2" stroke-linecap="round" stroke-linejoin="round"/>
</svg>
